<ttFont>
    <TTGlyph name=".notdef" xMin="123" yMin="0" xMax="543" yMax="689">
      <contour>
        <pt x="123" y="689" on="1"/>
        <pt x="543" y="689" on="1"/>
        <pt x="543" y="0" on="1"/>
        <pt x="123" y="0" on="1"/>
      </contour>
      <contour>
        <pt x="489" y="52" on="1"/>
        <pt x="489" y="637" on="1"/>
        <pt x="178" y="637" on="1"/>
        <pt x="178" y="52" on="1"/>
      </contour>
      <contour>
        <pt x="340" y="253" on="1"/>
        <pt x="340" y="242" on="0"/>
        <pt x="324" y="229" on="0"/>
        <pt x="315" y="229" on="1"/>
        <pt x="305" y="229" on="0"/>
        <pt x="290" y="242" on="0"/>
        <pt x="290" y="253" on="1"/>
        <pt x="290" y="337" on="1"/>
        <pt x="344" y="340" on="0"/>
        <pt x="381" y="374" on="0"/>
        <pt x="381" y="414" on="1"/>
        <pt x="381" y="443" on="0"/>
        <pt x="358" y="483" on="0"/>
        <pt x="320" y="483" on="1"/>
        <pt x="291" y="483" on="0"/>
        <pt x="268" y="472" on="1"/>
        <pt x="260" y="469" on="0"/>
        <pt x="255" y="469" on="1"/>
        <pt x="244" y="469" on="0"/>
        <pt x="231" y="482" on="0"/>
        <pt x="231" y="492" on="1"/>
        <pt x="231" y="502" on="0"/>
        <pt x="249" y="517" on="0"/>
        <pt x="277" y="526" on="0"/>
        <pt x="309" y="531" on="0"/>
        <pt x="324" y="531" on="1"/>
        <pt x="356" y="531" on="0"/>
        <pt x="399" y="512" on="0"/>
        <pt x="424" y="480" on="0"/>
        <pt x="435" y="438" on="0"/>
        <pt x="435" y="416" on="1"/>
        <pt x="435" y="363" on="0"/>
        <pt x="391" y="306" on="0"/>
        <pt x="340" y="298" on="1"/>
      </contour>
      <contour>
        <pt x="280" y="165" on="1"/>
        <pt x="280" y="180" on="0"/>
        <pt x="300" y="200" on="0"/>
        <pt x="315" y="200" on="1"/>
        <pt x="330" y="200" on="0"/>
        <pt x="350" y="180" on="0"/>
        <pt x="350" y="165" on="1"/>
        <pt x="350" y="149" on="0"/>
        <pt x="330" y="128" on="0"/>
        <pt x="315" y="128" on="1"/>
        <pt x="300" y="128" on="0"/>
        <pt x="280" y="149" on="0"/>
      </contour>
    </TTGlyph>
    <TTGlyph name="A" xMin="6" yMin="0" xMax="573" yMax="689">
      <contour>
        <pt x="420" y="173" on="1"/>
        <pt x="155" y="173" on="1"/>
        <pt x="102" y="0" on="1"/>
        <pt x="6" y="0" on="1"/>
        <pt x="230" y="689" on="1"/>
        <pt x="350" y="689" on="1"/>
        <pt x="573" y="0" on="1"/>
        <pt x="473" y="0" on="1"/>
      </contour>
      <contour>
        <pt x="178" y="250" on="1"/>
        <pt x="397" y="250" on="1"/>
        <pt x="290" y="603" on="1"/>
        <pt x="286" y="603" on="1"/>
      </contour>
    </TTGlyph>
    <TTGlyph name="AE" xMin="-12" yMin="0" xMax="762" yMax="689">
      <contour>
        <pt x="417" y="173" on="1"/>
        <pt x="150" y="173" on="1"/>
        <pt x="85" y="0" on="1"/>
        <pt x="-12" y="0" on="1"/>
        <pt x="262" y="689" on="1"/>
        <pt x="721" y="689" on="1"/>
        <pt x="710" y="614" on="1"/>
        <pt x="401" y="614" on="1"/>
        <pt x="457" y="387" on="1"/>
        <pt x="712" y="387" on="1"/>
        <pt x="712" y="312" on="1"/>
        <pt x="477" y="312" on="1"/>
        <pt x="535" y="75" on="1"/>
        <pt x="762" y="75" on="1"/>
        <pt x="762" y="0" on="1"/>
        <pt x="458" y="0" on="1"/>
      </contour>
      <contour>
        <pt x="178" y="250" on="1"/>
        <pt x="400" y="250" on="1"/>
        <pt x="318" y="605" on="1"/>
        <pt x="313" y="605" on="1"/>
      </contour>
    </TTGlyph>
    <TTGlyph name="AEacute" xMin="-12" yMin="0" xMax="762" yMax="908">
      <component glyphName="AE" x="0" y="0" flags="0x204"/>
      <component glyphName="glyph00860" x="810" y="0" flags="0x4"/>
    </TTGlyph>
    <TTGlyph name="Aacute" xMin="6" yMin="0" xMax="573" yMax="910">
      <component glyphName="A" x="0" y="0" flags="0x204"/>
      <component glyphName="glyph00860" x="621" y="2" flags="0x4"/>
    </TTGlyph>
    <TTGlyph name="Abreve" xMin="6" yMin="0" xMax="573" yMax="899">
      <component glyphName="A" x="0" y="0" flags="0x204"/>
      <component glyphName="glyph00864" x="644" y="0" flags="0x4"/>
    </TTGlyph>
    <TTGlyph name="Acircumflex" xMin="6" yMin="0" xMax="573" yMax="910">
      <component glyphName="A" x="0" y="0" flags="0x204"/>
      <component glyphName="glyph00861" x="640" y="0" flags="0x4"/>
    </TTGlyph>
    <TTGlyph name="Adieresis" xMin="6" yMin="0" xMax="573" yMax="877">
      <component glyphName="A" x="0" y="0" flags="0x204"/>
      <component glyphName="glyph00866" x="633" y="0" flags="0x4"/>
    </TTGlyph>
    <TTGlyph name="Agrave" xMin="6" yMin="0" xMax="573" yMax="909">
      <component glyphName="A" x="0" y="0" flags="0x204"/>
      <component glyphName="glyph00859" x="628" y="0" flags="0x4"/>
    </TTGlyph>
    <TTGlyph name="Alpha" xMin="6" yMin="0" xMax="573" yMax="689">
      <component glyphName="A" x="0" y="0" flags="0x204"/>
    </TTGlyph>
    <TTGlyph name="Alphatonos" xMin="6" yMin="0" xMax="573" yMax="701">
      <component glyphName="A" x="0" y="0" flags="0x204"/>
      <component glyphName="glyph00884" x="181" y="0" flags="0x4"/>
    </TTGlyph>
    <TTGlyph name="Amacron" xMin="6" yMin="0" xMax="573" yMax="861">
      <component glyphName="A" x="0" y="0" flags="0x204"/>
      <component glyphName="glyph00863" x="637" y="0" flags="0x4"/>
    </TTGlyph>
    <TTGlyph name="Aogonek" xMin="6" yMin="-241" xMax="634" yMax="689">
      <contour>
        <pt x="420" y="173" on="1"/>
        <pt x="155" y="173" on="1"/>
        <pt x="102" y="0" on="1"/>
        <pt x="6" y="0" on="1"/>
        <pt x="230" y="689" on="1"/>
        <pt x="350" y="689" on="1"/>
        <pt x="573" y="0" on="1"/>
        <pt x="545" y="-17" on="0"/>
        <pt x="510" y="-50" on="0"/>
        <pt x="490" y="-83" on="0"/>
        <pt x="483" y="-114" on="0"/>
        <pt x="483" y="-127" on="1"/>
        <pt x="483" y="-150" on="0"/>
        <pt x="513" y="-180" on="0"/>
        <pt x="547" y="-180" on="1"/>
        <pt x="567" y="-180" on="0"/>
        <pt x="600" y="-170" on="0"/>
        <pt x="609" y="-165" on="1"/>
        <pt x="634" y="-219" on="1"/>
        <pt x="610" y="-231" on="0"/>
        <pt x="563" y="-241" on="0"/>
        <pt x="537" y="-241" on="1"/>
        <pt x="474" y="-241" on="0"/>
        <pt x="406" y="-181" on="0"/>
        <pt x="406" y="-130" on="1"/>
        <pt x="406" y="-94" on="0"/>
        <pt x="455" y="-25" on="0"/>
        <pt x="498" y="0" on="1"/>
        <pt x="473" y="0" on="1"/>
      </contour>
      <contour>
        <pt x="178" y="250" on="1"/>
        <pt x="397" y="250" on="1"/>
        <pt x="290" y="603" on="1"/>
        <pt x="286" y="603" on="1"/>
      </contour>
    </TTGlyph>
    <TTGlyph name="Aring" xMin="6" yMin="0" xMax="573" yMax="945">
      <component glyphName="A" x="0" y="0" flags="0x204"/>
      <component glyphName="glyph00867" x="635" y="0" flags="0x4"/>
    </TTGlyph>
    <TTGlyph name="Atilde" xMin="6" yMin="0" xMax="573" yMax="886">
      <component glyphName="A" x="0" y="0" flags="0x204"/>
      <component glyphName="glyph00862" x="648" y="0" flags="0x4"/>
    </TTGlyph>
    <TTGlyph name="B" xMin="105" yMin="0" xMax="568" yMax="689">
      <contour>
        <pt x="468" y="195" on="1"/>
        <pt x="468" y="233" on="0"/>
        <pt x="445" y="283" on="0"/>
        <pt x="406" y="312" on="0"/>
        <pt x="354" y="324" on="0"/>
        <pt x="324" y="324" on="1"/>
        <pt x="200" y="324" on="1"/>
        <pt x="200" y="76" on="1"/>
        <pt x="320" y="76" on="1"/>
        <pt x="345" y="76" on="0"/>
        <pt x="398" y="85" on="0"/>
        <pt x="441" y="111" on="0"/>
        <pt x="468" y="158" on="0"/>
      </contour>
      <contour>
        <pt x="441" y="509" on="1"/>
        <pt x="441" y="566" on="0"/>
        <pt x="371" y="614" on="0"/>
        <pt x="309" y="614" on="1"/>
        <pt x="200" y="614" on="1"/>
        <pt x="200" y="397" on="1"/>
        <pt x="317" y="397" on="1"/>
        <pt x="377" y="397" on="0"/>
        <pt x="441" y="450" on="0"/>
      </contour>
      <contour>
        <pt x="568" y="197" on="1"/>
        <pt x="568" y="140" on="0"/>
        <pt x="523" y="65" on="0"/>
        <pt x="449" y="19" on="0"/>
        <pt x="355" y="0" on="0"/>
        <pt x="307" y="0" on="1"/>
        <pt x="105" y="0" on="1"/>
        <pt x="105" y="689" on="1"/>
        <pt x="292" y="689" on="1"/>
        <pt x="338" y="689" on="0"/>
        <pt x="427" y="673" on="0"/>
        <pt x="496" y="633" on="0"/>
        <pt x="538" y="566" on="0"/>
        <pt x="538" y="515" on="1"/>
        <pt x="538" y="482" on="0"/>
        <pt x="517" y="431" on="0"/>
        <pt x="483" y="395" on="0"/>
        <pt x="440" y="373" on="0"/>
        <pt x="418" y="368" on="1"/>
        <pt x="418" y="364" on="1"/>
        <pt x="444" y="359" on="0"/>
        <pt x="497" y="338" on="0"/>
        <pt x="541" y="299" on="0"/>
        <pt x="568" y="240" on="0"/>
      </contour>
    </TTGlyph>
    <TTGlyph name="Beta" xMin="105" yMin="0" xMax="568" yMax="689">
      <component glyphName="B" x="0" y="0" flags="0x204"/>
    </TTGlyph>
    <TTGlyph name="C" xMin="62" yMin="-12" xMax="552" yMax="701">
      <contour>
        <pt x="353" y="68" on="1"/>
        <pt x="407" y="68" on="0"/>
        <pt x="477" y="104" on="0"/>
        <pt x="503" y="127" on="1"/>
        <pt x="552" y="65" on="1"/>
        <pt x="520" y="34" on="0"/>
        <pt x="421" y="-12" on="0"/>
        <pt x="349" y="-12" on="1"/>
        <pt x="287" y="-12" on="0"/>
        <pt x="181" y="34" on="0"/>
        <pt x="105" y="125" on="0"/>
        <pt x="62" y="258" on="0"/>
        <pt x="62" y="345" on="1"/>
        <pt x="62" y="432" on="0"/>
        <pt x="108" y="565" on="0"/>
        <pt x="186" y="655" on="0"/>
        <pt x="290" y="701" on="0"/>
        <pt x="348" y="701" on="1"/>
        <pt x="381" y="701" on="0"/>
        <pt x="435" y="692" on="0"/>
        <pt x="481" y="675" on="0"/>
        <pt x="522" y="649" on="0"/>
        <pt x="542" y="633" on="1"/>
        <pt x="490" y="572" on="1"/>
        <pt x="429" y="623" on="0"/>
        <pt x="354" y="623" on="1"/>
        <pt x="316" y="623" on="0"/>
        <pt x="246" y="594" on="0"/>
        <pt x="194" y="529" on="0"/>
        <pt x="163" y="423" on="0"/>
        <pt x="163" y="345" on="1"/>
        <pt x="163" y="270" on="0"/>
        <pt x="192" y="165" on="0"/>
        <pt x="243" y="99" on="0"/>
        <pt x="313" y="68" on="0"/>
      </contour>
    </TTGlyph>
    <TTGlyph name="Cacute" xMin="62" yMin="-12" xMax="552" yMax="908">
      <component glyphName="C" x="0" y="0" flags="0x204"/>
      <component glyphName="glyph00860" x="671" y="0" flags="0x4"/>
    </TTGlyph>
    <TTGlyph name="Ccaron" xMin="62" yMin="-12" xMax="552" yMax="910">
      <component glyphName="C" x="0" y="0" flags="0x204"/>
      <component glyphName="glyph00869" x="679" y="0" flags="0x4"/>
    </TTGlyph>
    <TTGlyph name="Ccedilla" xMin="62" yMin="-241" xMax="552" yMax="701">
      <contour>
        <pt x="374" y="-141" on="1"/>
        <pt x="374" y="-115" on="0"/>
        <pt x="328" y="-99" on="0"/>
        <pt x="287" y="-99" on="1"/>
        <pt x="294" y="-7" on="1"/>
        <pt x="243" y="2" on="0"/>
        <pt x="157" y="57" on="0"/>
        <pt x="96" y="145" on="0"/>
        <pt x="62" y="268" on="0"/>
        <pt x="62" y="345" on="1"/>
        <pt x="62" y="432" on="0"/>
        <pt x="108" y="565" on="0"/>
        <pt x="186" y="655" on="0"/>
        <pt x="290" y="701" on="0"/>
        <pt x="348" y="701" on="1"/>
        <pt x="381" y="701" on="0"/>
        <pt x="435" y="692" on="0"/>
        <pt x="481" y="675" on="0"/>
        <pt x="522" y="649" on="0"/>
        <pt x="542" y="633" on="1"/>
        <pt x="490" y="572" on="1"/>
        <pt x="429" y="623" on="0"/>
        <pt x="354" y="623" on="1"/>
        <pt x="316" y="623" on="0"/>
        <pt x="246" y="594" on="0"/>
        <pt x="194" y="529" on="0"/>
        <pt x="163" y="423" on="0"/>
        <pt x="163" y="345" on="1"/>
        <pt x="163" y="270" on="0"/>
        <pt x="192" y="165" on="0"/>
        <pt x="243" y="99" on="0"/>
        <pt x="313" y="68" on="0"/>
        <pt x="353" y="68" on="1"/>
        <pt x="407" y="68" on="0"/>
        <pt x="477" y="104" on="0"/>
        <pt x="503" y="127" on="1"/>
        <pt x="552" y="65" on="1"/>
        <pt x="520" y="35" on="0"/>
        <pt x="426" y="-10" on="0"/>
        <pt x="357" y="-12" on="1"/>
        <pt x="357" y="-56" on="1"/>
        <pt x="407" y="-61" on="0"/>
        <pt x="451" y="-110" on="0"/>
        <pt x="451" y="-141" on="1"/>
        <pt x="451" y="-166" on="0"/>
        <pt x="431" y="-203" on="0"/>
        <pt x="396" y="-228" on="0"/>
        <pt x="351" y="-241" on="0"/>
        <pt x="326" y="-241" on="1"/>
        <pt x="295" y="-241" on="0"/>
        <pt x="240" y="-227" on="0"/>
        <pt x="220" y="-216" on="1"/>
        <pt x="248" y="-165" on="1"/>
        <pt x="262" y="-173" on="0"/>
        <pt x="298" y="-181" on="0"/>
        <pt x="314" y="-181" on="1"/>
        <pt x="341" y="-181" on="0"/>
        <pt x="374" y="-163" on="0"/>
      </contour>
    </TTGlyph>
    <TTGlyph name="Ccircumflex" xMin="62" yMin="-12" xMax="552" yMax="910">
      <component glyphName="C" x="0" y="0" flags="0x204"/>
      <component glyphName="glyph00861" x="689" y="0" flags="0x4"/>
    </TTGlyph>
    <TTGlyph name="Cdotaccent" xMin="62" yMin="-12" xMax="552" yMax="894">
      <component glyphName="C" x="0" y="0" flags="0x204"/>
      <component glyphName="glyph00865" x="693" y="0" flags="0x4"/>
    </TTGlyph>
    <TTGlyph name="Chi" xMin="5" yMin="0" xMax="550" yMax="689">
      <component glyphName="X" x="0" y="0" flags="0x204"/>
    </TTGlyph>
    <TTGlyph name="D" xMin="105" yMin="0" xMax="594" yMax="689">
      <contour>
        <pt x="493" y="348" on="1"/>
        <pt x="493" y="436" on="0"/>
        <pt x="454" y="540" on="0"/>
        <pt x="392" y="596" on="0"/>
        <pt x="316" y="613" on="0"/>
        <pt x="280" y="613" on="1"/>
        <pt x="200" y="613" on="1"/>
        <pt x="200" y="75" on="1"/>
        <pt x="281" y="75" on="1"/>
        <pt x="319" y="75" on="0"/>
        <pt x="395" y="98" on="0"/>
        <pt x="455" y="158" on="0"/>
        <pt x="493" y="264" on="0"/>
      </contour>
      <contour>
        <pt x="594" y="348" on="1"/>
        <pt x="594" y="241" on="0"/>
        <pt x="535" y="106" on="0"/>
        <pt x="441" y="29" on="0"/>
        <pt x="326" y="0" on="0"/>
        <pt x="270" y="0" on="1"/>
        <pt x="105" y="0" on="1"/>
        <pt x="105" y="689" on="1"/>
        <pt x="259" y="689" on="1"/>
        <pt x="321" y="689" on="0"/>
        <pt x="441" y="663" on="0"/>
        <pt x="536" y="589" on="0"/>
        <pt x="594" y="455" on="0"/>
      </contour>
    </TTGlyph>
    <TTGlyph name="Dcaron" xMin="105" yMin="0" xMax="594" yMax="910">
      <component glyphName="D" x="0" y="0" flags="0x204"/>
      <component glyphName="glyph00869" x="643" y="0" flags="0x4"/>
    </TTGlyph>
    <TTGlyph name="Dcroat" xMin="23" yMin="0" xMax="594" yMax="689">
      <contour>
        <pt x="594" y="348" on="1"/>
        <pt x="594" y="241" on="0"/>
        <pt x="535" y="106" on="0"/>
        <pt x="441" y="29" on="0"/>
        <pt x="326" y="0" on="0"/>
        <pt x="270" y="0" on="1"/>
        <pt x="105" y="0" on="1"/>
        <pt x="105" y="318" on="1"/>
        <pt x="23" y="318" on="1"/>
        <pt x="23" y="388" on="1"/>
        <pt x="105" y="388" on="1"/>
        <pt x="105" y="689" on="1"/>
        <pt x="259" y="689" on="1"/>
        <pt x="321" y="689" on="0"/>
        <pt x="441" y="663" on="0"/>
        <pt x="536" y="589" on="0"/>
        <pt x="594" y="455" on="0"/>
      </contour>
      <contour>
        <pt x="493" y="348" on="1"/>
        <pt x="493" y="436" on="0"/>
        <pt x="454" y="540" on="0"/>
        <pt x="392" y="596" on="0"/>
        <pt x="316" y="613" on="0"/>
        <pt x="280" y="613" on="1"/>
        <pt x="200" y="613" on="1"/>
        <pt x="200" y="388" on="1"/>
        <pt x="372" y="388" on="1"/>
        <pt x="372" y="318" on="1"/>
        <pt x="200" y="318" on="1"/>
        <pt x="200" y="75" on="1"/>
        <pt x="281" y="75" on="1"/>
        <pt x="319" y="75" on="0"/>
        <pt x="395" y="98" on="0"/>
        <pt x="455" y="158" on="0"/>
        <pt x="493" y="264" on="0"/>
      </contour>
    </TTGlyph>
    <TTGlyph name="Delta" xMin="6" yMin="0" xMax="573" yMax="689">
      <contour>
        <pt x="230" y="689" on="1"/>
        <pt x="350" y="689" on="1"/>
        <pt x="573" y="0" on="1"/>
        <pt x="6" y="0" on="1"/>
      </contour>
      <contour>
        <pt x="126" y="78" on="1"/>
        <pt x="449" y="78" on="1"/>
        <pt x="290" y="603" on="1"/>
        <pt x="286" y="603" on="1"/>
      </contour>
    </TTGlyph>
    <TTGlyph name="E" xMin="105" yMin="0" xMax="486" yMax="689">
      <contour>
        <pt x="200" y="613" on="1"/>
        <pt x="200" y="388" on="1"/>
        <pt x="432" y="388" on="1"/>
        <pt x="432" y="312" on="1"/>
        <pt x="200" y="312" on="1"/>
        <pt x="200" y="76" on="1"/>
        <pt x="486" y="76" on="1"/>
        <pt x="486" y="0" on="1"/>
        <pt x="105" y="0" on="1"/>
        <pt x="105" y="689" on="1"/>
        <pt x="478" y="689" on="1"/>
        <pt x="467" y="613" on="1"/>
      </contour>
    </TTGlyph>
    <TTGlyph name="Eacute" xMin="105" yMin="0" xMax="486" yMax="908">
      <component glyphName="E" x="0" y="0" flags="0x204"/>
      <component glyphName="glyph00860" x="633" y="0" flags="0x4"/>
    </TTGlyph>
    <TTGlyph name="Ebreve" xMin="105" yMin="0" xMax="486" yMax="899">
      <component glyphName="E" x="0" y="0" flags="0x204"/>
      <component glyphName="glyph00864" x="643" y="0" flags="0x4"/>
    </TTGlyph>
    <TTGlyph name="Ecaron" xMin="105" yMin="0" xMax="486" yMax="910">
      <component glyphName="E" x="0" y="0" flags="0x204"/>
      <component glyphName="glyph00869" x="629" y="0" flags="0x4"/>
    </TTGlyph>
    <TTGlyph name="Ecircumflex" xMin="105" yMin="0" xMax="486" yMax="910">
      <component glyphName="E" x="0" y="0" flags="0x204"/>
      <component glyphName="glyph00861" x="639" y="0" flags="0x4"/>
    </TTGlyph>
    <TTGlyph name="Edieresis" xMin="105" yMin="0" xMax="486" yMax="877">
      <component glyphName="E" x="0" y="0" flags="0x204"/>
      <component glyphName="glyph00866" x="632" y="0" flags="0x4"/>
    </TTGlyph>
    <TTGlyph name="Edotaccent" xMin="105" yMin="0" xMax="486" yMax="894">
      <component glyphName="E" x="0" y="0" flags="0x204"/>
      <component glyphName="glyph00865" x="643" y="0" flags="0x4"/>
    </TTGlyph>
    <TTGlyph name="Egrave" xMin="105" yMin="0" xMax="486" yMax="909">
      <component glyphName="E" x="0" y="0" flags="0x204"/>
      <component glyphName="glyph00859" x="633" y="0" flags="0x4"/>
    </TTGlyph>
    <TTGlyph name="Emacron" xMin="105" yMin="0" xMax="486" yMax="861">
      <component glyphName="E" x="0" y="0" flags="0x204"/>
      <component glyphName="glyph00863" x="636" y="0" flags="0x4"/>
    </TTGlyph>
    <TTGlyph name="Eng" xMin="105" yMin="-213" xMax="584" yMax="689">
      <contour>
        <pt x="584" y="-2" on="1"/>
        <pt x="584" y="-86" on="0"/>
        <pt x="488" y="-185" on="0"/>
        <pt x="406" y="-213" on="1"/>
        <pt x="382" y="-141" on="1"/>
        <pt x="415" y="-128" on="0"/>
        <pt x="458" y="-100" on="0"/>
        <pt x="483" y="-66" on="0"/>
        <pt x="493" y="-26" on="0"/>
        <pt x="493" y="0" on="1"/>
        <pt x="455" y="0" on="1"/>
        <pt x="185" y="583" on="1"/>
        <pt x="181" y="583" on="1"/>
        <pt x="182" y="577" on="0"/>
        <pt x="186" y="525" on="0"/>
        <pt x="190" y="450" on="0"/>
        <pt x="194" y="362" on="0"/>
        <pt x="194" y="319" on="1"/>
        <pt x="194" y="0" on="1"/>
        <pt x="105" y="0" on="1"/>
        <pt x="105" y="689" on="1"/>
        <pt x="231" y="689" on="1"/>
        <pt x="505" y="103" on="1"/>
        <pt x="509" y="103" on="1"/>
        <pt x="508" y="109" on="0"/>
        <pt x="504" y="158" on="0"/>
        <pt x="499" y="231" on="0"/>
        <pt x="496" y="321" on="0"/>
        <pt x="496" y="369" on="1"/>
        <pt x="496" y="689" on="1"/>
        <pt x="584" y="689" on="1"/>
      </contour>
    </TTGlyph>
    <TTGlyph name="Eogonek" xMin="105" yMin="-241" xMax="546" yMax="689">
      <contour>
        <pt x="200" y="613" on="1"/>
        <pt x="200" y="388" on="1"/>
        <pt x="432" y="388" on="1"/>
        <pt x="432" y="312" on="1"/>
        <pt x="200" y="312" on="1"/>
        <pt x="200" y="75" on="1"/>
        <pt x="486" y="75" on="1"/>
        <pt x="486" y="0" on="1"/>
        <pt x="458" y="-17" on="0"/>
        <pt x="423" y="-51" on="0"/>
        <pt x="403" y="-84" on="0"/>
        <pt x="396" y="-114" on="0"/>
        <pt x="396" y="-127" on="1"/>
        <pt x="396" y="-150" on="0"/>
        <pt x="425" y="-180" on="0"/>
        <pt x="460" y="-180" on="1"/>
        <pt x="480" y="-180" on="0"/>
        <pt x="513" y="-170" on="0"/>
        <pt x="521" y="-165" on="1"/>
        <pt x="546" y="-219" on="1"/>
        <pt x="522" y="-231" on="0"/>
        <pt x="475" y="-241" on="0"/>
        <pt x="450" y="-241" on="1"/>
        <pt x="387" y="-241" on="0"/>
        <pt x="319" y="-181" on="0"/>
        <pt x="319" y="-130" on="1"/>
        <pt x="319" y="-94" on="0"/>
        <pt x="368" y="-25" on="0"/>
        <pt x="411" y="0" on="1"/>
        <pt x="105" y="0" on="1"/>
        <pt x="105" y="689" on="1"/>
        <pt x="478" y="689" on="1"/>
        <pt x="467" y="613" on="1"/>
      </contour>
    </TTGlyph>
    <TTGlyph name="Epsilon" xMin="105" yMin="0" xMax="486" yMax="689">
      <component glyphName="E" x="0" y="0" flags="0x204"/>
    </TTGlyph>
    <TTGlyph name="Epsilontonos" xMin="-25" yMin="0" xMax="534" yMax="701">
      <component glyphName="E" x="48" y="0" flags="0x4"/>
      <component glyphName="glyph00884" x="120" y="0" flags="0x4"/>
    </TTGlyph>
    <TTGlyph name="Eta" xMin="105" yMin="0" xMax="575" yMax="689">
      <component glyphName="H" x="0" y="0" flags="0x204"/>
    </TTGlyph>
    <TTGlyph name="Etatonos" xMin="-25" yMin="0" xMax="623" yMax="701">
      <component glyphName="H" x="48" y="0" flags="0x4"/>
      <component glyphName="glyph00884" x="120" y="0" flags="0x4"/>
    </TTGlyph>
    <TTGlyph name="Eth" xMin="23" yMin="0" xMax="594" yMax="689">
      <component glyphName="Dcroat" x="0" y="0" flags="0x204"/>
    </TTGlyph>
    <TTGlyph name="Euro" xMin="26" yMin="-12" xMax="536" yMax="701">
      <contour>
        <pt x="114" y="393" on="1"/>
        <pt x="26" y="393" on="1"/>
        <pt x="41" y="454" on="1"/>
        <pt x="121" y="454" on="1"/>
        <pt x="144" y="574" on="0"/>
        <pt x="280" y="701" on="0"/>
        <pt x="375" y="701" on="1"/>
        <pt x="428" y="701" on="0"/>
        <pt x="502" y="678" on="0"/>
        <pt x="536" y="655" on="1"/>
        <pt x="492" y="590" on="1"/>
        <pt x="464" y="608" on="0"/>
        <pt x="409" y="624" on="0"/>
        <pt x="379" y="624" on="1"/>
        <pt x="315" y="624" on="0"/>
        <pt x="231" y="546" on="0"/>
        <pt x="217" y="454" on="1"/>
        <pt x="458" y="454" on="1"/>
        <pt x="443" y="393" on="1"/>
        <pt x="210" y="393" on="1"/>
        <pt x="210" y="303" on="1"/>
        <pt x="424" y="303" on="1"/>
        <pt x="409" y="241" on="1"/>
        <pt x="214" y="241" on="1"/>
        <pt x="226" y="149" on="0"/>
        <pt x="302" y="65" on="0"/>
        <pt x="374" y="65" on="1"/>
        <pt x="420" y="65" on="0"/>
        <pt x="492" y="95" on="0"/>
        <pt x="515" y="115" on="1"/>
        <pt x="515" y="24" on="1"/>
        <pt x="489" y="9" on="0"/>
        <pt x="416" y="-12" on="0"/>
        <pt x="370" y="-12" on="1"/>
        <pt x="264" y="-12" on="0"/>
        <pt x="137" y="118" on="0"/>
        <pt x="119" y="241" on="1"/>
        <pt x="26" y="241" on="1"/>
        <pt x="41" y="303" on="1"/>
        <pt x="114" y="303" on="1"/>
      </contour>
    </TTGlyph>
    <TTGlyph name="F" xMin="105" yMin="0" xMax="471" yMax="689">
      <contour>
        <pt x="200" y="613" on="1"/>
        <pt x="200" y="378" on="1"/>
        <pt x="425" y="378" on="1"/>
        <pt x="425" y="303" on="1"/>
        <pt x="200" y="303" on="1"/>
        <pt x="200" y="0" on="1"/>
        <pt x="105" y="0" on="1"/>
        <pt x="105" y="689" on="1"/>
        <pt x="471" y="689" on="1"/>
        <pt x="460" y="613" on="1"/>
      </contour>
    </TTGlyph>
    <TTGlyph name="G" xMin="62" yMin="-12" xMax="576" yMax="701">
      <contour>
        <pt x="344" y="-12" on="1"/>
        <pt x="280" y="-12" on="0"/>
        <pt x="176" y="33" on="0"/>
        <pt x="102" y="122" on="0"/>
        <pt x="62" y="256" on="0"/>
        <pt x="62" y="345" on="1"/>
        <pt x="62" y="434" on="0"/>
        <pt x="113" y="567" on="0"/>
        <pt x="197" y="656" on="0"/>
        <pt x="305" y="701" on="0"/>
        <pt x="362" y="701" on="1"/>
        <pt x="433" y="701" on="0"/>
        <pt x="527" y="661" on="0"/>
        <pt x="568" y="624" on="1"/>
        <pt x="512" y="566" on="1"/>
        <pt x="451" y="623" on="0"/>
        <pt x="363" y="623" on="1"/>
        <pt x="325" y="623" on="0"/>
        <pt x="253" y="595" on="0"/>
        <pt x="197" y="529" on="0"/>
        <pt x="163" y="423" on="0"/>
        <pt x="163" y="345" on="1"/>
        <pt x="163" y="271" on="0"/>
        <pt x="188" y="165" on="0"/>
        <pt x="236" y="97" on="0"/>
        <pt x="306" y="66" on="0"/>
        <pt x="351" y="66" on="1"/>
        <pt x="386" y="66" on="0"/>
        <pt x="453" y="81" on="0"/>
        <pt x="482" y="98" on="1"/>
        <pt x="482" y="302" on="1"/>
        <pt x="352" y="302" on="1"/>
        <pt x="341" y="379" on="1"/>
        <pt x="576" y="379" on="1"/>
        <pt x="576" y="49" on="1"/>
        <pt x="528" y="21" on="0"/>
        <pt x="417" y="-12" on="0"/>
      </contour>
    </TTGlyph>
    <TTGlyph name="Gamma" xMin="105" yMin="0" xMax="495" yMax="689">
      <component glyphName="uni0413" x="0" y="0" flags="0x204"/>
    </TTGlyph>
    <TTGlyph name="Gbreve" xMin="62" yMin="-12" xMax="576" yMax="899">
      <component glyphName="G" x="0" y="0" flags="0x204"/>
      <component glyphName="glyph00864" x="699" y="0" flags="0x4"/>
    </TTGlyph>
    <TTGlyph name="Gcircumflex" xMin="62" yMin="-12" xMax="576" yMax="910">
      <component glyphName="G" x="0" y="0" flags="0x204"/>
      <component glyphName="glyph00861" x="697" y="0" flags="0x4"/>
    </TTGlyph>
    <TTGlyph name="Gdotaccent" xMin="62" yMin="-12" xMax="576" yMax="894">
      <component glyphName="G" x="0" y="0" flags="0x204"/>
      <component glyphName="glyph00865" x="698" y="0" flags="0x4"/>
    </TTGlyph>
    <TTGlyph name="H" xMin="105" yMin="0" xMax="575" yMax="689">
      <contour>
        <pt x="480" y="0" on="1"/>
        <pt x="480" y="323" on="1"/>
        <pt x="200" y="323" on="1"/>
        <pt x="200" y="0" on="1"/>
        <pt x="105" y="0" on="1"/>
        <pt x="105" y="689" on="1"/>
        <pt x="200" y="689" on="1"/>
        <pt x="200" y="401" on="1"/>
        <pt x="480" y="401" on="1"/>
        <pt x="480" y="689" on="1"/>
        <pt x="575" y="689" on="1"/>
        <pt x="575" y="0" on="1"/>
      </contour>
    </TTGlyph>
    <TTGlyph name="Hbar" xMin="35" yMin="0" xMax="660" yMax="689">
      <contour>
        <pt x="488" y="0" on="1"/>
        <pt x="488" y="323" on="1"/>
        <pt x="207" y="323" on="1"/>
        <pt x="207" y="0" on="1"/>
        <pt x="112" y="0" on="1"/>
        <pt x="112" y="508" on="1"/>
        <pt x="35" y="508" on="1"/>
        <pt x="35" y="577" on="1"/>
        <pt x="112" y="577" on="1"/>
        <pt x="112" y="689" on="1"/>
        <pt x="207" y="689" on="1"/>
        <pt x="207" y="577" on="1"/>
        <pt x="488" y="577" on="1"/>
        <pt x="488" y="689" on="1"/>
        <pt x="583" y="689" on="1"/>
        <pt x="583" y="577" on="1"/>
        <pt x="660" y="577" on="1"/>
        <pt x="660" y="508" on="1"/>
        <pt x="583" y="508" on="1"/>
        <pt x="583" y="0" on="1"/>
      </contour>
      <contour>
        <pt x="488" y="401" on="1"/>
        <pt x="488" y="508" on="1"/>
        <pt x="207" y="508" on="1"/>
        <pt x="207" y="401" on="1"/>
      </contour>
    </TTGlyph>
    <TTGlyph name="Hcircumflex" xMin="105" yMin="0" xMax="575" yMax="910">
      <component glyphName="H" x="0" y="0" flags="0x204"/>
      <component glyphName="glyph00861" x="691" y="0" flags="0x4"/>
    </TTGlyph>
    <TTGlyph name="I" xMin="105" yMin="0" xMax="201" yMax="689">
      <contour>
        <pt x="105" y="0" on="1"/>
        <pt x="105" y="689" on="1"/>
        <pt x="201" y="689" on="1"/>
        <pt x="201" y="0" on="1"/>
      </contour>
    </TTGlyph>
    <TTGlyph name="IJ" xMin="105" yMin="-139" xMax="513" yMax="689">
      <component glyphName="I" x="0" y="0" flags="0x4"/>
      <component glyphName="J" x="305" y="0" flags="0x4"/>
    </TTGlyph>
    <TTGlyph name="Iacute" xMin="35" yMin="0" xMax="271" yMax="908">
      <component glyphName="I" x="0" y="0" flags="0x204"/>
      <component glyphName="glyph00860" x="484" y="0" flags="0x4"/>
    </TTGlyph>
    <TTGlyph name="Ibreve" xMin="2" yMin="0" xMax="304" yMax="899">
      <component glyphName="I" x="0" y="0" flags="0x204"/>
      <component glyphName="glyph00864" x="508" y="0" flags="0x4"/>
    </TTGlyph>
    <TTGlyph name="Icircumflex" xMin="-13" yMin="0" xMax="319" yMax="910">
      <component glyphName="I" x="0" y="0" flags="0x204"/>
      <component glyphName="glyph00861" x="504" y="0" flags="0x4"/>
    </TTGlyph>
    <TTGlyph name="Idieresis" xMin="-9" yMin="0" xMax="316" yMax="877">
      <component glyphName="I" x="0" y="0" flags="0x204"/>
      <component glyphName="glyph00866" x="497" y="0" flags="0x4"/>
    </TTGlyph>
    <TTGlyph name="Idotaccent" xMin="88" yMin="0" xMax="216" yMax="894">
      <component glyphName="I" x="0" y="0" flags="0x204"/>
      <component glyphName="glyph00865" x="508" y="0" flags="0x4"/>
    </TTGlyph>
    <TTGlyph name="Igrave" xMin="35" yMin="0" xMax="271" yMax="909">
      <component glyphName="I" x="0" y="0" flags="0x204"/>
      <component glyphName="glyph00859" x="495" y="0" flags="0x4"/>
    </TTGlyph>
    <TTGlyph name="Imacron" xMin="16" yMin="0" xMax="289" yMax="861">
      <component glyphName="I" x="0" y="0" flags="0x204"/>
      <component glyphName="glyph00863" x="500" y="0" flags="0x4"/>
    </TTGlyph>
    <TTGlyph name="Iogonek" xMin="33" yMin="-241" xMax="261" yMax="689">
      <contour>
        <pt x="201" y="0" on="1"/>
        <pt x="173" y="-17" on="0"/>
        <pt x="137" y="-51" on="0"/>
        <pt x="117" y="-84" on="0"/>
        <pt x="110" y="-114" on="0"/>
        <pt x="110" y="-127" on="1"/>
        <pt x="110" y="-150" on="0"/>
        <pt x="140" y="-180" on="0"/>
        <pt x="174" y="-180" on="1"/>
        <pt x="194" y="-180" on="0"/>
        <pt x="227" y="-170" on="0"/>
        <pt x="236" y="-165" on="1"/>
        <pt x="261" y="-219" on="1"/>
        <pt x="237" y="-231" on="0"/>
        <pt x="189" y="-241" on="0"/>
        <pt x="164" y="-241" on="1"/>
        <pt x="101" y="-241" on="0"/>
        <pt x="33" y="-181" on="0"/>
        <pt x="33" y="-130" on="1"/>
        <pt x="33" y="-94" on="0"/>
        <pt x="82" y="-25" on="0"/>
        <pt x="125" y="0" on="1"/>
        <pt x="105" y="0" on="1"/>
        <pt x="105" y="689" on="1"/>
        <pt x="201" y="689" on="1"/>
      </contour>
    </TTGlyph>
    <TTGlyph name="Iota" xMin="105" yMin="0" xMax="201" yMax="689">
      <component glyphName="I" x="0" y="0" flags="0x204"/>
    </TTGlyph>
    <TTGlyph name="Iotadieresis" xMin="-10" yMin="0" xMax="315" yMax="877">
      <component glyphName="I" x="0" y="0" flags="0x204"/>
      <component glyphName="glyph00866" x="496" y="0" flags="0x4"/>
    </TTGlyph>
    <TTGlyph name="Iotatonos" xMin="-25" yMin="0" xMax="248" yMax="701">
      <component glyphName="I" x="47" y="0" flags="0x4"/>
      <component glyphName="glyph00884" x="120" y="0" flags="0x4"/>
    </TTGlyph>
    <TTGlyph name="Itilde" xMin="-12" yMin="0" xMax="319" yMax="886">
      <component glyphName="I" x="0" y="0" flags="0x204"/>
      <component glyphName="glyph00862" x="512" y="0" flags="0x4"/>
    </TTGlyph>
    <TTGlyph name="J" xMin="5" yMin="-139" xMax="208" yMax="689">
      <contour>
        <pt x="5" y="-65" on="1"/>
        <pt x="38" y="-52" on="0"/>
        <pt x="80" y="-23" on="0"/>
        <pt x="104" y="15" on="0"/>
        <pt x="113" y="65" on="0"/>
        <pt x="113" y="100" on="1"/>
        <pt x="113" y="689" on="1"/>
        <pt x="208" y="689" on="1"/>
        <pt x="208" y="96" on="1"/>
        <pt x="208" y="43" on="0"/>
        <pt x="183" y="-34" on="0"/>
        <pt x="136" y="-88" on="0"/>
        <pt x="70" y="-125" on="0"/>
        <pt x="29" y="-139" on="1"/>
      </contour>
    </TTGlyph>
    <TTGlyph name="Jcircumflex" xMin="-7" yMin="-139" xMax="325" yMax="910">
      <component glyphName="J" x="0" y="0" flags="0x204"/>
      <component glyphName="glyph00861" x="510" y="0" flags="0x4"/>
    </TTGlyph>
    <TTGlyph name="K" xMin="105" yMin="0" xMax="594" yMax="689">
      <contour>
        <pt x="200" y="0" on="1"/>
        <pt x="105" y="0" on="1"/>
        <pt x="105" y="689" on="1"/>
        <pt x="200" y="689" on="1"/>
      </contour>
      <contour>
        <pt x="205" y="368" on="1"/>
        <pt x="467" y="689" on="1"/>
        <pt x="575" y="689" on="1"/>
        <pt x="314" y="374" on="1"/>
        <pt x="594" y="0" on="1"/>
        <pt x="477" y="0" on="1"/>
      </contour>
    </TTGlyph>
    <TTGlyph name="Kappa" xMin="105" yMin="0" xMax="594" yMax="689">
      <component glyphName="K" x="0" y="0" flags="0x204"/>
    </TTGlyph>
    <TTGlyph name="L" xMin="105" yMin="0" xMax="483" yMax="689">
      <contour>
        <pt x="105" y="0" on="1"/>
        <pt x="105" y="689" on="1"/>
        <pt x="200" y="689" on="1"/>
        <pt x="200" y="83" on="1"/>
        <pt x="483" y="83" on="1"/>
        <pt x="472" y="0" on="1"/>
      </contour>
    </TTGlyph>
    <TTGlyph name="Lacute" xMin="68" yMin="0" xMax="483" yMax="908">
      <component glyphName="L" x="0" y="0" flags="0x204"/>
      <component glyphName="glyph00860" x="517" y="0" flags="0x4"/>
    </TTGlyph>
    <TTGlyph name="Lambda" xMin="6" yMin="0" xMax="563" yMax="689">
      <contour>
        <pt x="102" y="0" on="1"/>
        <pt x="6" y="0" on="1"/>
        <pt x="225" y="689" on="1"/>
        <pt x="345" y="689" on="1"/>
        <pt x="563" y="0" on="1"/>
        <pt x="463" y="0" on="1"/>
        <pt x="285" y="597" on="1"/>
        <pt x="281" y="597" on="1"/>
      </contour>
    </TTGlyph>
    <TTGlyph name="Lcaron" xMin="105" yMin="0" xMax="483" yMax="693">
      <component glyphName="L" x="0" y="0" flags="0x204"/>
      <component glyphName="uni0313" x="656" y="-169" flags="0x4"/>
    </TTGlyph>
    <TTGlyph name="Ldot" xMin="105" yMin="0" xMax="483" yMax="689">
      <component glyphName="L" x="0" y="0" flags="0x204"/>
      <component glyphName="uni0307" x="676" y="-353" flags="0x4"/>
    </TTGlyph>
    <TTGlyph name="Lslash" xMin="21" yMin="0" xMax="493" yMax="689">
      <contour>
        <pt x="115" y="0" on="1"/>
        <pt x="115" y="263" on="1"/>
        <pt x="59" y="229" on="1"/>
        <pt x="21" y="289" on="1"/>
        <pt x="115" y="347" on="1"/>
        <pt x="115" y="689" on="1"/>
        <pt x="210" y="689" on="1"/>
        <pt x="210" y="406" on="1"/>
        <pt x="370" y="505" on="1"/>
        <pt x="409" y="446" on="1"/>
        <pt x="210" y="322" on="1"/>
        <pt x="210" y="83" on="1"/>
        <pt x="493" y="83" on="1"/>
        <pt x="482" y="0" on="1"/>
      </contour>
    </TTGlyph>
    <TTGlyph name="M" xMin="62" yMin="0" xMax="734" yMax="689">
      <contour>
        <pt x="642" y="0" on="1"/>
        <pt x="612" y="353" on="1"/>
        <pt x="609" y="389" on="0"/>
        <pt x="605" y="464" on="0"/>
        <pt x="602" y="527" on="0"/>
        <pt x="601" y="574" on="0"/>
        <pt x="601" y="582" on="1"/>
        <pt x="597" y="582" on="1"/>
        <pt x="443" y="73" on="1"/>
        <pt x="352" y="73" on="1"/>
        <pt x="192" y="582" on="1"/>
        <pt x="188" y="582" on="1"/>
        <pt x="188" y="573" on="0"/>
        <pt x="187" y="525" on="0"/>
        <pt x="185" y="460" on="0"/>
        <pt x="182" y="386" on="0"/>
        <pt x="179" y="353" on="1"/>
        <pt x="152" y="0" on="1"/>
        <pt x="62" y="0" on="1"/>
        <pt x="119" y="689" on="1"/>
        <pt x="247" y="689" on="1"/>
        <pt x="398" y="186" on="1"/>
        <pt x="402" y="186" on="1"/>
        <pt x="548" y="689" on="1"/>
        <pt x="677" y="689" on="1"/>
        <pt x="734" y="0" on="1"/>
      </contour>
    </TTGlyph>
    <TTGlyph name="Mu" xMin="62" yMin="0" xMax="734" yMax="689">
      <component glyphName="M" x="0" y="0" flags="0x204"/>
    </TTGlyph>
    <TTGlyph name="N" xMin="105" yMin="0" xMax="584" yMax="689">
      <contour>
        <pt x="455" y="0" on="1"/>
        <pt x="185" y="583" on="1"/>
        <pt x="181" y="583" on="1"/>
        <pt x="182" y="577" on="0"/>
        <pt x="186" y="529" on="0"/>
        <pt x="190" y="459" on="0"/>
        <pt x="194" y="376" on="0"/>
        <pt x="194" y="336" on="1"/>
        <pt x="194" y="0" on="1"/>
        <pt x="105" y="0" on="1"/>
        <pt x="105" y="689" on="1"/>
        <pt x="231" y="689" on="1"/>
        <pt x="504" y="103" on="1"/>
        <pt x="508" y="103" on="1"/>
        <pt x="507" y="109" on="0"/>
        <pt x="503" y="154" on="0"/>
        <pt x="498" y="221" on="0"/>
        <pt x="495" y="306" on="0"/>
        <pt x="495" y="353" on="1"/>
        <pt x="495" y="689" on="1"/>
        <pt x="584" y="689" on="1"/>
        <pt x="584" y="0" on="1"/>
      </contour>
    </TTGlyph>
    <TTGlyph name="Nacute" xMin="105" yMin="0" xMax="584" yMax="908">
      <component glyphName="N" x="0" y="0" flags="0x204"/>
      <component glyphName="glyph00860" x="696" y="0" flags="0x4"/>
    </TTGlyph>
    <TTGlyph name="Ncaron" xMin="105" yMin="0" xMax="584" yMax="910">
      <component glyphName="N" x="0" y="0" flags="0x204"/>
      <component glyphName="glyph00869" x="681" y="0" flags="0x4"/>
    </TTGlyph>
    <TTGlyph name="Ntilde" xMin="105" yMin="0" xMax="584" yMax="886">
      <component glyphName="N" x="0" y="0" flags="0x204"/>
      <component glyphName="glyph00862" x="700" y="0" flags="0x4"/>
    </TTGlyph>
    <TTGlyph name="Nu" xMin="105" yMin="0" xMax="584" yMax="689">
      <component glyphName="N" x="0" y="0" flags="0x204"/>
    </TTGlyph>
    <TTGlyph name="O" xMin="62" yMin="-12" xMax="634" yMax="701">
      <contour>
        <pt x="634" y="344" on="1"/>
        <pt x="634" y="258" on="0"/>
        <pt x="592" y="125" on="0"/>
        <pt x="517" y="35" on="0"/>
        <pt x="411" y="-12" on="0"/>
        <pt x="348" y="-12" on="1"/>
        <pt x="285" y="-12" on="0"/>
        <pt x="179" y="33" on="0"/>
        <pt x="104" y="122" on="0"/>
        <pt x="62" y="255" on="0"/>
        <pt x="62" y="343" on="1"/>
        <pt x="62" y="429" on="0"/>
        <pt x="104" y="563" on="0"/>
        <pt x="179" y="654" on="0"/>
        <pt x="285" y="701" on="0"/>
        <pt x="348" y="701" on="1"/>
        <pt x="411" y="701" on="0"/>
        <pt x="517" y="655" on="0"/>
        <pt x="592" y="565" on="0"/>
        <pt x="634" y="432" on="0"/>
      </contour>
      <contour>
        <pt x="533" y="344" on="1"/>
        <pt x="533" y="420" on="0"/>
        <pt x="507" y="526" on="0"/>
        <pt x="458" y="593" on="0"/>
        <pt x="390" y="623" on="0"/>
        <pt x="348" y="623" on="1"/>
        <pt x="306" y="623" on="0"/>
        <pt x="238" y="592" on="0"/>
        <pt x="189" y="525" on="0"/>
        <pt x="163" y="419" on="0"/>
        <pt x="163" y="343" on="1"/>
        <pt x="163" y="267" on="0"/>
        <pt x="190" y="162" on="0"/>
        <pt x="239" y="96" on="0"/>
        <pt x="307" y="66" on="0"/>
        <pt x="348" y="66" on="1"/>
        <pt x="390" y="66" on="0"/>
        <pt x="458" y="96" on="0"/>
        <pt x="507" y="162" on="0"/>
        <pt x="533" y="268" on="0"/>
      </contour>
    </TTGlyph>
    <TTGlyph name="OE" xMin="68" yMin="-12" xMax="867" yMax="701">
      <contour>
        <pt x="522" y="344" on="1"/>
        <pt x="522" y="420" on="0"/>
        <pt x="499" y="526" on="0"/>
        <pt x="455" y="592" on="0"/>
        <pt x="391" y="622" on="0"/>
        <pt x="350" y="622" on="1"/>
        <pt x="311" y="622" on="0"/>
        <pt x="245" y="592" on="0"/>
        <pt x="196" y="525" on="0"/>
        <pt x="169" y="419" on="0"/>
        <pt x="169" y="343" on="1"/>
        <pt x="169" y="267" on="0"/>
        <pt x="197" y="162" on="0"/>
        <pt x="246" y="96" on="0"/>
        <pt x="312" y="66" on="0"/>
        <pt x="350" y="66" on="1"/>
        <pt x="394" y="66" on="0"/>
        <pt x="459" y="96" on="0"/>
        <pt x="501" y="162" on="0"/>
        <pt x="522" y="268" on="0"/>
      </contour>
      <contour>
        <pt x="545" y="614" on="1"/>
        <pt x="578" y="575" on="0"/>
        <pt x="612" y="462" on="0"/>
        <pt x="616" y="387" on="1"/>
        <pt x="813" y="387" on="1"/>
        <pt x="813" y="312" on="1"/>
        <pt x="616" y="312" on="1"/>
        <pt x="614" y="234" on="0"/>
        <pt x="578" y="116" on="0"/>
        <pt x="543" y="75" on="1"/>
        <pt x="867" y="75" on="1"/>
        <pt x="867" y="0" on="1"/>
        <pt x="431" y="0" on="1"/>
        <pt x="393" y="-12" on="0"/>
        <pt x="350" y="-12" on="1"/>
        <pt x="290" y="-12" on="0"/>
        <pt x="187" y="33" on="0"/>
        <pt x="111" y="122" on="0"/>
        <pt x="68" y="255" on="0"/>
        <pt x="68" y="343" on="1"/>
        <pt x="68" y="429" on="0"/>
        <pt x="112" y="563" on="0"/>
        <pt x="188" y="654" on="0"/>
        <pt x="291" y="701" on="0"/>
        <pt x="350" y="701" on="1"/>
        <pt x="395" y="701" on="0"/>
        <pt x="434" y="689" on="1"/>
        <pt x="859" y="689" on="1"/>
        <pt x="848" y="614" on="1"/>
      </contour>
    </TTGlyph>
    <TTGlyph name="Oacute" xMin="62" yMin="-12" xMax="634" yMax="908">
      <component glyphName="O" x="0" y="0" flags="0x204"/>
      <component glyphName="glyph00860" x="681" y="0" flags="0x4"/>
    </TTGlyph>
    <TTGlyph name="Obreve" xMin="62" yMin="-12" xMax="634" yMax="899">
      <component glyphName="O" x="0" y="0" flags="0x204"/>
      <component glyphName="glyph00864" x="702" y="0" flags="0x4"/>
    </TTGlyph>
    <TTGlyph name="Ocircumflex" xMin="62" yMin="-12" xMax="634" yMax="910">
      <component glyphName="O" x="0" y="0" flags="0x204"/>
      <component glyphName="glyph00861" x="699" y="0" flags="0x4"/>
    </TTGlyph>
    <TTGlyph name="Odieresis" xMin="62" yMin="-12" xMax="634" yMax="877">
      <component glyphName="O" x="0" y="0" flags="0x204"/>
      <component glyphName="glyph00866" x="692" y="0" flags="0x4"/>
    </TTGlyph>
    <TTGlyph name="Ograve" xMin="62" yMin="-12" xMax="634" yMax="909">
      <component glyphName="O" x="0" y="0" flags="0x204"/>
      <component glyphName="glyph00859" x="687" y="0" flags="0x4"/>
    </TTGlyph>
    <TTGlyph name="Ohungarumlaut" xMin="62" yMin="-12" xMax="634" yMax="963">
      <component glyphName="O" x="0" y="0" flags="0x204"/>
      <component glyphName="glyph00868" x="700" y="0" flags="0x4"/>
    </TTGlyph>
    <TTGlyph name="Omacron" xMin="62" yMin="-12" xMax="634" yMax="861">
      <component glyphName="O" x="0" y="0" flags="0x204"/>
      <component glyphName="glyph00863" x="695" y="0" flags="0x4"/>
    </TTGlyph>
    <TTGlyph name="Omega" xMin="68" yMin="0" xMax="640" yMax="701">
      <contour>
        <pt x="354" y="623" on="1"/>
        <pt x="312" y="623" on="0"/>
        <pt x="243" y="593" on="0"/>
        <pt x="195" y="528" on="0"/>
        <pt x="169" y="425" on="0"/>
        <pt x="169" y="352" on="1"/>
        <pt x="169" y="293" on="0"/>
        <pt x="188" y="201" on="0"/>
        <pt x="222" y="133" on="0"/>
        <pt x="271" y="86" on="0"/>
        <pt x="301" y="71" on="1"/>
        <pt x="301" y="0" on="1"/>
        <pt x="79" y="0" on="1"/>
        <pt x="79" y="76" on="1"/>
        <pt x="201" y="76" on="1"/>
        <pt x="201" y="80" on="1"/>
        <pt x="138" y="110" on="0"/>
        <pt x="68" y="243" on="0"/>
        <pt x="68" y="352" on="1"/>
        <pt x="68" y="435" on="0"/>
        <pt x="110" y="565" on="0"/>
        <pt x="186" y="654" on="0"/>
        <pt x="291" y="701" on="0"/>
        <pt x="354" y="701" on="1"/>
        <pt x="417" y="701" on="0"/>
        <pt x="522" y="654" on="0"/>
        <pt x="598" y="565" on="0"/>
        <pt x="640" y="435" on="0"/>
        <pt x="640" y="352" on="1"/>
        <pt x="640" y="243" on="0"/>
        <pt x="569" y="111" on="0"/>
        <pt x="506" y="80" on="1"/>
        <pt x="506" y="76" on="1"/>
        <pt x="629" y="76" on="1"/>
        <pt x="629" y="0" on="1"/>
        <pt x="408" y="0" on="1"/>
        <pt x="408" y="71" on="1"/>
        <pt x="438" y="86" on="0"/>
        <pt x="486" y="133" on="0"/>
        <pt x="521" y="201" on="0"/>
        <pt x="539" y="293" on="0"/>
        <pt x="539" y="352" on="1"/>
        <pt x="539" y="425" on="0"/>
        <pt x="513" y="528" on="0"/>
        <pt x="464" y="593" on="0"/>
        <pt x="396" y="623" on="0"/>
      </contour>
    </TTGlyph>
    <TTGlyph name="Omegatonos" xMin="-10" yMin="0" xMax="663" yMax="701">
      <component glyphName="Omega" x="23" y="0" flags="0x4"/>
      <component glyphName="glyph00884" x="135" y="0" flags="0x4"/>
    </TTGlyph>
    <TTGlyph name="Omicron" xMin="62" yMin="-12" xMax="634" yMax="701">
      <component glyphName="O" x="0" y="0" flags="0x204"/>
    </TTGlyph>
    <TTGlyph name="Omicrontonos" xMin="-15" yMin="-12" xMax="657" yMax="701">
      <component glyphName="O" x="23" y="0" flags="0x4"/>
      <component glyphName="glyph00884" x="130" y="0" flags="0x4"/>
    </TTGlyph>
    <TTGlyph name="Oslash" xMin="62" yMin="-131" xMax="634" yMax="819">
      <contour>
        <pt x="533" y="344" on="1"/>
        <pt x="533" y="445" on="0"/>
        <pt x="491" y="564" on="0"/>
        <pt x="452" y="592" on="1"/>
        <pt x="301" y="71" on="1"/>
        <pt x="312" y="68" on="0"/>
        <pt x="336" y="66" on="0"/>
        <pt x="348" y="66" on="1"/>
        <pt x="390" y="66" on="0"/>
        <pt x="458" y="96" on="0"/>
        <pt x="507" y="162" on="0"/>
        <pt x="533" y="268" on="0"/>
      </contour>
      <contour>
        <pt x="163" y="343" on="1"/>
        <pt x="163" y="242" on="0"/>
        <pt x="206" y="124" on="0"/>
        <pt x="244" y="96" on="1"/>
        <pt x="395" y="618" on="1"/>
        <pt x="387" y="620" on="0"/>
        <pt x="361" y="623" on="0"/>
        <pt x="348" y="623" on="1"/>
        <pt x="306" y="623" on="0"/>
        <pt x="238" y="592" on="0"/>
        <pt x="189" y="525" on="0"/>
        <pt x="163" y="419" on="0"/>
      </contour>
      <contour>
        <pt x="634" y="344" on="1"/>
        <pt x="634" y="258" on="0"/>
        <pt x="592" y="125" on="0"/>
        <pt x="517" y="35" on="0"/>
        <pt x="411" y="-12" on="0"/>
        <pt x="348" y="-12" on="1"/>
        <pt x="313" y="-12" on="0"/>
        <pt x="285" y="-5" on="1"/>
        <pt x="248" y="-131" on="1"/>
        <pt x="169" y="-110" on="1"/>
        <pt x="210" y="22" on="1"/>
        <pt x="141" y="60" on="0"/>
        <pt x="62" y="221" on="0"/>
        <pt x="62" y="343" on="1"/>
        <pt x="62" y="429" on="0"/>
        <pt x="104" y="563" on="0"/>
        <pt x="179" y="654" on="0"/>
        <pt x="285" y="701" on="0"/>
        <pt x="348" y="701" on="1"/>
        <pt x="365" y="701" on="0"/>
        <pt x="396" y="697" on="0"/>
        <pt x="411" y="694" on="1"/>
        <pt x="448" y="819" on="1"/>
        <pt x="527" y="798" on="1"/>
        <pt x="486" y="666" on="1"/>
        <pt x="555" y="628" on="0"/>
        <pt x="634" y="465" on="0"/>
      </contour>
    </TTGlyph>
    <TTGlyph name="Oslashacute" xMin="62" yMin="-131" xMax="634" yMax="936">
      <component glyphName="Oslash" x="0" y="0" flags="0x204"/>
      <component glyphName="glyph00860" x="651" y="28" flags="0x4"/>
    </TTGlyph>
    <TTGlyph name="Otilde" xMin="62" yMin="-12" xMax="634" yMax="886">
      <component glyphName="O" x="0" y="0" flags="0x204"/>
      <component glyphName="glyph00862" x="707" y="0" flags="0x4"/>
    </TTGlyph>
    <TTGlyph name="P" xMin="105" yMin="0" xMax="554" yMax="689">
      <contour>
        <pt x="453" y="475" on="1"/>
        <pt x="453" y="514" on="0"/>
        <pt x="429" y="567" on="0"/>
        <pt x="387" y="600" on="0"/>
        <pt x="329" y="615" on="0"/>
        <pt x="295" y="615" on="1"/>
        <pt x="200" y="615" on="1"/>
        <pt x="200" y="328" on="1"/>
        <pt x="295" y="328" on="1"/>
        <pt x="329" y="328" on="0"/>
        <pt x="387" y="341" on="0"/>
        <pt x="429" y="374" on="0"/>
        <pt x="453" y="431" on="0"/>
      </contour>
      <contour>
        <pt x="554" y="476" on="1"/>
        <pt x="554" y="416" on="0"/>
        <pt x="514" y="331" on="0"/>
        <pt x="444" y="277" on="0"/>
        <pt x="345" y="253" on="0"/>
        <pt x="287" y="253" on="1"/>
        <pt x="200" y="253" on="1"/>
        <pt x="200" y="0" on="1"/>
        <pt x="105" y="0" on="1"/>
        <pt x="105" y="689" on="1"/>
        <pt x="285" y="689" on="1"/>
        <pt x="410" y="689" on="0"/>
        <pt x="554" y="585" on="0"/>
      </contour>
    </TTGlyph>
    <TTGlyph name="Phi" xMin="35" yMin="0" xMax="775" yMax="689">
      <contour>
        <pt x="359" y="0" on="1"/>
        <pt x="359" y="71" on="1"/>
        <pt x="298" y="72" on="0"/>
        <pt x="181" y="100" on="0"/>
        <pt x="90" y="163" on="0"/>
        <pt x="35" y="268" on="0"/>
        <pt x="35" y="347" on="1"/>
        <pt x="35" y="423" on="0"/>
        <pt x="87" y="526" on="0"/>
        <pt x="176" y="589" on="0"/>
        <pt x="294" y="618" on="0"/>
        <pt x="359" y="620" on="1"/>
        <pt x="359" y="689" on="1"/>
        <pt x="451" y="689" on="1"/>
        <pt x="451" y="620" on="1"/>
        <pt x="516" y="618" on="0"/>
        <pt x="634" y="589" on="0"/>
        <pt x="723" y="526" on="0"/>
        <pt x="775" y="423" on="0"/>
        <pt x="775" y="347" on="1"/>
        <pt x="775" y="268" on="0"/>
        <pt x="720" y="163" on="0"/>
        <pt x="629" y="100" on="0"/>
        <pt x="512" y="72" on="0"/>
        <pt x="451" y="71" on="1"/>
        <pt x="451" y="0" on="1"/>
      </contour>
      <contour>
        <pt x="677" y="347" on="1"/>
        <pt x="677" y="415" on="0"/>
        <pt x="635" y="495" on="0"/>
        <pt x="569" y="536" on="0"/>
        <pt x="488" y="549" on="0"/>
        <pt x="449" y="549" on="1"/>
        <pt x="449" y="142" on="1"/>
        <pt x="490" y="144" on="0"/>
        <pt x="571" y="161" on="0"/>
        <pt x="636" y="204" on="0"/>
        <pt x="677" y="283" on="0"/>
      </contour>
      <contour>
        <pt x="133" y="347" on="1"/>
        <pt x="133" y="282" on="0"/>
        <pt x="173" y="204" on="0"/>
        <pt x="238" y="160" on="0"/>
        <pt x="320" y="144" on="0"/>
        <pt x="361" y="142" on="1"/>
        <pt x="361" y="549" on="1"/>
        <pt x="321" y="549" on="0"/>
        <pt x="240" y="536" on="0"/>
        <pt x="174" y="494" on="0"/>
        <pt x="133" y="414" on="0"/>
      </contour>
    </TTGlyph>
    <TTGlyph name="Pi" xMin="105" yMin="0" xMax="575" yMax="689">
      <component glyphName="uni041F" x="0" y="0" flags="0x204"/>
    </TTGlyph>
    <TTGlyph name="Psi" xMin="35" yMin="0" xMax="669" yMax="689">
      <contour>
        <pt x="305" y="0" on="1"/>
        <pt x="305" y="202" on="1"/>
        <pt x="233" y="207" on="0"/>
        <pt x="131" y="249" on="0"/>
        <pt x="65" y="315" on="0"/>
        <pt x="35" y="400" on="0"/>
        <pt x="35" y="449" on="1"/>
        <pt x="35" y="689" on="1"/>
        <pt x="128" y="689" on="1"/>
        <pt x="128" y="453" on="1"/>
        <pt x="128" y="416" on="0"/>
        <pt x="144" y="356" on="0"/>
        <pt x="184" y="311" on="0"/>
        <pt x="253" y="283" on="0"/>
        <pt x="307" y="279" on="1"/>
        <pt x="307" y="689" on="1"/>
        <pt x="396" y="689" on="1"/>
        <pt x="396" y="279" on="1"/>
        <pt x="449" y="283" on="0"/>
        <pt x="519" y="311" on="0"/>
        <pt x="560" y="356" on="0"/>
        <pt x="576" y="416" on="0"/>
        <pt x="576" y="453" on="1"/>
        <pt x="576" y="689" on="1"/>
        <pt x="669" y="689" on="1"/>
        <pt x="669" y="449" on="1"/>
        <pt x="669" y="400" on="0"/>
        <pt x="638" y="315" on="0"/>
        <pt x="573" y="249" on="0"/>
        <pt x="470" y="207" on="0"/>
        <pt x="398" y="202" on="1"/>
        <pt x="398" y="0" on="1"/>
      </contour>
    </TTGlyph>
    <TTGlyph name="Q" xMin="62" yMin="-103" xMax="688" yMax="701">
      <contour>
        <pt x="533" y="344" on="1"/>
        <pt x="533" y="420" on="0"/>
        <pt x="507" y="526" on="0"/>
        <pt x="458" y="593" on="0"/>
        <pt x="390" y="623" on="0"/>
        <pt x="348" y="623" on="1"/>
        <pt x="306" y="623" on="0"/>
        <pt x="238" y="592" on="0"/>
        <pt x="189" y="525" on="0"/>
        <pt x="163" y="419" on="0"/>
        <pt x="163" y="343" on="1"/>
        <pt x="163" y="267" on="0"/>
        <pt x="190" y="162" on="0"/>
        <pt x="239" y="96" on="0"/>
        <pt x="307" y="66" on="0"/>
        <pt x="348" y="66" on="1"/>
        <pt x="390" y="66" on="0"/>
        <pt x="458" y="96" on="0"/>
        <pt x="507" y="162" on="0"/>
        <pt x="533" y="268" on="0"/>
      </contour>
      <contour>
        <pt x="634" y="344" on="1"/>
        <pt x="634" y="118" on="0"/>
        <pt x="493" y="43" on="1"/>
        <pt x="494" y="39" on="1"/>
        <pt x="559" y="39" on="0"/>
        <pt x="651" y="3" on="0"/>
        <pt x="688" y="-23" on="1"/>
        <pt x="626" y="-103" on="1"/>
        <pt x="597" y="-77" on="0"/>
        <pt x="539" y="-41" on="0"/>
        <pt x="474" y="-19" on="0"/>
        <pt x="398" y="-10" on="0"/>
        <pt x="351" y="-10" on="1"/>
        <pt x="286" y="-10" on="0"/>
        <pt x="180" y="34" on="0"/>
        <pt x="104" y="123" on="0"/>
        <pt x="62" y="255" on="0"/>
        <pt x="62" y="343" on="1"/>
        <pt x="62" y="429" on="0"/>
        <pt x="104" y="563" on="0"/>
        <pt x="179" y="654" on="0"/>
        <pt x="285" y="701" on="0"/>
        <pt x="348" y="701" on="1"/>
        <pt x="411" y="701" on="0"/>
        <pt x="517" y="655" on="0"/>
        <pt x="592" y="565" on="0"/>
        <pt x="634" y="432" on="0"/>
      </contour>
    </TTGlyph>
    <TTGlyph name="R" xMin="105" yMin="0" xMax="585" yMax="689">
      <contour>
        <pt x="548" y="494" on="1"/>
        <pt x="548" y="455" on="0"/>
        <pt x="523" y="393" on="0"/>
        <pt x="478" y="346" on="0"/>
        <pt x="418" y="313" on="0"/>
        <pt x="383" y="304" on="1"/>
        <pt x="585" y="0" on="1"/>
        <pt x="472" y="0" on="1"/>
        <pt x="288" y="292" on="1"/>
        <pt x="200" y="292" on="1"/>
        <pt x="200" y="0" on="1"/>
        <pt x="105" y="0" on="1"/>
        <pt x="105" y="689" on="1"/>
        <pt x="286" y="689" on="1"/>
        <pt x="416" y="689" on="0"/>
        <pt x="548" y="591" on="0"/>
      </contour>
      <contour>
        <pt x="447" y="494" on="1"/>
        <pt x="447" y="559" on="0"/>
        <pt x="373" y="615" on="0"/>
        <pt x="295" y="615" on="1"/>
        <pt x="200" y="615" on="1"/>
        <pt x="200" y="365" on="1"/>
        <pt x="296" y="365" on="1"/>
        <pt x="368" y="365" on="0"/>
        <pt x="447" y="424" on="0"/>
      </contour>
    </TTGlyph>
    <TTGlyph name="Racute" xMin="105" yMin="0" xMax="585" yMax="908">
      <component glyphName="R" x="0" y="0" flags="0x204"/>
      <component glyphName="glyph00860" x="650" y="0" flags="0x4"/>
    </TTGlyph>
    <TTGlyph name="Rcaron" xMin="105" yMin="0" xMax="585" yMax="910">
      <component glyphName="R" x="0" y="0" flags="0x204"/>
      <component glyphName="glyph00869" x="644" y="0" flags="0x4"/>
    </TTGlyph>
    <TTGlyph name="Rho" xMin="105" yMin="0" xMax="554" yMax="689">
      <component glyphName="P" x="0" y="0" flags="0x204"/>
    </TTGlyph>
    <TTGlyph name="S" xMin="27" yMin="-12" xMax="507" yMax="701">
      <contour>
        <pt x="507" y="192" on="1"/>
        <pt x="507" y="147" on="0"/>
        <pt x="474" y="72" on="0"/>
        <pt x="411" y="18" on="0"/>
        <pt x="320" y="-12" on="0"/>
        <pt x="263" y="-12" on="1"/>
        <pt x="187" y="-12" on="0"/>
        <pt x="70" y="35" on="0"/>
        <pt x="27" y="77" on="1"/>
        <pt x="82" y="138" on="1"/>
        <pt x="117" y="104" on="0"/>
        <pt x="203" y="66" on="0"/>
        <pt x="260" y="66" on="1"/>
        <pt x="290" y="66" on="0"/>
        <pt x="344" y="81" on="0"/>
        <pt x="385" y="112" on="0"/>
        <pt x="408" y="158" on="0"/>
        <pt x="408" y="189" on="1"/>
        <pt x="408" y="213" on="0"/>
        <pt x="394" y="251" on="0"/>
        <pt x="360" y="282" on="0"/>
        <pt x="302" y="308" on="0"/>
        <pt x="259" y="322" on="1"/>
        <pt x="209" y="337" on="0"/>
        <pt x="132" y="373" on="0"/>
        <pt x="81" y="420" on="0"/>
        <pt x="55" y="481" on="0"/>
        <pt x="55" y="521" on="1"/>
        <pt x="55" y="561" on="0"/>
        <pt x="87" y="627" on="0"/>
        <pt x="144" y="675" on="0"/>
        <pt x="224" y="701" on="0"/>
        <pt x="272" y="701" on="1"/>
        <pt x="344" y="701" on="0"/>
        <pt x="443" y="660" on="0"/>
        <pt x="485" y="621" on="1"/>
        <pt x="431" y="561" on="1"/>
        <pt x="395" y="594" on="0"/>
        <pt x="320" y="623" on="0"/>
        <pt x="276" y="623" on="1"/>
        <pt x="224" y="623" on="0"/>
        <pt x="152" y="575" on="0"/>
        <pt x="152" y="525" on="1"/>
        <pt x="152" y="503" on="0"/>
        <pt x="164" y="470" on="0"/>
        <pt x="198" y="441" on="0"/>
        <pt x="256" y="415" on="0"/>
        <pt x="303" y="401" on="1"/>
        <pt x="344" y="388" on="0"/>
        <pt x="418" y="357" on="0"/>
        <pt x="474" y="310" on="0"/>
        <pt x="507" y="241" on="0"/>
      </contour>
    </TTGlyph>
    <TTGlyph name="Sacute" xMin="27" yMin="-12" xMax="507" yMax="908">
      <component glyphName="S" x="0" y="0" flags="0x204"/>
      <component glyphName="glyph00860" x="609" y="0" flags="0x4"/>
    </TTGlyph>
    <TTGlyph name="Scaron" xMin="27" yMin="-12" xMax="507" yMax="910">
      <component glyphName="S" x="0" y="0" flags="0x204"/>
      <component glyphName="glyph00869" x="619" y="0" flags="0x4"/>
    </TTGlyph>
    <TTGlyph name="Scedilla" xMin="27" yMin="-241" xMax="507" yMax="701">
      <contour>
        <pt x="311" y="-141" on="1"/>
        <pt x="311" y="-115" on="0"/>
        <pt x="265" y="-99" on="0"/>
        <pt x="224" y="-99" on="1"/>
        <pt x="231" y="-11" on="1"/>
        <pt x="166" y="-6" on="0"/>
        <pt x="65" y="39" on="0"/>
        <pt x="27" y="77" on="1"/>
        <pt x="82" y="138" on="1"/>
        <pt x="117" y="104" on="0"/>
        <pt x="202" y="66" on="0"/>
        <pt x="260" y="66" on="1"/>
        <pt x="290" y="66" on="0"/>
        <pt x="344" y="81" on="0"/>
        <pt x="385" y="112" on="0"/>
        <pt x="408" y="158" on="0"/>
        <pt x="408" y="189" on="1"/>
        <pt x="408" y="213" on="0"/>
        <pt x="394" y="250" on="0"/>
        <pt x="361" y="280" on="0"/>
        <pt x="303" y="306" on="0"/>
        <pt x="260" y="320" on="1"/>
        <pt x="210" y="335" on="0"/>
        <pt x="133" y="372" on="0"/>
        <pt x="81" y="420" on="0"/>
        <pt x="55" y="481" on="0"/>
        <pt x="55" y="521" on="1"/>
        <pt x="55" y="561" on="0"/>
        <pt x="87" y="627" on="0"/>
        <pt x="144" y="675" on="0"/>
        <pt x="224" y="701" on="0"/>
        <pt x="272" y="701" on="1"/>
        <pt x="344" y="701" on="0"/>
        <pt x="443" y="660" on="0"/>
        <pt x="485" y="621" on="1"/>
        <pt x="431" y="561" on="1"/>
        <pt x="395" y="594" on="0"/>
        <pt x="320" y="623" on="0"/>
        <pt x="276" y="623" on="1"/>
        <pt x="224" y="623" on="0"/>
        <pt x="152" y="575" on="0"/>
        <pt x="152" y="525" on="1"/>
        <pt x="152" y="503" on="0"/>
        <pt x="165" y="470" on="0"/>
        <pt x="199" y="441" on="0"/>
        <pt x="258" y="415" on="0"/>
        <pt x="305" y="401" on="1"/>
        <pt x="346" y="388" on="0"/>
        <pt x="420" y="357" on="0"/>
        <pt x="475" y="310" on="0"/>
        <pt x="507" y="241" on="0"/>
        <pt x="507" y="192" on="1"/>
        <pt x="507" y="107" on="0"/>
        <pt x="398" y="-3" on="0"/>
        <pt x="294" y="-11" on="1"/>
        <pt x="294" y="-56" on="1"/>
        <pt x="344" y="-61" on="0"/>
        <pt x="388" y="-110" on="0"/>
        <pt x="388" y="-141" on="1"/>
        <pt x="388" y="-166" on="0"/>
        <pt x="368" y="-203" on="0"/>
        <pt x="333" y="-228" on="0"/>
        <pt x="288" y="-241" on="0"/>
        <pt x="263" y="-241" on="1"/>
        <pt x="232" y="-241" on="0"/>
        <pt x="177" y="-227" on="0"/>
        <pt x="157" y="-216" on="1"/>
        <pt x="185" y="-165" on="1"/>
        <pt x="199" y="-173" on="0"/>
        <pt x="235" y="-181" on="0"/>
        <pt x="251" y="-181" on="1"/>
        <pt x="278" y="-181" on="0"/>
        <pt x="311" y="-163" on="0"/>
      </contour>
    </TTGlyph>
    <TTGlyph name="Scircumflex" xMin="27" yMin="-12" xMax="507" yMax="910">
      <component glyphName="S" x="0" y="0" flags="0x204"/>
      <component glyphName="glyph00861" x="629" y="0" flags="0x4"/>
    </TTGlyph>
    <TTGlyph name="Sigma" xMin="44" yMin="0" xMax="467" yMax="689">
      <contour>
        <pt x="351" y="315" on="1"/>
        <pt x="151" y="78" on="1"/>
        <pt x="467" y="78" on="1"/>
        <pt x="467" y="0" on="1"/>
        <pt x="44" y="0" on="1"/>
        <pt x="44" y="78" on="1"/>
        <pt x="266" y="344" on="1"/>
        <pt x="44" y="611" on="1"/>
        <pt x="44" y="689" on="1"/>
        <pt x="467" y="689" on="1"/>
        <pt x="467" y="611" on="1"/>
        <pt x="151" y="611" on="1"/>
        <pt x="351" y="377" on="1"/>
      </contour>
    </TTGlyph>
    <TTGlyph name="T" xMin="16" yMin="0" xMax="509" yMax="689">
      <contour>
        <pt x="309" y="608" on="1"/>
        <pt x="309" y="0" on="1"/>
        <pt x="214" y="0" on="1"/>
        <pt x="214" y="608" on="1"/>
        <pt x="16" y="608" on="1"/>
        <pt x="16" y="689" on="1"/>
        <pt x="509" y="689" on="1"/>
        <pt x="499" y="608" on="1"/>
      </contour>
    </TTGlyph>
    <TTGlyph name="Tau" xMin="16" yMin="0" xMax="509" yMax="689">
      <component glyphName="T" x="0" y="0" flags="0x204"/>
    </TTGlyph>
    <TTGlyph name="Tbar" xMin="16" yMin="0" xMax="509" yMax="689">
      <contour>
        <pt x="434" y="363" on="1"/>
        <pt x="309" y="363" on="1"/>
        <pt x="309" y="0" on="1"/>
        <pt x="214" y="0" on="1"/>
        <pt x="214" y="363" on="1"/>
        <pt x="90" y="363" on="1"/>
        <pt x="90" y="433" on="1"/>
        <pt x="214" y="433" on="1"/>
        <pt x="214" y="608" on="1"/>
        <pt x="16" y="608" on="1"/>
        <pt x="16" y="689" on="1"/>
        <pt x="509" y="689" on="1"/>
        <pt x="499" y="608" on="1"/>
        <pt x="309" y="608" on="1"/>
        <pt x="309" y="433" on="1"/>
        <pt x="434" y="433" on="1"/>
      </contour>
    </TTGlyph>
    <TTGlyph name="Tcaron" xMin="16" yMin="0" xMax="509" yMax="910">
      <component glyphName="T" x="0" y="0" flags="0x204"/>
      <component glyphName="glyph00869" x="599" y="0" flags="0x4"/>
    </TTGlyph>
    <TTGlyph name="Theta" xMin="62" yMin="-12" xMax="634" yMax="701">
      <contour>
        <pt x="467" y="310" on="1"/>
        <pt x="228" y="310" on="1"/>
        <pt x="228" y="384" on="1"/>
        <pt x="467" y="384" on="1"/>
      </contour>
      <contour>
        <pt x="634" y="344" on="1"/>
        <pt x="634" y="258" on="0"/>
        <pt x="592" y="125" on="0"/>
        <pt x="517" y="35" on="0"/>
        <pt x="411" y="-12" on="0"/>
        <pt x="348" y="-12" on="1"/>
        <pt x="285" y="-12" on="0"/>
        <pt x="179" y="33" on="0"/>
        <pt x="104" y="122" on="0"/>
        <pt x="62" y="255" on="0"/>
        <pt x="62" y="343" on="1"/>
        <pt x="62" y="429" on="0"/>
        <pt x="104" y="563" on="0"/>
        <pt x="179" y="654" on="0"/>
        <pt x="285" y="701" on="0"/>
        <pt x="348" y="701" on="1"/>
        <pt x="411" y="701" on="0"/>
        <pt x="517" y="655" on="0"/>
        <pt x="592" y="565" on="0"/>
        <pt x="634" y="432" on="0"/>
      </contour>
      <contour>
        <pt x="533" y="344" on="1"/>
        <pt x="533" y="420" on="0"/>
        <pt x="507" y="526" on="0"/>
        <pt x="458" y="593" on="0"/>
        <pt x="390" y="623" on="0"/>
        <pt x="348" y="623" on="1"/>
        <pt x="306" y="623" on="0"/>
        <pt x="238" y="592" on="0"/>
        <pt x="189" y="525" on="0"/>
        <pt x="163" y="419" on="0"/>
        <pt x="163" y="343" on="1"/>
        <pt x="163" y="267" on="0"/>
        <pt x="190" y="162" on="0"/>
        <pt x="239" y="96" on="0"/>
        <pt x="307" y="66" on="0"/>
        <pt x="348" y="66" on="1"/>
        <pt x="390" y="66" on="0"/>
        <pt x="458" y="96" on="0"/>
        <pt x="507" y="162" on="0"/>
        <pt x="533" y="268" on="0"/>
      </contour>
    </TTGlyph>
    <TTGlyph name="Thorn" xMin="105" yMin="0" xMax="561" yMax="689">
      <contour>
        <pt x="461" y="353" on="1"/>
        <pt x="461" y="431" on="0"/>
        <pt x="375" y="499" on="0"/>
        <pt x="304" y="499" on="1"/>
        <pt x="200" y="499" on="1"/>
        <pt x="200" y="202" on="1"/>
        <pt x="305" y="202" on="1"/>
        <pt x="339" y="202" on="0"/>
        <pt x="397" y="216" on="0"/>
        <pt x="438" y="251" on="0"/>
        <pt x="461" y="309" on="0"/>
      </contour>
      <contour>
        <pt x="561" y="355" on="1"/>
        <pt x="561" y="295" on="0"/>
        <pt x="522" y="208" on="0"/>
        <pt x="452" y="153" on="0"/>
        <pt x="354" y="127" on="0"/>
        <pt x="296" y="127" on="1"/>
        <pt x="200" y="127" on="1"/>
        <pt x="200" y="0" on="1"/>
        <pt x="105" y="0" on="1"/>
        <pt x="105" y="689" on="1"/>
        <pt x="200" y="689" on="1"/>
        <pt x="200" y="573" on="1"/>
        <pt x="294" y="573" on="1"/>
        <pt x="421" y="573" on="0"/>
        <pt x="561" y="467" on="0"/>
      </contour>
    </TTGlyph>
    <TTGlyph name="U" xMin="95" yMin="-12" xMax="577" yMax="689">
      <contour>
        <pt x="577" y="224" on="1"/>
        <pt x="577" y="171" on="0"/>
        <pt x="545" y="85" on="0"/>
        <pt x="483" y="22" on="0"/>
        <pt x="393" y="-12" on="0"/>
        <pt x="335" y="-12" on="1"/>
        <pt x="276" y="-12" on="0"/>
        <pt x="186" y="22" on="0"/>
        <pt x="126" y="85" on="0"/>
        <pt x="95" y="171" on="0"/>
        <pt x="95" y="224" on="1"/>
        <pt x="95" y="689" on="1"/>
        <pt x="190" y="689" on="1"/>
        <pt x="190" y="228" on="1"/>
        <pt x="190" y="68" on="0"/>
        <pt x="335" y="68" on="1"/>
        <pt x="481" y="68" on="0"/>
        <pt x="481" y="228" on="1"/>
        <pt x="481" y="689" on="1"/>
        <pt x="577" y="689" on="1"/>
      </contour>
    </TTGlyph>
    <TTGlyph name="Uacute" xMin="95" yMin="-12" xMax="577" yMax="908">
      <component glyphName="U" x="0" y="0" flags="0x204"/>
      <component glyphName="glyph00860" x="676" y="0" flags="0x4"/>
    </TTGlyph>
    <TTGlyph name="Ubreve" xMin="95" yMin="-12" xMax="577" yMax="899">
      <component glyphName="U" x="0" y="0" flags="0x204"/>
      <component glyphName="glyph00864" x="690" y="0" flags="0x4"/>
    </TTGlyph>
    <TTGlyph name="Ucircumflex" xMin="95" yMin="-12" xMax="577" yMax="910">
      <component glyphName="U" x="0" y="0" flags="0x204"/>
      <component glyphName="glyph00861" x="687" y="0" flags="0x4"/>
    </TTGlyph>
    <TTGlyph name="Udieresis" xMin="95" yMin="-12" xMax="577" yMax="877">
      <component glyphName="U" x="0" y="0" flags="0x204"/>
      <component glyphName="glyph00866" x="679" y="0" flags="0x4"/>
    </TTGlyph>
    <TTGlyph name="Ugrave" xMin="95" yMin="-12" xMax="577" yMax="909">
      <component glyphName="U" x="0" y="0" flags="0x204"/>
      <component glyphName="glyph00859" x="667" y="0" flags="0x4"/>
    </TTGlyph>
    <TTGlyph name="Uhungarumlaut" xMin="95" yMin="-12" xMax="577" yMax="963">
      <component glyphName="U" x="0" y="0" flags="0x204"/>
      <component glyphName="glyph00868" x="670" y="0" flags="0x4"/>
    </TTGlyph>
    <TTGlyph name="Umacron" xMin="95" yMin="-12" xMax="577" yMax="861">
      <component glyphName="U" x="0" y="0" flags="0x204"/>
      <component glyphName="glyph00863" x="683" y="0" flags="0x4"/>
    </TTGlyph>
    <TTGlyph name="Uogonek" xMin="95" yMin="-241" xMax="577" yMax="689">
      <contour>
        <pt x="577" y="224" on="1"/>
        <pt x="577" y="148" on="0"/>
        <pt x="510" y="38" on="0"/>
        <pt x="449" y="9" on="1"/>
        <pt x="415" y="-7" on="0"/>
        <pt x="373" y="-43" on="0"/>
        <pt x="350" y="-79" on="0"/>
        <pt x="342" y="-113" on="0"/>
        <pt x="342" y="-127" on="1"/>
        <pt x="342" y="-150" on="0"/>
        <pt x="371" y="-180" on="0"/>
        <pt x="406" y="-180" on="1"/>
        <pt x="426" y="-180" on="0"/>
        <pt x="459" y="-170" on="0"/>
        <pt x="467" y="-165" on="1"/>
        <pt x="492" y="-219" on="1"/>
        <pt x="468" y="-231" on="0"/>
        <pt x="421" y="-241" on="0"/>
        <pt x="396" y="-241" on="1"/>
        <pt x="333" y="-241" on="0"/>
        <pt x="265" y="-181" on="0"/>
        <pt x="265" y="-130" on="1"/>
        <pt x="265" y="-98" on="0"/>
        <pt x="304" y="-36" on="0"/>
        <pt x="342" y="-12" on="1"/>
        <pt x="286" y="-12" on="0"/>
        <pt x="195" y="19" on="0"/>
        <pt x="131" y="79" on="0"/>
        <pt x="95" y="167" on="0"/>
        <pt x="95" y="224" on="1"/>
        <pt x="95" y="689" on="1"/>
        <pt x="190" y="689" on="1"/>
        <pt x="190" y="228" on="1"/>
        <pt x="190" y="68" on="0"/>
        <pt x="335" y="68" on="1"/>
        <pt x="481" y="68" on="0"/>
        <pt x="481" y="228" on="1"/>
        <pt x="481" y="689" on="1"/>
        <pt x="577" y="689" on="1"/>
      </contour>
    </TTGlyph>
    <TTGlyph name="Upsilon" xMin="5" yMin="0" xMax="545" yMax="689">
      <component glyphName="Y" x="0" y="0" flags="0x204"/>
    </TTGlyph>
    <TTGlyph name="Upsilondieresis" xMin="5" yMin="0" xMax="545" yMax="877">
      <component glyphName="Y" x="0" y="0" flags="0x204"/>
      <component glyphName="glyph00866" x="618" y="0" flags="0x4"/>
    </TTGlyph>
    <TTGlyph name="Upsilontonos" xMin="-40" yMin="0" xMax="658" yMax="701">
      <component glyphName="Y" x="113" y="0" flags="0x4"/>
      <component glyphName="glyph00884" x="105" y="0" flags="0x4"/>
    </TTGlyph>
    <TTGlyph name="Uring" xMin="95" yMin="-12" xMax="577" yMax="945">
      <component glyphName="U" x="0" y="0" flags="0x204"/>
      <component glyphName="glyph00867" x="682" y="0" flags="0x4"/>
    </TTGlyph>
    <TTGlyph name="Utilde" xMin="95" yMin="-12" xMax="577" yMax="886">
      <component glyphName="U" x="0" y="0" flags="0x204"/>
      <component glyphName="glyph00862" x="694" y="0" flags="0x4"/>
    </TTGlyph>
    <TTGlyph name="V" xMin="15" yMin="0" xMax="570" yMax="689">
      <contour>
        <pt x="297" y="109" on="1"/>
        <pt x="474" y="689" on="1"/>
        <pt x="570" y="689" on="1"/>
        <pt x="344" y="0" on="1"/>
        <pt x="242" y="0" on="1"/>
        <pt x="15" y="689" on="1"/>
        <pt x="117" y="689" on="1"/>
        <pt x="293" y="109" on="1"/>
      </contour>
    </TTGlyph>
    <TTGlyph name="W" xMin="25" yMin="0" xMax="805" yMax="689">
      <contour>
        <pt x="665" y="0" on="1"/>
        <pt x="541" y="0" on="1"/>
        <pt x="415" y="558" on="1"/>
        <pt x="411" y="558" on="1"/>
        <pt x="284" y="0" on="1"/>
        <pt x="165" y="0" on="1"/>
        <pt x="25" y="689" on="1"/>
        <pt x="118" y="689" on="1"/>
        <pt x="227" y="92" on="1"/>
        <pt x="231" y="92" on="1"/>
        <pt x="364" y="689" on="1"/>
        <pt x="465" y="689" on="1"/>
        <pt x="601" y="95" on="1"/>
        <pt x="605" y="95" on="1"/>
        <pt x="718" y="689" on="1"/>
        <pt x="805" y="689" on="1"/>
      </contour>
    </TTGlyph>
    <TTGlyph name="Wcircumflex" xMin="25" yMin="0" xMax="805" yMax="910">
      <component glyphName="W" x="0" y="0" flags="0x204"/>
      <component glyphName="glyph00861" x="765" y="0" flags="0x4"/>
    </TTGlyph>
    <TTGlyph name="X" xMin="5" yMin="0" xMax="550" yMax="689">
      <contour>
        <pt x="23" y="689" on="1"/>
        <pt x="131" y="689" on="1"/>
        <pt x="273" y="433" on="1"/>
        <pt x="277" y="433" on="1"/>
        <pt x="425" y="689" on="1"/>
        <pt x="527" y="689" on="1"/>
        <pt x="330" y="372" on="1"/>
        <pt x="550" y="0" on="1"/>
        <pt x="442" y="0" on="1"/>
        <pt x="275" y="302" on="1"/>
        <pt x="271" y="302" on="1"/>
        <pt x="107" y="0" on="1"/>
        <pt x="5" y="0" on="1"/>
        <pt x="217" y="367" on="1"/>
      </contour>
    </TTGlyph>
    <TTGlyph name="Xi" xMin="54" yMin="0" xMax="475" yMax="689">
      <contour>
        <pt x="115" y="392" on="1"/>
        <pt x="406" y="392" on="1"/>
        <pt x="406" y="307" on="1"/>
        <pt x="115" y="307" on="1"/>
      </contour>
      <contour>
        <pt x="54" y="689" on="1"/>
        <pt x="467" y="689" on="1"/>
        <pt x="454" y="602" on="1"/>
        <pt x="54" y="602" on="1"/>
      </contour>
      <contour>
        <pt x="54" y="89" on="1"/>
        <pt x="475" y="89" on="1"/>
        <pt x="475" y="0" on="1"/>
        <pt x="54" y="0" on="1"/>
      </contour>
    </TTGlyph>
    <TTGlyph name="Y" xMin="5" yMin="0" xMax="545" yMax="689">
      <contour>
        <pt x="323" y="265" on="1"/>
        <pt x="323" y="0" on="1"/>
        <pt x="227" y="0" on="1"/>
        <pt x="227" y="264" on="1"/>
        <pt x="5" y="689" on="1"/>
        <pt x="110" y="689" on="1"/>
        <pt x="276" y="352" on="1"/>
        <pt x="280" y="352" on="1"/>
        <pt x="446" y="689" on="1"/>
        <pt x="545" y="689" on="1"/>
      </contour>
    </TTGlyph>
    <TTGlyph name="Yacute" xMin="5" yMin="0" xMax="545" yMax="908">
      <component glyphName="Y" x="0" y="0" flags="0x204"/>
      <component glyphName="glyph00860" x="616" y="0" flags="0x4"/>
    </TTGlyph>
    <TTGlyph name="Ycircumflex" xMin="5" yMin="0" xMax="545" yMax="910">
      <component glyphName="Y" x="0" y="0" flags="0x204"/>
      <component glyphName="glyph00861" x="626" y="0" flags="0x4"/>
    </TTGlyph>
    <TTGlyph name="Ydieresis" xMin="5" yMin="0" xMax="545" yMax="877">
      <component glyphName="Y" x="0" y="0" flags="0x204"/>
      <component glyphName="glyph00866" x="619" y="0" flags="0x4"/>
    </TTGlyph>
    <TTGlyph name="Z" xMin="31" yMin="0" xMax="478" yMax="689">
      <contour>
        <pt x="137" y="81" on="1"/>
        <pt x="478" y="81" on="1"/>
        <pt x="467" y="0" on="1"/>
        <pt x="31" y="0" on="1"/>
        <pt x="31" y="76" on="1"/>
        <pt x="375" y="609" on="1"/>
        <pt x="67" y="609" on="1"/>
        <pt x="67" y="689" on="1"/>
        <pt x="478" y="689" on="1"/>
        <pt x="478" y="612" on="1"/>
      </contour>
    </TTGlyph>
    <TTGlyph name="Zacute" xMin="31" yMin="0" xMax="478" yMax="908">
      <component glyphName="Z" x="0" y="0" flags="0x204"/>
      <component glyphName="glyph00860" x="609" y="0" flags="0x4"/>
    </TTGlyph>
    <TTGlyph name="Zcaron" xMin="31" yMin="0" xMax="478" yMax="910">
      <component glyphName="Z" x="0" y="0" flags="0x204"/>
      <component glyphName="glyph00869" x="611" y="0" flags="0x4"/>
    </TTGlyph>
    <TTGlyph name="Zdotaccent" xMin="31" yMin="0" xMax="478" yMax="894">
      <component glyphName="Z" x="0" y="0" flags="0x204"/>
      <component glyphName="glyph00865" x="625" y="0" flags="0x4"/>
    </TTGlyph>
    <TTGlyph name="Zeta" xMin="31" yMin="0" xMax="478" yMax="689">
      <component glyphName="Z" x="0" y="0" flags="0x204"/>
    </TTGlyph>
    <TTGlyph name="a" xMin="45" yMin="-12" xMax="492" yMax="539">
      <contour>
        <pt x="453" y="119" on="1"/>
        <pt x="453" y="87" on="0"/>
        <pt x="472" y="60" on="0"/>
        <pt x="492" y="52" on="1"/>
        <pt x="470" y="-12" on="1"/>
        <pt x="435" y="-7" on="0"/>
        <pt x="385" y="27" on="0"/>
        <pt x="373" y="62" on="1"/>
        <pt x="345" y="24" on="0"/>
        <pt x="264" y="-12" on="0"/>
        <pt x="216" y="-12" on="1"/>
        <pt x="136" y="-12" on="0"/>
        <pt x="45" y="77" on="0"/>
        <pt x="45" y="151" on="1"/>
        <pt x="45" y="233" on="0"/>
        <pt x="172" y="321" on="0"/>
        <pt x="293" y="321" on="1"/>
        <pt x="361" y="321" on="1"/>
        <pt x="361" y="362" on="1"/>
        <pt x="361" y="418" on="0"/>
        <pt x="305" y="464" on="0"/>
        <pt x="247" y="464" on="1"/>
        <pt x="221" y="464" on="0"/>
        <pt x="150" y="451" on="0"/>
        <pt x="109" y="437" on="1"/>
        <pt x="85" y="505" on="1"/>
        <pt x="134" y="523" on="0"/>
        <pt x="222" y="539" on="0"/>
        <pt x="261" y="539" on="1"/>
        <pt x="362" y="539" on="0"/>
        <pt x="453" y="448" on="0"/>
        <pt x="453" y="367" on="1"/>
      </contour>
      <contour>
        <pt x="241" y="57" on="1"/>
        <pt x="279" y="57" on="0"/>
        <pt x="338" y="95" on="0"/>
        <pt x="361" y="130" on="1"/>
        <pt x="361" y="260" on="1"/>
        <pt x="298" y="260" on="1"/>
        <pt x="213" y="260" on="0"/>
        <pt x="146" y="203" on="0"/>
        <pt x="146" y="155" on="1"/>
        <pt x="146" y="106" on="0"/>
        <pt x="191" y="57" on="0"/>
      </contour>
    </TTGlyph>
    <TTGlyph name="aacute" xMin="45" yMin="-12" xMax="492" yMax="791">
      <component glyphName="a" x="0" y="0" flags="0x204"/>
      <component glyphName="acutecomb" x="542" y="0" flags="0x4"/>
    </TTGlyph>
    <TTGlyph name="abreve" xMin="45" yMin="-12" xMax="492" yMax="781">
      <component glyphName="a" x="0" y="0" flags="0x204"/>
      <component glyphName="uni0306" x="560" y="0" flags="0x4"/>
    </TTGlyph>
    <TTGlyph name="acircumflex" xMin="45" yMin="-12" xMax="492" yMax="792">
      <component glyphName="a" x="0" y="0" flags="0x204"/>
      <component glyphName="uni0302" x="565" y="0" flags="0x4"/>
    </TTGlyph>
    <TTGlyph name="acute" xMin="30" yMin="638" xMax="267" yMax="799">
      <contour>
        <pt x="30" y="687" on="1"/>
        <pt x="220" y="799" on="1"/>
        <pt x="267" y="722" on="1"/>
        <pt x="58" y="638" on="1"/>
      </contour>
    </TTGlyph>
    <TTGlyph name="acutecomb" xMin="-395" yMin="622" xMax="-160" yMax="791">
      <contour>
        <pt x="-395" y="672" on="1"/>
        <pt x="-207" y="791" on="1"/>
        <pt x="-160" y="714" on="1"/>
        <pt x="-365" y="622" on="1"/>
      </contour>
    </TTGlyph>
    <TTGlyph name="adieresis" xMin="45" yMin="-12" xMax="492" yMax="760">
      <component glyphName="a" x="0" y="0" flags="0x204"/>
      <component glyphName="uni0308" x="556" y="0" flags="0x4"/>
    </TTGlyph>
    <TTGlyph name="ae" xMin="45" yMin="-12" xMax="787" yMax="539">
      <contour>
        <pt x="419" y="453" on="1"/>
        <pt x="442" y="490" on="0"/>
        <pt x="518" y="539" on="0"/>
        <pt x="574" y="539" on="1"/>
        <pt x="678" y="539" on="0"/>
        <pt x="787" y="400" on="0"/>
        <pt x="787" y="279" on="1"/>
        <pt x="787" y="265" on="0"/>
        <pt x="786" y="241" on="0"/>
        <pt x="785" y="232" on="1"/>
        <pt x="449" y="232" on="1"/>
        <pt x="455" y="144" on="0"/>
        <pt x="531" y="63" on="0"/>
        <pt x="591" y="63" on="1"/>
        <pt x="627" y="63" on="0"/>
        <pt x="689" y="84" on="0"/>
        <pt x="723" y="112" on="1"/>
        <pt x="765" y="51" on="1"/>
        <pt x="728" y="22" on="0"/>
        <pt x="640" y="-12" on="0"/>
        <pt x="589" y="-12" on="1"/>
        <pt x="524" y="-12" on="0"/>
        <pt x="434" y="39" on="0"/>
        <pt x="408" y="78" on="1"/>
        <pt x="374" y="31" on="0"/>
        <pt x="284" y="-12" on="0"/>
        <pt x="222" y="-12" on="1"/>
        <pt x="137" y="-12" on="0"/>
        <pt x="45" y="77" on="0"/>
        <pt x="45" y="151" on="1"/>
        <pt x="45" y="234" on="0"/>
        <pt x="172" y="321" on="0"/>
        <pt x="293" y="321" on="1"/>
        <pt x="362" y="321" on="1"/>
        <pt x="362" y="362" on="1"/>
        <pt x="362" y="417" on="0"/>
        <pt x="305" y="464" on="0"/>
        <pt x="247" y="464" on="1"/>
        <pt x="221" y="464" on="0"/>
        <pt x="150" y="451" on="0"/>
        <pt x="109" y="437" on="1"/>
        <pt x="85" y="505" on="1"/>
        <pt x="134" y="523" on="0"/>
        <pt x="222" y="539" on="0"/>
        <pt x="261" y="539" on="1"/>
        <pt x="328" y="539" on="0"/>
        <pt x="403" y="492" on="0"/>
      </contour>
      <contour>
        <pt x="241" y="57" on="1"/>
        <pt x="324" y="57" on="0"/>
        <pt x="376" y="150" on="1"/>
        <pt x="368" y="174" on="0"/>
        <pt x="362" y="230" on="0"/>
        <pt x="362" y="260" on="1"/>
        <pt x="298" y="260" on="1"/>
        <pt x="213" y="260" on="0"/>
        <pt x="145" y="203" on="0"/>
        <pt x="145" y="156" on="1"/>
        <pt x="145" y="107" on="0"/>
        <pt x="191" y="57" on="0"/>
      </contour>
      <contour>
        <pt x="574" y="466" on="1"/>
        <pt x="520" y="466" on="0"/>
        <pt x="454" y="385" on="0"/>
        <pt x="449" y="300" on="1"/>
        <pt x="696" y="300" on="1"/>
        <pt x="694" y="382" on="0"/>
        <pt x="636" y="466" on="0"/>
      </contour>
    </TTGlyph>
    <TTGlyph name="aeacute" xMin="45" yMin="-12" xMax="787" yMax="791">
      <component glyphName="ae" x="0" y="0" flags="0x204"/>
      <component glyphName="acutecomb" x="713" y="0" flags="0x4"/>
    </TTGlyph>
    <TTGlyph name="agrave" xMin="45" yMin="-12" xMax="492" yMax="792">
      <component glyphName="a" x="0" y="0" flags="0x204"/>
      <component glyphName="gravecomb" x="551" y="0" flags="0x4"/>
    </TTGlyph>
    <TTGlyph name="alpha" xMin="57" yMin="-13" xMax="565" yMax="539">
      <contour>
        <pt x="531" y="-13" on="1"/>
        <pt x="501" y="-8" on="0"/>
        <pt x="449" y="35" on="0"/>
        <pt x="441" y="78" on="1"/>
        <pt x="424" y="150" on="1"/>
        <pt x="420" y="150" on="1"/>
        <pt x="411" y="118" on="0"/>
        <pt x="380" y="60" on="0"/>
        <pt x="337" y="15" on="0"/>
        <pt x="281" y="-12" on="0"/>
        <pt x="246" y="-12" on="1"/>
        <pt x="197" y="-12" on="0"/>
        <pt x="126" y="28" on="0"/>
        <pt x="79" y="100" on="0"/>
        <pt x="57" y="201" on="0"/>
        <pt x="57" y="263" on="1"/>
        <pt x="57" y="323" on="0"/>
        <pt x="85" y="424" on="0"/>
        <pt x="137" y="497" on="0"/>
        <pt x="211" y="539" on="0"/>
        <pt x="258" y="539" on="1"/>
        <pt x="298" y="539" on="0"/>
        <pt x="358" y="516" on="0"/>
        <pt x="399" y="477" on="0"/>
        <pt x="424" y="424" on="0"/>
        <pt x="430" y="394" on="1"/>
        <pt x="434" y="394" on="1"/>
        <pt x="472" y="528" on="1"/>
        <pt x="556" y="504" on="1"/>
        <pt x="473" y="277" on="1"/>
        <pt x="521" y="116" on="1"/>
        <pt x="527" y="96" on="0"/>
        <pt x="545" y="74" on="0"/>
        <pt x="565" y="67" on="1"/>
      </contour>
      <contour>
        <pt x="258" y="61" on="1"/>
        <pt x="276" y="61" on="0"/>
        <pt x="313" y="77" on="0"/>
        <pt x="349" y="122" on="0"/>
        <pt x="381" y="204" on="0"/>
        <pt x="393" y="270" on="1"/>
        <pt x="377" y="371" on="0"/>
        <pt x="318" y="466" on="0"/>
        <pt x="271" y="466" on="1"/>
        <pt x="215" y="466" on="0"/>
        <pt x="155" y="362" on="0"/>
        <pt x="155" y="263" on="1"/>
        <pt x="155" y="160" on="0"/>
        <pt x="211" y="61" on="0"/>
      </contour>
    </TTGlyph>
    <TTGlyph name="alphatonos" xMin="57" yMin="-13" xMax="565" yMax="812">
      <component glyphName="alpha" x="0" y="0" flags="0x204"/>
      <component glyphName="tonos" x="369" y="0" flags="0x4"/>
    </TTGlyph>
    <TTGlyph name="amacron" xMin="45" yMin="-12" xMax="492" yMax="743">
      <component glyphName="a" x="0" y="0" flags="0x204"/>
      <component glyphName="uni0304" x="552" y="0" flags="0x4"/>
    </TTGlyph>
    <TTGlyph name="ampersand" xMin="92" yMin="-12" xMax="745" yMax="701">
      <contour>
        <pt x="678" y="344" on="1"/>
        <pt x="658" y="280" on="0"/>
        <pt x="612" y="180" on="0"/>
        <pt x="586" y="142" on="1"/>
        <pt x="745" y="0" on="1"/>
        <pt x="624" y="0" on="1"/>
        <pt x="534" y="79" on="1"/>
        <pt x="483" y="28" on="0"/>
        <pt x="374" y="-12" on="0"/>
        <pt x="320" y="-12" on="1"/>
        <pt x="210" y="-12" on="0"/>
        <pt x="92" y="88" on="0"/>
        <pt x="92" y="175" on="1"/>
        <pt x="92" y="240" on="0"/>
        <pt x="158" y="333" on="0"/>
        <pt x="222" y="374" on="1"/>
        <pt x="198" y="396" on="0"/>
        <pt x="159" y="435" on="0"/>
        <pt x="132" y="475" on="0"/>
        <pt x="117" y="517" on="0"/>
        <pt x="117" y="542" on="1"/>
        <pt x="117" y="576" on="0"/>
        <pt x="140" y="634" on="0"/>
        <pt x="187" y="677" on="0"/>
        <pt x="256" y="701" on="0"/>
        <pt x="301" y="701" on="1"/>
        <pt x="343" y="701" on="0"/>
        <pt x="412" y="679" on="0"/>
        <pt x="461" y="638" on="0"/>
        <pt x="488" y="583" on="0"/>
        <pt x="488" y="550" on="1"/>
        <pt x="488" y="518" on="0"/>
        <pt x="465" y="465" on="0"/>
        <pt x="426" y="421" on="0"/>
        <pt x="376" y="383" on="0"/>
        <pt x="348" y="367" on="1"/>
        <pt x="525" y="195" on="1"/>
        <pt x="547" y="231" on="0"/>
        <pt x="580" y="318" on="0"/>
        <pt x="592" y="369" on="1"/>
      </contour>
      <contour>
        <pt x="320" y="61" on="1"/>
        <pt x="365" y="61" on="0"/>
        <pt x="446" y="97" on="0"/>
        <pt x="478" y="130" on="1"/>
        <pt x="277" y="325" on="1"/>
        <pt x="226" y="293" on="0"/>
        <pt x="186" y="226" on="0"/>
        <pt x="186" y="181" on="1"/>
        <pt x="186" y="125" on="0"/>
        <pt x="255" y="61" on="0"/>
      </contour>
      <contour>
        <pt x="207" y="541" on="1"/>
        <pt x="207" y="506" on="0"/>
        <pt x="255" y="449" on="0"/>
        <pt x="293" y="415" on="1"/>
        <pt x="341" y="444" on="0"/>
        <pt x="397" y="504" on="0"/>
        <pt x="397" y="542" on="1"/>
        <pt x="397" y="584" on="0"/>
        <pt x="346" y="633" on="0"/>
        <pt x="302" y="633" on="1"/>
        <pt x="254" y="633" on="0"/>
        <pt x="207" y="583" on="0"/>
      </contour>
    </TTGlyph>
    <TTGlyph name="aogonek" xMin="45" yMin="-241" xMax="545" yMax="539">
      <contour>
        <pt x="453" y="119" on="1"/>
        <pt x="453" y="87" on="0"/>
        <pt x="472" y="60" on="0"/>
        <pt x="492" y="52" on="1"/>
        <pt x="470" y="-12" on="1"/>
        <pt x="447" y="-24" on="0"/>
        <pt x="418" y="-55" on="0"/>
        <pt x="401" y="-87" on="0"/>
        <pt x="395" y="-117" on="0"/>
        <pt x="395" y="-127" on="1"/>
        <pt x="395" y="-150" on="0"/>
        <pt x="424" y="-180" on="0"/>
        <pt x="459" y="-180" on="1"/>
        <pt x="479" y="-180" on="0"/>
        <pt x="512" y="-170" on="0"/>
        <pt x="520" y="-165" on="1"/>
        <pt x="545" y="-219" on="1"/>
        <pt x="521" y="-231" on="0"/>
        <pt x="474" y="-241" on="0"/>
        <pt x="449" y="-241" on="1"/>
        <pt x="386" y="-241" on="0"/>
        <pt x="318" y="-181" on="0"/>
        <pt x="318" y="-130" on="1"/>
        <pt x="318" y="-92" on="0"/>
        <pt x="372" y="-21" on="0"/>
        <pt x="419" y="3" on="1"/>
        <pt x="403" y="12" on="0"/>
        <pt x="380" y="40" on="0"/>
        <pt x="373" y="62" on="1"/>
        <pt x="344" y="24" on="0"/>
        <pt x="264" y="-12" on="0"/>
        <pt x="216" y="-12" on="1"/>
        <pt x="136" y="-12" on="0"/>
        <pt x="45" y="77" on="0"/>
        <pt x="45" y="151" on="1"/>
        <pt x="45" y="233" on="0"/>
        <pt x="172" y="321" on="0"/>
        <pt x="293" y="321" on="1"/>
        <pt x="362" y="321" on="1"/>
        <pt x="362" y="362" on="1"/>
        <pt x="362" y="418" on="0"/>
        <pt x="305" y="464" on="0"/>
        <pt x="247" y="464" on="1"/>
        <pt x="221" y="464" on="0"/>
        <pt x="150" y="451" on="0"/>
        <pt x="109" y="437" on="1"/>
        <pt x="85" y="505" on="1"/>
        <pt x="134" y="523" on="0"/>
        <pt x="222" y="539" on="0"/>
        <pt x="261" y="539" on="1"/>
        <pt x="362" y="539" on="0"/>
        <pt x="453" y="448" on="0"/>
        <pt x="453" y="367" on="1"/>
      </contour>
      <contour>
        <pt x="241" y="57" on="1"/>
        <pt x="279" y="57" on="0"/>
        <pt x="339" y="95" on="0"/>
        <pt x="362" y="130" on="1"/>
        <pt x="362" y="260" on="1"/>
        <pt x="298" y="260" on="1"/>
        <pt x="213" y="260" on="0"/>
        <pt x="145" y="203" on="0"/>
        <pt x="145" y="155" on="1"/>
        <pt x="145" y="106" on="0"/>
        <pt x="191" y="57" on="0"/>
      </contour>
    </TTGlyph>
    <TTGlyph name="approxequal" xMin="71" yMin="155" xMax="489" yMax="473">
      <component glyphName="glyph00795" x="30" y="0" flags="0x4"/>
    </TTGlyph>
    <TTGlyph name="aring" xMin="45" yMin="-12" xMax="492" yMax="828">
      <component glyphName="a" x="0" y="0" flags="0x204"/>
      <component glyphName="uni030A" x="561" y="0" flags="0x4"/>
    </TTGlyph>
    <TTGlyph name="arrowboth" xMin="107" yMin="17" xMax="1173" yMax="641">
      <contour>
        <pt x="253" y="289" on="1"/>
        <pt x="252" y="286" on="1"/>
        <pt x="267" y="275" on="0"/>
        <pt x="297" y="244" on="0"/>
        <pt x="314" y="226" on="1"/>
        <pt x="454" y="74" on="1"/>
        <pt x="387" y="17" on="1"/>
        <pt x="107" y="329" on="1"/>
        <pt x="387" y="641" on="1"/>
        <pt x="454" y="584" on="1"/>
        <pt x="314" y="432" on="1"/>
        <pt x="297" y="414" on="0"/>
        <pt x="267" y="383" on="0"/>
        <pt x="252" y="372" on="1"/>
        <pt x="253" y="369" on="1"/>
        <pt x="1027" y="369" on="1"/>
        <pt x="1028" y="372" on="1"/>
        <pt x="1013" y="383" on="0"/>
        <pt x="983" y="414" on="0"/>
        <pt x="966" y="432" on="1"/>
        <pt x="826" y="584" on="1"/>
        <pt x="893" y="641" on="1"/>
        <pt x="1173" y="329" on="1"/>
        <pt x="893" y="17" on="1"/>
        <pt x="826" y="74" on="1"/>
        <pt x="966" y="226" on="1"/>
        <pt x="983" y="244" on="0"/>
        <pt x="1013" y="275" on="0"/>
        <pt x="1028" y="286" on="1"/>
        <pt x="1027" y="289" on="1"/>
      </contour>
    </TTGlyph>
    <TTGlyph name="arrowdown" xMin="137" yMin="-35" xMax="763" yMax="635">
      <contour>
        <pt x="495" y="107" on="1"/>
        <pt x="498" y="106" on="1"/>
        <pt x="509" y="121" on="0"/>
        <pt x="538" y="151" on="0"/>
        <pt x="557" y="168" on="1"/>
        <pt x="708" y="307" on="1"/>
        <pt x="763" y="246" on="1"/>
        <pt x="450" y="-35" on="1"/>
        <pt x="137" y="246" on="1"/>
        <pt x="192" y="307" on="1"/>
        <pt x="343" y="168" on="1"/>
        <pt x="362" y="151" on="0"/>
        <pt x="391" y="121" on="0"/>
        <pt x="402" y="106" on="1"/>
        <pt x="405" y="107" on="1"/>
        <pt x="405" y="635" on="1"/>
        <pt x="495" y="635" on="1"/>
      </contour>
    </TTGlyph>
    <TTGlyph name="arrowleft" xMin="117" yMin="17" xMax="783" yMax="641">
      <contour>
        <pt x="263" y="289" on="1"/>
        <pt x="262" y="286" on="1"/>
        <pt x="277" y="275" on="0"/>
        <pt x="307" y="244" on="0"/>
        <pt x="324" y="226" on="1"/>
        <pt x="464" y="74" on="1"/>
        <pt x="397" y="17" on="1"/>
        <pt x="117" y="329" on="1"/>
        <pt x="397" y="641" on="1"/>
        <pt x="464" y="584" on="1"/>
        <pt x="324" y="432" on="1"/>
        <pt x="307" y="414" on="0"/>
        <pt x="277" y="383" on="0"/>
        <pt x="262" y="372" on="1"/>
        <pt x="263" y="369" on="1"/>
        <pt x="783" y="369" on="1"/>
        <pt x="783" y="289" on="1"/>
      </contour>
    </TTGlyph>
    <TTGlyph name="arrowright" xMin="117" yMin="17" xMax="783" yMax="641">
      <contour>
        <pt x="117" y="289" on="1"/>
        <pt x="117" y="369" on="1"/>
        <pt x="637" y="369" on="1"/>
        <pt x="638" y="372" on="1"/>
        <pt x="621" y="384" on="0"/>
        <pt x="589" y="418" on="0"/>
        <pt x="569" y="440" on="1"/>
        <pt x="436" y="584" on="1"/>
        <pt x="503" y="641" on="1"/>
        <pt x="783" y="329" on="1"/>
        <pt x="503" y="17" on="1"/>
        <pt x="436" y="74" on="1"/>
        <pt x="576" y="226" on="1"/>
        <pt x="593" y="244" on="0"/>
        <pt x="623" y="275" on="0"/>
        <pt x="638" y="286" on="1"/>
        <pt x="637" y="289" on="1"/>
      </contour>
    </TTGlyph>
    <TTGlyph name="arrowup" xMin="137" yMin="0" xMax="763" yMax="671">
      <contour>
        <pt x="495" y="0" on="1"/>
        <pt x="405" y="0" on="1"/>
        <pt x="405" y="529" on="1"/>
        <pt x="402" y="530" on="1"/>
        <pt x="390" y="513" on="0"/>
        <pt x="356" y="479" on="0"/>
        <pt x="336" y="461" on="1"/>
        <pt x="192" y="328" on="1"/>
        <pt x="137" y="389" on="1"/>
        <pt x="450" y="671" on="1"/>
        <pt x="763" y="389" on="1"/>
        <pt x="708" y="328" on="1"/>
        <pt x="557" y="468" on="1"/>
        <pt x="539" y="485" on="0"/>
        <pt x="511" y="514" on="0"/>
        <pt x="498" y="530" on="1"/>
        <pt x="495" y="529" on="1"/>
      </contour>
    </TTGlyph>
    <TTGlyph name="arrowupdn" xMin="137" yMin="-193" xMax="763" yMax="873">
      <contour>
        <pt x="495" y="-51" on="1"/>
        <pt x="498" y="-52" on="1"/>
        <pt x="509" y="-37" on="0"/>
        <pt x="538" y="-7" on="0"/>
        <pt x="557" y="10" on="1"/>
        <pt x="708" y="150" on="1"/>
        <pt x="763" y="88" on="1"/>
        <pt x="450" y="-193" on="1"/>
        <pt x="137" y="88" on="1"/>
        <pt x="192" y="150" on="1"/>
        <pt x="343" y="10" on="1"/>
        <pt x="366" y="-10" on="0"/>
        <pt x="392" y="-36" on="0"/>
        <pt x="403" y="-52" on="1"/>
        <pt x="406" y="-51" on="1"/>
        <pt x="406" y="731" on="1"/>
        <pt x="403" y="732" on="1"/>
        <pt x="392" y="717" on="0"/>
        <pt x="361" y="687" on="0"/>
        <pt x="343" y="670" on="1"/>
        <pt x="192" y="530" on="1"/>
        <pt x="137" y="592" on="1"/>
        <pt x="450" y="873" on="1"/>
        <pt x="763" y="592" on="1"/>
        <pt x="708" y="530" on="1"/>
        <pt x="557" y="670" on="1"/>
        <pt x="537" y="688" on="0"/>
        <pt x="511" y="715" on="0"/>
        <pt x="498" y="732" on="1"/>
        <pt x="495" y="731" on="1"/>
      </contour>
    </TTGlyph>
    <TTGlyph name="asciicircum" xMin="30" yMin="527" xMax="490" yMax="840">
      <contour>
        <pt x="219" y="840" on="1"/>
        <pt x="301" y="840" on="1"/>
        <pt x="490" y="527" on="1"/>
        <pt x="392" y="527" on="1"/>
        <pt x="259" y="760" on="1"/>
        <pt x="127" y="527" on="1"/>
        <pt x="30" y="527" on="1"/>
      </contour>
    </TTGlyph>
    <TTGlyph name="asciitilde" xMin="71" yMin="250" xMax="489" yMax="379">
      <component glyphName="glyph00771" x="30" y="0" flags="0x4"/>
    </TTGlyph>
    <TTGlyph name="asterisk" xMin="24" yMin="362" xMax="416" yMax="738">
      <contour>
        <pt x="249" y="585" on="1"/>
        <pt x="389" y="645" on="1"/>
        <pt x="416" y="560" on="1"/>
        <pt x="269" y="528" on="1"/>
        <pt x="374" y="419" on="1"/>
        <pt x="301" y="364" on="1"/>
        <pt x="221" y="494" on="1"/>
        <pt x="146" y="362" on="1"/>
        <pt x="71" y="413" on="1"/>
        <pt x="172" y="528" on="1"/>
        <pt x="24" y="560" on="1"/>
        <pt x="51" y="645" on="1"/>
        <pt x="190" y="585" on="1"/>
        <pt x="175" y="738" on="1"/>
        <pt x="265" y="738" on="1"/>
      </contour>
    </TTGlyph>
    <TTGlyph name="at" xMin="70" yMin="-213" xMax="950" yMax="701">
      <contour>
        <pt x="743" y="-174" on="1"/>
        <pt x="718" y="-183" on="0"/>
        <pt x="670" y="-197" on="0"/>
        <pt x="617" y="-207" on="0"/>
        <pt x="559" y="-213" on="0"/>
        <pt x="525" y="-213" on="1"/>
        <pt x="424" y="-213" on="0"/>
        <pt x="257" y="-149" on="0"/>
        <pt x="137" y="-31" on="0"/>
        <pt x="70" y="136" on="0"/>
        <pt x="70" y="240" on="1"/>
        <pt x="70" y="338" on="0"/>
        <pt x="133" y="506" on="0"/>
        <pt x="253" y="630" on="0"/>
        <pt x="425" y="701" on="0"/>
        <pt x="534" y="701" on="1"/>
        <pt x="636" y="701" on="0"/>
        <pt x="792" y="637" on="0"/>
        <pt x="897" y="528" on="0"/>
        <pt x="950" y="385" on="0"/>
        <pt x="950" y="307" on="1"/>
        <pt x="950" y="246" on="0"/>
        <pt x="926" y="137" on="0"/>
        <pt x="878" y="56" on="0"/>
        <pt x="804" y="9" on="0"/>
        <pt x="753" y="9" on="1"/>
        <pt x="722" y="9" on="0"/>
        <pt x="677" y="28" on="0"/>
        <pt x="647" y="58" on="0"/>
        <pt x="629" y="93" on="0"/>
        <pt x="626" y="109" on="1"/>
        <pt x="622" y="109" on="1"/>
        <pt x="615" y="91" on="0"/>
        <pt x="591" y="57" on="0"/>
        <pt x="557" y="30" on="0"/>
        <pt x="511" y="14" on="0"/>
        <pt x="481" y="14" on="1"/>
        <pt x="398" y="14" on="0"/>
        <pt x="308" y="132" on="0"/>
        <pt x="308" y="231" on="1"/>
        <pt x="308" y="296" on="0"/>
        <pt x="341" y="394" on="0"/>
        <pt x="399" y="459" on="0"/>
        <pt x="479" y="492" on="0"/>
        <pt x="526" y="492" on="1"/>
        <pt x="567" y="492" on="0"/>
        <pt x="641" y="475" on="0"/>
        <pt x="683" y="452" on="1"/>
        <pt x="683" y="168" on="1"/>
        <pt x="683" y="118" on="0"/>
        <pt x="722" y="80" on="0"/>
        <pt x="751" y="80" on="1"/>
        <pt x="802" y="80" on="0"/>
        <pt x="857" y="187" on="0"/>
        <pt x="857" y="305" on="1"/>
        <pt x="857" y="377" on="0"/>
        <pt x="814" y="495" on="0"/>
        <pt x="732" y="579" on="0"/>
        <pt x="612" y="625" on="0"/>
        <pt x="534" y="625" on="1"/>
        <pt x="443" y="625" on="0"/>
        <pt x="304" y="567" on="0"/>
        <pt x="211" y="464" on="0"/>
        <pt x="163" y="323" on="0"/>
        <pt x="163" y="240" on="1"/>
        <pt x="163" y="157" on="0"/>
        <pt x="211" y="19" on="0"/>
        <pt x="303" y="-81" on="0"/>
        <pt x="439" y="-137" on="0"/>
        <pt x="526" y="-137" on="1"/>
        <pt x="583" y="-137" on="0"/>
        <pt x="677" y="-117" on="0"/>
        <pt x="718" y="-103" on="1"/>
      </contour>
      <contour>
        <pt x="529" y="426" on="1"/>
        <pt x="398" y="426" on="0"/>
        <pt x="398" y="231" on="1"/>
        <pt x="398" y="158" on="0"/>
        <pt x="445" y="81" on="0"/>
        <pt x="492" y="81" on="1"/>
        <pt x="518" y="81" on="0"/>
        <pt x="555" y="100" on="0"/>
        <pt x="580" y="127" on="0"/>
        <pt x="596" y="156" on="0"/>
        <pt x="600" y="167" on="1"/>
        <pt x="600" y="409" on="1"/>
        <pt x="585" y="417" on="0"/>
        <pt x="552" y="426" on="0"/>
      </contour>
    </TTGlyph>
    <TTGlyph name="atilde" xMin="45" yMin="-12" xMax="492" yMax="768">
      <component glyphName="a" x="0" y="0" flags="0x204"/>
      <component glyphName="tildecomb" x="558" y="0" flags="0x4"/>
    </TTGlyph>
    <TTGlyph name="b" xMin="98" yMin="-12" xMax="535" yMax="750">
      <contour>
        <pt x="190" y="460" on="1"/>
        <pt x="219" y="498" on="0"/>
        <pt x="294" y="539" on="0"/>
        <pt x="339" y="539" on="1"/>
        <pt x="391" y="539" on="0"/>
        <pt x="466" y="500" on="0"/>
        <pt x="513" y="428" on="0"/>
        <pt x="535" y="326" on="0"/>
        <pt x="535" y="264" on="1"/>
        <pt x="535" y="204" on="0"/>
        <pt x="508" y="103" on="0"/>
        <pt x="456" y="29" on="0"/>
        <pt x="378" y="-12" on="0"/>
        <pt x="327" y="-12" on="1"/>
        <pt x="236" y="-12" on="0"/>
        <pt x="185" y="54" on="1"/>
        <pt x="179" y="0" on="1"/>
        <pt x="98" y="0" on="1"/>
        <pt x="98" y="739" on="1"/>
        <pt x="190" y="750" on="1"/>
      </contour>
      <contour>
        <pt x="305" y="61" on="1"/>
        <pt x="368" y="61" on="0"/>
        <pt x="436" y="160" on="0"/>
        <pt x="436" y="264" on="1"/>
        <pt x="436" y="367" on="0"/>
        <pt x="376" y="466" on="0"/>
        <pt x="317" y="466" on="1"/>
        <pt x="275" y="466" on="0"/>
        <pt x="211" y="416" on="0"/>
        <pt x="190" y="384" on="1"/>
        <pt x="190" y="127" on="1"/>
        <pt x="210" y="96" on="0"/>
        <pt x="270" y="61" on="0"/>
      </contour>
    </TTGlyph>
    <TTGlyph name="backslash" xMin="105" yMin="-104" xMax="415" yMax="810">
      <contour>
        <pt x="105" y="792" on="1"/>
        <pt x="183" y="810" on="1"/>
        <pt x="415" y="-85" on="1"/>
        <pt x="336" y="-104" on="1"/>
      </contour>
    </TTGlyph>
    <TTGlyph name="bar" xMin="160" yMin="-102" xMax="243" yMax="807">
      <contour>
        <pt x="160" y="807" on="1"/>
        <pt x="243" y="807" on="1"/>
        <pt x="243" y="-102" on="1"/>
        <pt x="160" y="-102" on="1"/>
      </contour>
    </TTGlyph>
    <TTGlyph name="beta" xMin="68" yMin="-12" xMax="530" yMax="750">
      <contour>
        <pt x="68" y="356" on="1"/>
        <pt x="68" y="458" on="0"/>
        <pt x="111" y="607" on="0"/>
        <pt x="183" y="703" on="0"/>
        <pt x="277" y="750" on="0"/>
        <pt x="328" y="750" on="1"/>
        <pt x="372" y="750" on="0"/>
        <pt x="433" y="726" on="0"/>
        <pt x="471" y="687" on="0"/>
        <pt x="488" y="636" on="0"/>
        <pt x="488" y="608" on="1"/>
        <pt x="488" y="554" on="0"/>
        <pt x="411" y="471" on="0"/>
        <pt x="339" y="442" on="1"/>
        <pt x="339" y="438" on="1"/>
        <pt x="389" y="436" on="0"/>
        <pt x="461" y="403" on="0"/>
        <pt x="508" y="344" on="0"/>
        <pt x="530" y="265" on="0"/>
        <pt x="530" y="219" on="1"/>
        <pt x="530" y="174" on="0"/>
        <pt x="499" y="91" on="0"/>
        <pt x="440" y="26" on="0"/>
        <pt x="353" y="-12" on="0"/>
        <pt x="297" y="-12" on="1"/>
        <pt x="234" y="-12" on="0"/>
        <pt x="146" y="38" on="0"/>
        <pt x="92" y="133" on="0"/>
        <pt x="68" y="270" on="0"/>
      </contour>
      <contour>
        <pt x="296" y="62" on="1"/>
        <pt x="359" y="62" on="0"/>
        <pt x="429" y="145" on="0"/>
        <pt x="429" y="215" on="1"/>
        <pt x="429" y="254" on="0"/>
        <pt x="417" y="317" on="0"/>
        <pt x="386" y="363" on="0"/>
        <pt x="335" y="388" on="0"/>
        <pt x="296" y="388" on="1"/>
        <pt x="269" y="388" on="0"/>
        <pt x="209" y="363" on="0"/>
        <pt x="167" y="343" on="1"/>
        <pt x="167" y="278" on="0"/>
        <pt x="179" y="174" on="0"/>
        <pt x="208" y="101" on="0"/>
        <pt x="257" y="62" on="0"/>
      </contour>
      <contour>
        <pt x="325" y="680" on="1"/>
        <pt x="296" y="680" on="0"/>
        <pt x="244" y="655" on="0"/>
        <pt x="201" y="595" on="0"/>
        <pt x="172" y="493" on="0"/>
        <pt x="168" y="417" on="1"/>
        <pt x="219" y="438" on="0"/>
        <pt x="302" y="475" on="0"/>
        <pt x="362" y="518" on="0"/>
        <pt x="394" y="573" on="0"/>
        <pt x="394" y="611" on="1"/>
        <pt x="394" y="643" on="0"/>
        <pt x="359" y="680" on="0"/>
      </contour>
    </TTGlyph>
    <TTGlyph name="braceleft" xMin="26" yMin="-136" xMax="283" yMax="836">
      <contour>
        <pt x="26" y="387" on="1"/>
        <pt x="70" y="387" on="0"/>
        <pt x="96" y="423" on="0"/>
        <pt x="96" y="461" on="1"/>
        <pt x="96" y="687" on="1"/>
        <pt x="96" y="730" on="0"/>
        <pt x="121" y="787" on="0"/>
        <pt x="168" y="822" on="0"/>
        <pt x="238" y="836" on="0"/>
        <pt x="283" y="836" on="1"/>
        <pt x="283" y="765" on="1"/>
        <pt x="229" y="765" on="0"/>
        <pt x="183" y="735" on="0"/>
        <pt x="183" y="697" on="1"/>
        <pt x="183" y="458" on="1"/>
        <pt x="183" y="405" on="0"/>
        <pt x="142" y="360" on="0"/>
        <pt x="108" y="352" on="1"/>
        <pt x="108" y="348" on="1"/>
        <pt x="142" y="340" on="0"/>
        <pt x="183" y="295" on="0"/>
        <pt x="183" y="242" on="1"/>
        <pt x="183" y="3" on="1"/>
        <pt x="183" y="-35" on="0"/>
        <pt x="229" y="-65" on="0"/>
        <pt x="283" y="-65" on="1"/>
        <pt x="283" y="-136" on="1"/>
        <pt x="238" y="-136" on="0"/>
        <pt x="168" y="-122" on="0"/>
        <pt x="121" y="-87" on="0"/>
        <pt x="96" y="-30" on="0"/>
        <pt x="96" y="13" on="1"/>
        <pt x="96" y="238" on="1"/>
        <pt x="96" y="276" on="0"/>
        <pt x="70" y="313" on="0"/>
        <pt x="26" y="313" on="1"/>
      </contour>
    </TTGlyph>
    <TTGlyph name="braceright" xMin="42" yMin="-136" xMax="299" yMax="836">
      <contour>
        <pt x="299" y="313" on="1"/>
        <pt x="255" y="313" on="0"/>
        <pt x="229" y="276" on="0"/>
        <pt x="229" y="238" on="1"/>
        <pt x="229" y="13" on="1"/>
        <pt x="229" y="-30" on="0"/>
        <pt x="204" y="-87" on="0"/>
        <pt x="157" y="-122" on="0"/>
        <pt x="87" y="-136" on="0"/>
        <pt x="42" y="-136" on="1"/>
        <pt x="42" y="-65" on="1"/>
        <pt x="96" y="-65" on="0"/>
        <pt x="142" y="-35" on="0"/>
        <pt x="142" y="3" on="1"/>
        <pt x="142" y="242" on="1"/>
        <pt x="142" y="295" on="0"/>
        <pt x="183" y="340" on="0"/>
        <pt x="217" y="348" on="1"/>
        <pt x="217" y="352" on="1"/>
        <pt x="183" y="360" on="0"/>
        <pt x="142" y="405" on="0"/>
        <pt x="142" y="458" on="1"/>
        <pt x="142" y="697" on="1"/>
        <pt x="142" y="735" on="0"/>
        <pt x="96" y="765" on="0"/>
        <pt x="42" y="765" on="1"/>
        <pt x="42" y="836" on="1"/>
        <pt x="87" y="836" on="0"/>
        <pt x="157" y="822" on="0"/>
        <pt x="204" y="787" on="0"/>
        <pt x="229" y="730" on="0"/>
        <pt x="229" y="687" on="1"/>
        <pt x="229" y="461" on="1"/>
        <pt x="229" y="423" on="0"/>
        <pt x="255" y="387" on="0"/>
        <pt x="299" y="387" on="1"/>
      </contour>
    </TTGlyph>
    <TTGlyph name="bracketleft" xMin="67" yMin="-116" xMax="274" yMax="816">
      <contour>
        <pt x="67" y="-116" on="1"/>
        <pt x="67" y="816" on="1"/>
        <pt x="274" y="816" on="1"/>
        <pt x="274" y="739" on="1"/>
        <pt x="154" y="739" on="1"/>
        <pt x="154" y="-40" on="1"/>
        <pt x="274" y="-40" on="1"/>
        <pt x="274" y="-116" on="1"/>
      </contour>
    </TTGlyph>
    <TTGlyph name="bracketright" xMin="51" yMin="-116" xMax="258" yMax="816">
      <contour>
        <pt x="51" y="-116" on="1"/>
        <pt x="51" y="-40" on="1"/>
        <pt x="171" y="-40" on="1"/>
        <pt x="171" y="739" on="1"/>
        <pt x="51" y="739" on="1"/>
        <pt x="51" y="816" on="1"/>
        <pt x="258" y="816" on="1"/>
        <pt x="258" y="-116" on="1"/>
      </contour>
    </TTGlyph>
    <TTGlyph name="breve" xMin="30" yMin="643" xMax="333" yMax="789">
      <contour>
        <pt x="180" y="643" on="1"/>
        <pt x="145" y="643" on="0"/>
        <pt x="92" y="667" on="0"/>
        <pt x="54" y="705" on="0"/>
        <pt x="33" y="753" on="0"/>
        <pt x="30" y="776" on="1"/>
        <pt x="91" y="789" on="1"/>
        <pt x="112" y="713" on="0"/>
        <pt x="180" y="713" on="1"/>
        <pt x="251" y="713" on="0"/>
        <pt x="272" y="789" on="1"/>
        <pt x="333" y="776" on="1"/>
        <pt x="330" y="753" on="0"/>
        <pt x="308" y="705" on="0"/>
        <pt x="270" y="667" on="0"/>
        <pt x="215" y="643" on="0"/>
      </contour>
    </TTGlyph>
    <TTGlyph name="brokenbar" xMin="160" yMin="-102" xMax="243" yMax="807">
      <contour>
        <pt x="160" y="807" on="1"/>
        <pt x="243" y="807" on="1"/>
        <pt x="243" y="451" on="1"/>
        <pt x="160" y="451" on="1"/>
      </contour>
      <contour>
        <pt x="160" y="254" on="1"/>
        <pt x="243" y="254" on="1"/>
        <pt x="243" y="-102" on="1"/>
        <pt x="160" y="-102" on="1"/>
      </contour>
    </TTGlyph>
    <TTGlyph name="bullet" xMin="76" yMin="218" xMax="324" yMax="465">
      <contour>
        <pt x="200" y="218" on="1"/>
        <pt x="146" y="218" on="0"/>
        <pt x="76" y="288" on="0"/>
        <pt x="76" y="342" on="1"/>
        <pt x="76" y="396" on="0"/>
        <pt x="146" y="465" on="0"/>
        <pt x="200" y="465" on="1"/>
        <pt x="254" y="465" on="0"/>
        <pt x="324" y="395" on="0"/>
        <pt x="324" y="341" on="1"/>
        <pt x="324" y="287" on="0"/>
        <pt x="254" y="218" on="0"/>
      </contour>
    </TTGlyph>
    <TTGlyph name="c" xMin="57" yMin="-12" xMax="452" yMax="539">
      <contour>
        <pt x="293" y="66" on="1"/>
        <pt x="322" y="66" on="0"/>
        <pt x="376" y="85" on="0"/>
        <pt x="408" y="109" on="1"/>
        <pt x="452" y="46" on="1"/>
        <pt x="415" y="16" on="0"/>
        <pt x="334" y="-12" on="0"/>
        <pt x="292" y="-12" on="1"/>
        <pt x="233" y="-12" on="0"/>
        <pt x="145" y="27" on="0"/>
        <pt x="86" y="98" on="0"/>
        <pt x="57" y="199" on="0"/>
        <pt x="57" y="261" on="1"/>
        <pt x="57" y="321" on="0"/>
        <pt x="87" y="422" on="0"/>
        <pt x="146" y="497" on="0"/>
        <pt x="234" y="539" on="0"/>
        <pt x="293" y="539" on="1"/>
        <pt x="335" y="539" on="0"/>
        <pt x="415" y="513" on="0"/>
        <pt x="452" y="482" on="1"/>
        <pt x="407" y="422" on="1"/>
        <pt x="375" y="446" on="0"/>
        <pt x="322" y="463" on="0"/>
        <pt x="293" y="463" on="1"/>
        <pt x="229" y="463" on="0"/>
        <pt x="156" y="364" on="0"/>
        <pt x="156" y="261" on="1"/>
        <pt x="156" y="157" on="0"/>
        <pt x="229" y="66" on="0"/>
      </contour>
    </TTGlyph>
    <TTGlyph name="cacute" xMin="57" yMin="-12" xMax="452" yMax="791">
      <component glyphName="c" x="0" y="0" flags="0x204"/>
      <component glyphName="acutecomb" x="557" y="0" flags="0x4"/>
    </TTGlyph>
    <TTGlyph name="caron" xMin="30" yMin="642" xMax="362" yMax="800">
      <contour>
        <pt x="196" y="716" on="1"/>
        <pt x="323" y="800" on="1"/>
        <pt x="362" y="755" on="1"/>
        <pt x="227" y="642" on="1"/>
        <pt x="166" y="642" on="1"/>
        <pt x="30" y="755" on="1"/>
        <pt x="70" y="800" on="1"/>
      </contour>
    </TTGlyph>
    <TTGlyph name="ccaron" xMin="57" yMin="-12" xMax="452" yMax="792">
      <component glyphName="c" x="0" y="0" flags="0x204"/>
      <component glyphName="uni030C" x="572" y="0" flags="0x4"/>
    </TTGlyph>
    <TTGlyph name="ccedilla" xMin="57" yMin="-241" xMax="452" yMax="539">
      <contour>
        <pt x="324" y="-141" on="1"/>
        <pt x="324" y="-115" on="0"/>
        <pt x="278" y="-99" on="0"/>
        <pt x="237" y="-99" on="1"/>
        <pt x="244" y="-8" on="1"/>
        <pt x="150" y="7" on="0"/>
        <pt x="57" y="150" on="0"/>
        <pt x="57" y="261" on="1"/>
        <pt x="57" y="321" on="0"/>
        <pt x="87" y="422" on="0"/>
        <pt x="146" y="497" on="0"/>
        <pt x="234" y="539" on="0"/>
        <pt x="293" y="539" on="1"/>
        <pt x="335" y="539" on="0"/>
        <pt x="415" y="513" on="0"/>
        <pt x="452" y="482" on="1"/>
        <pt x="407" y="422" on="1"/>
        <pt x="375" y="446" on="0"/>
        <pt x="322" y="463" on="0"/>
        <pt x="293" y="463" on="1"/>
        <pt x="229" y="463" on="0"/>
        <pt x="156" y="364" on="0"/>
        <pt x="156" y="261" on="1"/>
        <pt x="156" y="157" on="0"/>
        <pt x="229" y="66" on="0"/>
        <pt x="293" y="66" on="1"/>
        <pt x="322" y="66" on="0"/>
        <pt x="376" y="85" on="0"/>
        <pt x="408" y="109" on="1"/>
        <pt x="452" y="46" on="1"/>
        <pt x="418" y="18" on="0"/>
        <pt x="345" y="-9" on="0"/>
        <pt x="307" y="-11" on="1"/>
        <pt x="307" y="-56" on="1"/>
        <pt x="357" y="-61" on="0"/>
        <pt x="401" y="-110" on="0"/>
        <pt x="401" y="-141" on="1"/>
        <pt x="401" y="-166" on="0"/>
        <pt x="381" y="-203" on="0"/>
        <pt x="346" y="-228" on="0"/>
        <pt x="301" y="-241" on="0"/>
        <pt x="276" y="-241" on="1"/>
        <pt x="245" y="-241" on="0"/>
        <pt x="190" y="-227" on="0"/>
        <pt x="170" y="-216" on="1"/>
        <pt x="198" y="-165" on="1"/>
        <pt x="212" y="-173" on="0"/>
        <pt x="248" y="-181" on="0"/>
        <pt x="265" y="-181" on="1"/>
        <pt x="291" y="-181" on="0"/>
        <pt x="324" y="-163" on="0"/>
      </contour>
    </TTGlyph>
    <TTGlyph name="ccircumflex" xMin="57" yMin="-12" xMax="452" yMax="792">
      <component glyphName="c" x="0" y="0" flags="0x204"/>
      <component glyphName="uni0302" x="580" y="0" flags="0x4"/>
    </TTGlyph>
    <TTGlyph name="cdotaccent" xMin="57" yMin="-12" xMax="452" yMax="777">
      <component glyphName="c" x="0" y="0" flags="0x204"/>
      <component glyphName="uni0307" x="569" y="0" flags="0x4"/>
    </TTGlyph>
    <TTGlyph name="cedilla" xMin="30" yMin="-241" xMax="261" yMax="16">
      <contour>
        <pt x="184" y="-141" on="1"/>
        <pt x="184" y="-115" on="0"/>
        <pt x="138" y="-99" on="0"/>
        <pt x="97" y="-99" on="1"/>
        <pt x="106" y="16" on="1"/>
        <pt x="167" y="16" on="1"/>
        <pt x="167" y="-56" on="1"/>
        <pt x="217" y="-61" on="0"/>
        <pt x="261" y="-110" on="0"/>
        <pt x="261" y="-141" on="1"/>
        <pt x="261" y="-166" on="0"/>
        <pt x="241" y="-203" on="0"/>
        <pt x="206" y="-228" on="0"/>
        <pt x="161" y="-241" on="0"/>
        <pt x="136" y="-241" on="1"/>
        <pt x="105" y="-241" on="0"/>
        <pt x="50" y="-227" on="0"/>
        <pt x="30" y="-216" on="1"/>
        <pt x="58" y="-165" on="1"/>
        <pt x="72" y="-173" on="0"/>
        <pt x="108" y="-181" on="0"/>
        <pt x="125" y="-181" on="1"/>
        <pt x="151" y="-181" on="0"/>
        <pt x="184" y="-163" on="0"/>
      </contour>
    </TTGlyph>
    <TTGlyph name="cent" xMin="83" yMin="-154" xMax="477" yMax="684">
      <contour>
        <pt x="318" y="66" on="1"/>
        <pt x="347" y="66" on="0"/>
        <pt x="401" y="85" on="0"/>
        <pt x="433" y="110" on="1"/>
        <pt x="477" y="46" on="1"/>
        <pt x="448" y="22" on="0"/>
        <pt x="387" y="-2" on="0"/>
        <pt x="355" y="-7" on="1"/>
        <pt x="355" y="-154" on="1"/>
        <pt x="276" y="-154" on="1"/>
        <pt x="276" y="-6" on="1"/>
        <pt x="180" y="7" on="0"/>
        <pt x="83" y="148" on="0"/>
        <pt x="83" y="261" on="1"/>
        <pt x="83" y="315" on="0"/>
        <pt x="108" y="408" on="0"/>
        <pt x="156" y="480" on="0"/>
        <pt x="229" y="526" on="0"/>
        <pt x="277" y="533" on="1"/>
        <pt x="277" y="684" on="1"/>
        <pt x="355" y="684" on="1"/>
        <pt x="355" y="534" on="1"/>
        <pt x="387" y="530" on="0"/>
        <pt x="448" y="505" on="0"/>
        <pt x="477" y="482" on="1"/>
        <pt x="432" y="422" on="1"/>
        <pt x="400" y="446" on="0"/>
        <pt x="347" y="463" on="0"/>
        <pt x="318" y="463" on="1"/>
        <pt x="254" y="463" on="0"/>
        <pt x="182" y="364" on="0"/>
        <pt x="182" y="261" on="1"/>
        <pt x="182" y="157" on="0"/>
        <pt x="255" y="66" on="0"/>
      </contour>
    </TTGlyph>
    <TTGlyph name="chi" xMin="-5" yMin="-213" xMax="469" yMax="539">
      <contour>
        <pt x="240" y="261" on="1"/>
        <pt x="364" y="539" on="1"/>
        <pt x="455" y="518" on="1"/>
        <pt x="288" y="182" on="1"/>
        <pt x="469" y="-187" on="1"/>
        <pt x="375" y="-213" on="1"/>
        <pt x="238" y="103" on="1"/>
        <pt x="234" y="103" on="1"/>
        <pt x="98" y="-213" on="1"/>
        <pt x="6" y="-193" on="1"/>
        <pt x="187" y="184" on="1"/>
        <pt x="149" y="285" on="0"/>
        <pt x="48" y="453" on="0"/>
        <pt x="-5" y="505" on="1"/>
        <pt x="89" y="538" on="1"/>
        <pt x="112" y="510" on="0"/>
        <pt x="153" y="453" on="0"/>
        <pt x="189" y="388" on="0"/>
        <pt x="221" y="310" on="0"/>
        <pt x="236" y="261" on="1"/>
      </contour>
    </TTGlyph>
    <TTGlyph name="circumflex" xMin="30" yMin="642" xMax="362" yMax="800">
      <contour>
        <pt x="70" y="642" on="1"/>
        <pt x="30" y="687" on="1"/>
        <pt x="166" y="800" on="1"/>
        <pt x="227" y="800" on="1"/>
        <pt x="362" y="687" on="1"/>
        <pt x="323" y="642" on="1"/>
        <pt x="197" y="726" on="1"/>
      </contour>
    </TTGlyph>
    <TTGlyph name="colon" xMin="63" yMin="-12" xMax="202" yMax="500">
      <contour>
        <pt x="63" y="58" on="1"/>
        <pt x="63" y="87" on="0"/>
        <pt x="103" y="127" on="0"/>
        <pt x="132" y="127" on="1"/>
        <pt x="162" y="127" on="0"/>
        <pt x="202" y="87" on="0"/>
        <pt x="202" y="58" on="1"/>
        <pt x="202" y="29" on="0"/>
        <pt x="162" y="-12" on="0"/>
        <pt x="132" y="-12" on="1"/>
        <pt x="103" y="-12" on="0"/>
        <pt x="63" y="29" on="0"/>
      </contour>
      <contour>
        <pt x="63" y="431" on="1"/>
        <pt x="63" y="460" on="0"/>
        <pt x="103" y="500" on="0"/>
        <pt x="132" y="500" on="1"/>
        <pt x="162" y="500" on="0"/>
        <pt x="202" y="460" on="0"/>
        <pt x="202" y="431" on="1"/>
        <pt x="202" y="402" on="0"/>
        <pt x="162" y="361" on="0"/>
        <pt x="132" y="361" on="1"/>
        <pt x="103" y="361" on="0"/>
        <pt x="63" y="402" on="0"/>
      </contour>
    </TTGlyph>
    <TTGlyph name="comma" xMin="51" yMin="-166" xMax="202" yMax="127">
      <contour>
        <pt x="63" y="58" on="1"/>
        <pt x="63" y="87" on="0"/>
        <pt x="103" y="127" on="0"/>
        <pt x="132" y="127" on="1"/>
        <pt x="162" y="127" on="0"/>
        <pt x="202" y="87" on="0"/>
        <pt x="202" y="58" on="1"/>
        <pt x="202" y="41" on="0"/>
        <pt x="194" y="9" on="0"/>
        <pt x="184" y="-13" on="1"/>
        <pt x="117" y="-166" on="1"/>
        <pt x="51" y="-166" on="1"/>
        <pt x="91" y="0" on="1"/>
        <pt x="78" y="10" on="0"/>
        <pt x="63" y="40" on="0"/>
      </contour>
    </TTGlyph>
    <TTGlyph name="copyright" xMin="87" yMin="121" xMax="713" yMax="748">
      <contour>
        <pt x="404" y="308" on="1"/>
        <pt x="430" y="308" on="0"/>
        <pt x="471" y="326" on="0"/>
        <pt x="488" y="342" on="1"/>
        <pt x="522" y="292" on="1"/>
        <pt x="501" y="273" on="0"/>
        <pt x="443" y="245" on="0"/>
        <pt x="401" y="245" on="1"/>
        <pt x="329" y="245" on="0"/>
        <pt x="237" y="342" on="0"/>
        <pt x="237" y="435" on="1"/>
        <pt x="237" y="481" on="0"/>
        <pt x="263" y="552" on="0"/>
        <pt x="308" y="600" on="0"/>
        <pt x="367" y="625" on="0"/>
        <pt x="400" y="625" on="1"/>
        <pt x="438" y="625" on="0"/>
        <pt x="491" y="605" on="0"/>
        <pt x="517" y="585" on="1"/>
        <pt x="480" y="536" on="1"/>
        <pt x="444" y="565" on="0"/>
        <pt x="404" y="565" on="1"/>
        <pt x="366" y="565" on="0"/>
        <pt x="313" y="505" on="0"/>
        <pt x="313" y="435" on="1"/>
        <pt x="313" y="369" on="0"/>
        <pt x="363" y="308" on="0"/>
      </contour>
      <contour>
        <pt x="401" y="174" on="1"/>
        <pt x="455" y="174" on="0"/>
        <pt x="547" y="215" on="0"/>
        <pt x="615" y="285" on="0"/>
        <pt x="653" y="380" on="0"/>
        <pt x="653" y="434" on="1"/>
        <pt x="653" y="488" on="0"/>
        <pt x="615" y="584" on="0"/>
        <pt x="547" y="655" on="0"/>
        <pt x="455" y="696" on="0"/>
        <pt x="401" y="696" on="1"/>
        <pt x="347" y="696" on="0"/>
        <pt x="254" y="655" on="0"/>
        <pt x="186" y="584" on="0"/>
        <pt x="148" y="488" on="0"/>
        <pt x="148" y="434" on="1"/>
        <pt x="148" y="380" on="0"/>
        <pt x="186" y="285" on="0"/>
        <pt x="254" y="215" on="0"/>
        <pt x="347" y="174" on="0"/>
      </contour>
      <contour>
        <pt x="401" y="121" on="1"/>
        <pt x="336" y="121" on="0"/>
        <pt x="221" y="170" on="0"/>
        <pt x="136" y="255" on="0"/>
        <pt x="87" y="369" on="0"/>
        <pt x="87" y="434" on="1"/>
        <pt x="87" y="499" on="0"/>
        <pt x="136" y="614" on="0"/>
        <pt x="221" y="699" on="0"/>
        <pt x="336" y="748" on="0"/>
        <pt x="401" y="748" on="1"/>
        <pt x="466" y="748" on="0"/>
        <pt x="580" y="699" on="0"/>
        <pt x="664" y="614" on="0"/>
        <pt x="713" y="499" on="0"/>
        <pt x="713" y="434" on="1"/>
        <pt x="713" y="369" on="0"/>
        <pt x="664" y="255" on="0"/>
        <pt x="580" y="170" on="0"/>
        <pt x="466" y="121" on="0"/>
      </contour>
    </TTGlyph>
    <TTGlyph name="currency" xMin="14" yMin="73" xMax="546" yMax="610">
      <component glyphName="glyph00774" x="0" y="0" flags="0x204"/>
    </TTGlyph>
    <TTGlyph name="d" xMin="57" yMin="-12" xMax="498" yMax="750">
      <contour>
        <pt x="289" y="466" on="1"/>
        <pt x="226" y="466" on="0"/>
        <pt x="156" y="366" on="0"/>
        <pt x="156" y="263" on="1"/>
        <pt x="156" y="158" on="0"/>
        <pt x="219" y="61" on="0"/>
        <pt x="279" y="61" on="1"/>
        <pt x="321" y="61" on="0"/>
        <pt x="385" y="110" on="0"/>
        <pt x="406" y="142" on="1"/>
        <pt x="406" y="401" on="1"/>
        <pt x="385" y="432" on="0"/>
        <pt x="324" y="466" on="0"/>
      </contour>
      <contour>
        <pt x="265" y="539" on="1"/>
        <pt x="353" y="539" on="0"/>
        <pt x="406" y="478" on="1"/>
        <pt x="406" y="750" on="1"/>
        <pt x="498" y="739" on="1"/>
        <pt x="498" y="0" on="1"/>
        <pt x="417" y="0" on="1"/>
        <pt x="409" y="68" on="1"/>
        <pt x="380" y="27" on="0"/>
        <pt x="303" y="-12" on="0"/>
        <pt x="258" y="-12" on="1"/>
        <pt x="207" y="-12" on="0"/>
        <pt x="131" y="27" on="0"/>
        <pt x="82" y="99" on="0"/>
        <pt x="57" y="201" on="0"/>
        <pt x="57" y="263" on="1"/>
        <pt x="57" y="323" on="0"/>
        <pt x="85" y="424" on="0"/>
        <pt x="139" y="497" on="0"/>
        <pt x="216" y="539" on="0"/>
      </contour>
    </TTGlyph>
    <TTGlyph name="dagger" xMin="59" yMin="0" xMax="501" yMax="739">
      <contour>
        <pt x="324" y="470" on="1"/>
        <pt x="324" y="0" on="1"/>
        <pt x="236" y="0" on="1"/>
        <pt x="236" y="470" on="1"/>
        <pt x="59" y="470" on="1"/>
        <pt x="59" y="547" on="1"/>
        <pt x="236" y="547" on="1"/>
        <pt x="236" y="739" on="1"/>
        <pt x="324" y="739" on="1"/>
        <pt x="324" y="547" on="1"/>
        <pt x="501" y="547" on="1"/>
        <pt x="501" y="470" on="1"/>
      </contour>
    </TTGlyph>
    <TTGlyph name="daggerdbl" xMin="59" yMin="0" xMax="501" yMax="739">
      <contour>
        <pt x="501" y="269" on="1"/>
        <pt x="501" y="192" on="1"/>
        <pt x="324" y="192" on="1"/>
        <pt x="324" y="0" on="1"/>
        <pt x="236" y="0" on="1"/>
        <pt x="236" y="192" on="1"/>
        <pt x="59" y="192" on="1"/>
        <pt x="59" y="269" on="1"/>
        <pt x="236" y="269" on="1"/>
        <pt x="236" y="470" on="1"/>
        <pt x="59" y="470" on="1"/>
        <pt x="59" y="547" on="1"/>
        <pt x="236" y="547" on="1"/>
        <pt x="236" y="739" on="1"/>
        <pt x="324" y="739" on="1"/>
        <pt x="324" y="547" on="1"/>
        <pt x="501" y="547" on="1"/>
        <pt x="501" y="470" on="1"/>
        <pt x="324" y="470" on="1"/>
        <pt x="324" y="269" on="1"/>
      </contour>
    </TTGlyph>
    <TTGlyph name="dcaron" xMin="57" yMin="-12" xMax="685" yMax="818">
      <component glyphName="d" x="0" y="0" flags="0x4"/>
      <component glyphName="uni0313" x="918" y="-44" flags="0x4"/>
    </TTGlyph>
    <TTGlyph name="dcroat" xMin="57" yMin="-12" xMax="577" yMax="750">
      <contour>
        <pt x="289" y="466" on="1"/>
        <pt x="226" y="466" on="0"/>
        <pt x="156" y="366" on="0"/>
        <pt x="156" y="263" on="1"/>
        <pt x="156" y="160" on="0"/>
        <pt x="220" y="61" on="0"/>
        <pt x="279" y="61" on="1"/>
        <pt x="321" y="61" on="0"/>
        <pt x="385" y="110" on="0"/>
        <pt x="406" y="142" on="1"/>
        <pt x="406" y="401" on="1"/>
        <pt x="385" y="432" on="0"/>
        <pt x="324" y="466" on="0"/>
      </contour>
      <contour>
        <pt x="265" y="539" on="1"/>
        <pt x="353" y="539" on="0"/>
        <pt x="406" y="478" on="1"/>
        <pt x="406" y="597" on="1"/>
        <pt x="240" y="597" on="1"/>
        <pt x="240" y="667" on="1"/>
        <pt x="406" y="667" on="1"/>
        <pt x="406" y="750" on="1"/>
        <pt x="498" y="739" on="1"/>
        <pt x="498" y="667" on="1"/>
        <pt x="577" y="667" on="1"/>
        <pt x="577" y="597" on="1"/>
        <pt x="498" y="597" on="1"/>
        <pt x="498" y="0" on="1"/>
        <pt x="417" y="0" on="1"/>
        <pt x="409" y="68" on="1"/>
        <pt x="380" y="27" on="0"/>
        <pt x="303" y="-12" on="0"/>
        <pt x="258" y="-12" on="1"/>
        <pt x="205" y="-12" on="0"/>
        <pt x="129" y="27" on="0"/>
        <pt x="80" y="99" on="0"/>
        <pt x="57" y="201" on="0"/>
        <pt x="57" y="263" on="1"/>
        <pt x="57" y="323" on="0"/>
        <pt x="85" y="424" on="0"/>
        <pt x="139" y="497" on="0"/>
        <pt x="216" y="539" on="0"/>
      </contour>
    </TTGlyph>
    <TTGlyph name="degree" xMin="56" yMin="434" xMax="384" yMax="750">
      <contour>
        <pt x="220" y="497" on="1"/>
        <pt x="255" y="497" on="0"/>
        <pt x="307" y="544" on="0"/>
        <pt x="307" y="592" on="1"/>
        <pt x="307" y="640" on="0"/>
        <pt x="255" y="687" on="0"/>
        <pt x="220" y="687" on="1"/>
        <pt x="186" y="687" on="0"/>
        <pt x="133" y="641" on="0"/>
        <pt x="133" y="593" on="1"/>
        <pt x="133" y="544" on="0"/>
        <pt x="186" y="497" on="0"/>
      </contour>
      <contour>
        <pt x="220" y="434" on="1"/>
        <pt x="189" y="434" on="0"/>
        <pt x="130" y="455" on="0"/>
        <pt x="84" y="495" on="0"/>
        <pt x="56" y="555" on="0"/>
        <pt x="56" y="593" on="1"/>
        <pt x="56" y="630" on="0"/>
        <pt x="84" y="689" on="0"/>
        <pt x="130" y="729" on="0"/>
        <pt x="189" y="750" on="0"/>
        <pt x="220" y="750" on="1"/>
        <pt x="251" y="750" on="0"/>
        <pt x="311" y="729" on="0"/>
        <pt x="356" y="689" on="0"/>
        <pt x="384" y="630" on="0"/>
        <pt x="384" y="592" on="1"/>
        <pt x="384" y="554" on="0"/>
        <pt x="356" y="495" on="0"/>
        <pt x="311" y="455" on="0"/>
        <pt x="251" y="434" on="0"/>
      </contour>
    </TTGlyph>
    <TTGlyph name="delta" xMin="52" yMin="-12" xMax="528" yMax="750">
      <contour>
        <pt x="52" y="243" on="1"/>
        <pt x="52" y="288" on="0"/>
        <pt x="76" y="363" on="0"/>
        <pt x="119" y="423" on="0"/>
        <pt x="177" y="466" on="0"/>
        <pt x="211" y="480" on="1"/>
        <pt x="157" y="508" on="0"/>
        <pt x="114" y="568" on="0"/>
        <pt x="114" y="610" on="1"/>
        <pt x="114" y="643" on="0"/>
        <pt x="142" y="695" on="0"/>
        <pt x="193" y="731" on="0"/>
        <pt x="263" y="750" on="0"/>
        <pt x="305" y="750" on="1"/>
        <pt x="359" y="750" on="0"/>
        <pt x="438" y="719" on="0"/>
        <pt x="473" y="690" on="1"/>
        <pt x="427" y="636" on="1"/>
        <pt x="394" y="662" on="0"/>
        <pt x="335" y="680" on="0"/>
        <pt x="301" y="680" on="1"/>
        <pt x="258" y="680" on="0"/>
        <pt x="209" y="645" on="0"/>
        <pt x="209" y="613" on="1"/>
        <pt x="209" y="596" on="0"/>
        <pt x="221" y="572" on="0"/>
        <pt x="248" y="551" on="0"/>
        <pt x="293" y="531" on="0"/>
        <pt x="325" y="518" on="1"/>
        <pt x="376" y="497" on="0"/>
        <pt x="453" y="449" on="0"/>
        <pt x="503" y="385" on="0"/>
        <pt x="528" y="301" on="0"/>
        <pt x="528" y="244" on="1"/>
        <pt x="528" y="193" on="0"/>
        <pt x="496" y="100" on="0"/>
        <pt x="434" y="29" on="0"/>
        <pt x="346" y="-12" on="0"/>
        <pt x="290" y="-12" on="1"/>
        <pt x="234" y="-12" on="0"/>
        <pt x="145" y="28" on="0"/>
        <pt x="84" y="97" on="0"/>
        <pt x="52" y="190" on="0"/>
      </contour>
      <contour>
        <pt x="429" y="244" on="1"/>
        <pt x="429" y="288" on="0"/>
        <pt x="414" y="350" on="0"/>
        <pt x="379" y="396" on="0"/>
        <pt x="320" y="433" on="0"/>
        <pt x="277" y="451" on="1"/>
        <pt x="208" y="418" on="0"/>
        <pt x="151" y="317" on="0"/>
        <pt x="151" y="243" on="1"/>
        <pt x="151" y="158" on="0"/>
        <pt x="224" y="62" on="0"/>
        <pt x="290" y="62" on="1"/>
        <pt x="356" y="62" on="0"/>
        <pt x="429" y="154" on="0"/>
      </contour>
    </TTGlyph>
    <TTGlyph name="dieresis" xMin="30" yMin="654" xMax="355" yMax="768">
      <contour>
        <pt x="88" y="654" on="1"/>
        <pt x="63" y="654" on="0"/>
        <pt x="30" y="687" on="0"/>
        <pt x="30" y="711" on="1"/>
        <pt x="30" y="735" on="0"/>
        <pt x="63" y="768" on="0"/>
        <pt x="88" y="768" on="1"/>
        <pt x="112" y="768" on="0"/>
        <pt x="145" y="735" on="0"/>
        <pt x="145" y="711" on="1"/>
        <pt x="145" y="687" on="0"/>
        <pt x="112" y="654" on="0"/>
      </contour>
      <contour>
        <pt x="297" y="654" on="1"/>
        <pt x="273" y="654" on="0"/>
        <pt x="240" y="687" on="0"/>
        <pt x="240" y="711" on="1"/>
        <pt x="240" y="735" on="0"/>
        <pt x="273" y="768" on="0"/>
        <pt x="297" y="768" on="1"/>
        <pt x="322" y="768" on="0"/>
        <pt x="355" y="735" on="0"/>
        <pt x="355" y="711" on="1"/>
        <pt x="355" y="687" on="0"/>
        <pt x="322" y="654" on="0"/>
      </contour>
    </TTGlyph>
    <TTGlyph name="dieresistonos" xMin="-460" yMin="612" xMax="-115" yMax="906">
      <contour>
        <pt x="-402" y="612" on="1"/>
        <pt x="-427" y="612" on="0"/>
        <pt x="-460" y="644" on="0"/>
        <pt x="-460" y="668" on="1"/>
        <pt x="-460" y="693" on="0"/>
        <pt x="-427" y="725" on="0"/>
        <pt x="-402" y="725" on="1"/>
        <pt x="-378" y="725" on="0"/>
        <pt x="-345" y="693" on="0"/>
        <pt x="-345" y="668" on="1"/>
        <pt x="-345" y="644" on="0"/>
        <pt x="-378" y="612" on="0"/>
      </contour>
      <contour>
        <pt x="-173" y="612" on="1"/>
        <pt x="-197" y="612" on="0"/>
        <pt x="-230" y="644" on="0"/>
        <pt x="-230" y="668" on="1"/>
        <pt x="-230" y="693" on="0"/>
        <pt x="-197" y="725" on="0"/>
        <pt x="-173" y="725" on="1"/>
        <pt x="-148" y="725" on="0"/>
        <pt x="-115" y="693" on="0"/>
        <pt x="-115" y="668" on="1"/>
        <pt x="-115" y="644" on="0"/>
        <pt x="-148" y="612" on="0"/>
      </contour>
      <contour>
        <pt x="-322" y="727" on="1"/>
        <pt x="-293" y="906" on="1"/>
        <pt x="-192" y="888" on="1"/>
        <pt x="-254" y="717" on="1"/>
      </contour>
    </TTGlyph>
    <TTGlyph name="divide" xMin="92" yMin="45" xMax="468" yMax="580">
      <component glyphName="glyph00781" x="30" y="0" flags="0x4"/>
    </TTGlyph>
    <TTGlyph name="dollar" xMin="43" yMin="-154" xMax="515" yMax="849">
      <contour>
        <pt x="515" y="191" on="1"/>
        <pt x="515" y="110" on="0"/>
        <pt x="415" y="5" on="0"/>
        <pt x="320" y="-6" on="1"/>
        <pt x="320" y="-154" on="1"/>
        <pt x="240" y="-154" on="1"/>
        <pt x="240" y="-7" on="1"/>
        <pt x="181" y="-2" on="0"/>
        <pt x="79" y="41" on="0"/>
        <pt x="43" y="76" on="1"/>
        <pt x="96" y="135" on="1"/>
        <pt x="131" y="101" on="0"/>
        <pt x="215" y="65" on="0"/>
        <pt x="272" y="65" on="1"/>
        <pt x="302" y="65" on="0"/>
        <pt x="355" y="80" on="0"/>
        <pt x="395" y="111" on="0"/>
        <pt x="418" y="157" on="0"/>
        <pt x="418" y="188" on="1"/>
        <pt x="418" y="212" on="0"/>
        <pt x="405" y="253" on="0"/>
        <pt x="372" y="287" on="0"/>
        <pt x="316" y="316" on="0"/>
        <pt x="273" y="329" on="1"/>
        <pt x="174" y="359" on="0"/>
        <pt x="71" y="453" on="0"/>
        <pt x="71" y="526" on="1"/>
        <pt x="71" y="595" on="0"/>
        <pt x="164" y="686" on="0"/>
        <pt x="241" y="697" on="1"/>
        <pt x="241" y="849" on="1"/>
        <pt x="320" y="849" on="1"/>
        <pt x="320" y="698" on="1"/>
        <pt x="374" y="693" on="0"/>
        <pt x="460" y="655" on="0"/>
        <pt x="496" y="622" on="1"/>
        <pt x="442" y="566" on="1"/>
        <pt x="407" y="598" on="0"/>
        <pt x="331" y="627" on="0"/>
        <pt x="288" y="627" on="1"/>
        <pt x="237" y="627" on="0"/>
        <pt x="167" y="579" on="0"/>
        <pt x="167" y="529" on="1"/>
        <pt x="167" y="508" on="0"/>
        <pt x="180" y="475" on="0"/>
        <pt x="213" y="446" on="0"/>
        <pt x="271" y="420" on="0"/>
        <pt x="316" y="406" on="1"/>
        <pt x="356" y="393" on="0"/>
        <pt x="429" y="358" on="0"/>
        <pt x="483" y="308" on="0"/>
        <pt x="515" y="238" on="0"/>
      </contour>
    </TTGlyph>
    <TTGlyph name="dotaccent" xMin="30" yMin="655" xMax="159" yMax="780">
      <contour>
        <pt x="159" y="717" on="1"/>
        <pt x="159" y="691" on="0"/>
        <pt x="123" y="655" on="0"/>
        <pt x="94" y="655" on="1"/>
        <pt x="65" y="655" on="0"/>
        <pt x="30" y="691" on="0"/>
        <pt x="30" y="717" on="1"/>
        <pt x="30" y="744" on="0"/>
        <pt x="65" y="780" on="0"/>
        <pt x="94" y="780" on="1"/>
        <pt x="123" y="780" on="0"/>
        <pt x="159" y="744" on="0"/>
      </contour>
    </TTGlyph>
    <TTGlyph name="dotlessi" xMin="93" yMin="0" xMax="185" yMax="527">
      <contour>
        <pt x="93" y="0" on="1"/>
        <pt x="93" y="527" on="1"/>
        <pt x="185" y="527" on="1"/>
        <pt x="185" y="0" on="1"/>
      </contour>
    </TTGlyph>
    <TTGlyph name="dotmath" xMin="63" yMin="268" xMax="202" yMax="407">
      <component glyphName="periodcentered" x="0" y="0" flags="0x204"/>
    </TTGlyph>
    <TTGlyph name="e" xMin="57" yMin="-12" xMax="493" yMax="539">
      <contour>
        <pt x="155" y="232" on="1"/>
        <pt x="161" y="144" on="0"/>
        <pt x="237" y="63" on="0"/>
        <pt x="297" y="63" on="1"/>
        <pt x="333" y="63" on="0"/>
        <pt x="395" y="84" on="0"/>
        <pt x="429" y="112" on="1"/>
        <pt x="471" y="51" on="1"/>
        <pt x="434" y="22" on="0"/>
        <pt x="346" y="-12" on="0"/>
        <pt x="295" y="-12" on="1"/>
        <pt x="236" y="-12" on="0"/>
        <pt x="147" y="28" on="0"/>
        <pt x="87" y="100" on="0"/>
        <pt x="57" y="201" on="0"/>
        <pt x="57" y="263" on="1"/>
        <pt x="57" y="323" on="0"/>
        <pt x="87" y="424" on="0"/>
        <pt x="145" y="497" on="0"/>
        <pt x="227" y="539" on="0"/>
        <pt x="280" y="539" on="1"/>
        <pt x="384" y="539" on="0"/>
        <pt x="493" y="400" on="0"/>
        <pt x="493" y="279" on="1"/>
        <pt x="493" y="265" on="0"/>
        <pt x="492" y="241" on="0"/>
        <pt x="491" y="232" on="1"/>
      </contour>
      <contour>
        <pt x="280" y="466" on="1"/>
        <pt x="226" y="466" on="0"/>
        <pt x="160" y="385" on="0"/>
        <pt x="155" y="300" on="1"/>
        <pt x="402" y="300" on="1"/>
        <pt x="400" y="382" on="0"/>
        <pt x="342" y="466" on="0"/>
      </contour>
    </TTGlyph>
    <TTGlyph name="eacute" xMin="57" yMin="-12" xMax="493" yMax="791">
      <component glyphName="e" x="0" y="0" flags="0x204"/>
      <component glyphName="acutecomb" x="558" y="0" flags="0x4"/>
    </TTGlyph>
    <TTGlyph name="ebreve" xMin="57" yMin="-12" xMax="493" yMax="781">
      <component glyphName="e" x="0" y="0" flags="0x204"/>
      <component glyphName="uni0306" x="577" y="0" flags="0x4"/>
    </TTGlyph>
    <TTGlyph name="ecaron" xMin="57" yMin="-12" xMax="493" yMax="792">
      <component glyphName="e" x="0" y="0" flags="0x204"/>
      <component glyphName="uni030C" x="574" y="0" flags="0x4"/>
    </TTGlyph>
    <TTGlyph name="ecircumflex" xMin="57" yMin="-12" xMax="493" yMax="792">
      <component glyphName="e" x="0" y="0" flags="0x204"/>
      <component glyphName="uni0302" x="582" y="0" flags="0x4"/>
    </TTGlyph>
    <TTGlyph name="edieresis" xMin="57" yMin="-12" xMax="493" yMax="760">
      <component glyphName="e" x="0" y="0" flags="0x204"/>
      <component glyphName="uni0308" x="568" y="0" flags="0x4"/>
    </TTGlyph>
    <TTGlyph name="edotaccent" xMin="57" yMin="-12" xMax="493" yMax="777">
      <component glyphName="e" x="0" y="0" flags="0x204"/>
      <component glyphName="uni0307" x="570" y="0" flags="0x4"/>
    </TTGlyph>
    <TTGlyph name="egrave" xMin="57" yMin="-12" xMax="493" yMax="792">
      <component glyphName="e" x="0" y="0" flags="0x204"/>
      <component glyphName="gravecomb" x="567" y="0" flags="0x4"/>
    </TTGlyph>
    <TTGlyph name="eight" xMin="43" yMin="-12" xMax="517" yMax="701">
      <contour>
        <pt x="489" y="530" on="1"/>
        <pt x="489" y="483" on="0"/>
        <pt x="428" y="402" on="0"/>
        <pt x="369" y="372" on="1"/>
        <pt x="438" y="342" on="0"/>
        <pt x="517" y="248" on="0"/>
        <pt x="517" y="185" on="1"/>
        <pt x="517" y="143" on="0"/>
        <pt x="484" y="71" on="0"/>
        <pt x="422" y="18" on="0"/>
        <pt x="333" y="-12" on="0"/>
        <pt x="278" y="-12" on="1"/>
        <pt x="222" y="-12" on="0"/>
        <pt x="134" y="18" on="0"/>
        <pt x="74" y="71" on="0"/>
        <pt x="43" y="142" on="0"/>
        <pt x="43" y="183" on="1"/>
        <pt x="43" y="246" on="0"/>
        <pt x="118" y="333" on="0"/>
        <pt x="182" y="360" on="1"/>
        <pt x="125" y="389" on="0"/>
        <pt x="71" y="474" on="0"/>
        <pt x="71" y="528" on="1"/>
        <pt x="71" y="574" on="0"/>
        <pt x="110" y="640" on="0"/>
        <pt x="172" y="682" on="0"/>
        <pt x="245" y="701" on="0"/>
        <pt x="280" y="701" on="1"/>
        <pt x="318" y="701" on="0"/>
        <pt x="393" y="681" on="0"/>
        <pt x="452" y="640" on="0"/>
        <pt x="489" y="575" on="0"/>
      </contour>
      <contour>
        <pt x="421" y="184" on="1"/>
        <pt x="421" y="218" on="0"/>
        <pt x="395" y="263" on="0"/>
        <pt x="348" y="296" on="0"/>
        <pt x="282" y="322" on="0"/>
        <pt x="242" y="336" on="1"/>
        <pt x="221" y="326" on="0"/>
        <pt x="184" y="300" on="0"/>
        <pt x="156" y="263" on="0"/>
        <pt x="139" y="215" on="0"/>
        <pt x="139" y="184" on="1"/>
        <pt x="139" y="127" on="0"/>
        <pt x="209" y="61" on="0"/>
        <pt x="278" y="61" on="1"/>
        <pt x="348" y="61" on="0"/>
        <pt x="421" y="131" on="0"/>
      </contour>
      <contour>
        <pt x="161" y="527" on="1"/>
        <pt x="161" y="474" on="0"/>
        <pt x="239" y="415" on="0"/>
        <pt x="307" y="393" on="1"/>
        <pt x="399" y="446" on="0"/>
        <pt x="399" y="526" on="1"/>
        <pt x="399" y="573" on="0"/>
        <pt x="337" y="631" on="0"/>
        <pt x="280" y="631" on="1"/>
        <pt x="223" y="631" on="0"/>
        <pt x="161" y="577" on="0"/>
      </contour>
    </TTGlyph>
    <TTGlyph name="ellipsis" xMin="63" yMin="-12" xMax="731" yMax="127">
      <contour>
        <pt x="327" y="58" on="1"/>
        <pt x="327" y="87" on="0"/>
        <pt x="368" y="127" on="0"/>
        <pt x="397" y="127" on="1"/>
        <pt x="426" y="127" on="0"/>
        <pt x="466" y="87" on="0"/>
        <pt x="466" y="58" on="1"/>
        <pt x="466" y="29" on="0"/>
        <pt x="426" y="-12" on="0"/>
        <pt x="397" y="-12" on="1"/>
        <pt x="368" y="-12" on="0"/>
        <pt x="327" y="29" on="0"/>
      </contour>
      <contour>
        <pt x="63" y="58" on="1"/>
        <pt x="63" y="87" on="0"/>
        <pt x="103" y="127" on="0"/>
        <pt x="132" y="127" on="1"/>
        <pt x="162" y="127" on="0"/>
        <pt x="202" y="87" on="0"/>
        <pt x="202" y="58" on="1"/>
        <pt x="202" y="29" on="0"/>
        <pt x="162" y="-12" on="0"/>
        <pt x="132" y="-12" on="1"/>
        <pt x="103" y="-12" on="0"/>
        <pt x="63" y="29" on="0"/>
      </contour>
      <contour>
        <pt x="592" y="58" on="1"/>
        <pt x="592" y="87" on="0"/>
        <pt x="632" y="127" on="0"/>
        <pt x="661" y="127" on="1"/>
        <pt x="691" y="127" on="0"/>
        <pt x="731" y="87" on="0"/>
        <pt x="731" y="58" on="1"/>
        <pt x="731" y="29" on="0"/>
        <pt x="691" y="-12" on="0"/>
        <pt x="661" y="-12" on="1"/>
        <pt x="632" y="-12" on="0"/>
        <pt x="592" y="29" on="0"/>
      </contour>
    </TTGlyph>
    <TTGlyph name="emacron" xMin="57" yMin="-12" xMax="493" yMax="743">
      <component glyphName="e" x="0" y="0" flags="0x204"/>
      <component glyphName="uni0304" x="568" y="0" flags="0x4"/>
    </TTGlyph>
    <TTGlyph name="emdash" xMin="32" yMin="274" xMax="758" yMax="352">
      <contour>
        <pt x="32" y="274" on="1"/>
        <pt x="32" y="352" on="1"/>
        <pt x="758" y="352" on="1"/>
        <pt x="758" y="274" on="1"/>
      </contour>
    </TTGlyph>
    <TTGlyph name="endash" xMin="32" yMin="274" xMax="488" yMax="352">
      <contour>
        <pt x="32" y="274" on="1"/>
        <pt x="32" y="352" on="1"/>
        <pt x="488" y="352" on="1"/>
        <pt x="488" y="274" on="1"/>
      </contour>
    </TTGlyph>
    <TTGlyph name="eng" xMin="98" yMin="-212" xMax="495" yMax="539">
      <contour>
        <pt x="495" y="32" on="1"/>
        <pt x="495" y="-25" on="0"/>
        <pt x="475" y="-102" on="0"/>
        <pt x="435" y="-156" on="0"/>
        <pt x="375" y="-194" on="0"/>
        <pt x="335" y="-212" on="1"/>
        <pt x="301" y="-145" on="1"/>
        <pt x="327" y="-133" on="0"/>
        <pt x="366" y="-108" on="0"/>
        <pt x="391" y="-71" on="0"/>
        <pt x="404" y="-16" on="0"/>
        <pt x="404" y="26" on="1"/>
        <pt x="404" y="377" on="1"/>
        <pt x="404" y="425" on="0"/>
        <pt x="366" y="467" on="0"/>
        <pt x="321" y="467" on="1"/>
        <pt x="300" y="467" on="0"/>
        <pt x="261" y="452" on="0"/>
        <pt x="228" y="428" on="0"/>
        <pt x="200" y="397" on="0"/>
        <pt x="190" y="382" on="1"/>
        <pt x="190" y="0" on="1"/>
        <pt x="98" y="0" on="1"/>
        <pt x="98" y="527" on="1"/>
        <pt x="177" y="527" on="1"/>
        <pt x="184" y="455" on="1"/>
        <pt x="216" y="496" on="0"/>
        <pt x="305" y="539" on="0"/>
        <pt x="352" y="539" on="1"/>
        <pt x="429" y="539" on="0"/>
        <pt x="495" y="457" on="0"/>
        <pt x="495" y="383" on="1"/>
      </contour>
    </TTGlyph>
    <TTGlyph name="eogonek" xMin="57" yMin="-241" xMax="493" yMax="539">
      <contour>
        <pt x="155" y="232" on="1"/>
        <pt x="161" y="144" on="0"/>
        <pt x="237" y="63" on="0"/>
        <pt x="297" y="63" on="1"/>
        <pt x="333" y="63" on="0"/>
        <pt x="395" y="84" on="0"/>
        <pt x="429" y="112" on="1"/>
        <pt x="470" y="52" on="1"/>
        <pt x="425" y="22" on="0"/>
        <pt x="369" y="-30" on="0"/>
        <pt x="338" y="-75" on="0"/>
        <pt x="327" y="-112" on="0"/>
        <pt x="327" y="-127" on="1"/>
        <pt x="327" y="-150" on="0"/>
        <pt x="356" y="-180" on="0"/>
        <pt x="391" y="-180" on="1"/>
        <pt x="411" y="-180" on="0"/>
        <pt x="444" y="-170" on="0"/>
        <pt x="453" y="-165" on="1"/>
        <pt x="477" y="-219" on="1"/>
        <pt x="454" y="-231" on="0"/>
        <pt x="406" y="-241" on="0"/>
        <pt x="381" y="-241" on="1"/>
        <pt x="318" y="-241" on="0"/>
        <pt x="250" y="-181" on="0"/>
        <pt x="250" y="-130" on="1"/>
        <pt x="250" y="-94" on="0"/>
        <pt x="299" y="-26" on="0"/>
        <pt x="348" y="3" on="1"/>
        <pt x="329" y="-4" on="0"/>
        <pt x="296" y="-12" on="0"/>
        <pt x="274" y="-12" on="1"/>
        <pt x="226" y="-12" on="0"/>
        <pt x="146" y="28" on="0"/>
        <pt x="89" y="100" on="0"/>
        <pt x="57" y="201" on="0"/>
        <pt x="57" y="263" on="1"/>
        <pt x="57" y="323" on="0"/>
        <pt x="87" y="424" on="0"/>
        <pt x="145" y="497" on="0"/>
        <pt x="227" y="539" on="0"/>
        <pt x="280" y="539" on="1"/>
        <pt x="384" y="539" on="0"/>
        <pt x="493" y="400" on="0"/>
        <pt x="493" y="279" on="1"/>
        <pt x="493" y="265" on="0"/>
        <pt x="492" y="242" on="0"/>
        <pt x="491" y="232" on="1"/>
      </contour>
      <contour>
        <pt x="280" y="466" on="1"/>
        <pt x="226" y="466" on="0"/>
        <pt x="160" y="385" on="0"/>
        <pt x="155" y="300" on="1"/>
        <pt x="402" y="300" on="1"/>
        <pt x="400" y="382" on="0"/>
        <pt x="342" y="466" on="0"/>
      </contour>
    </TTGlyph>
    <TTGlyph name="epsilon" xMin="57" yMin="-12" xMax="491" yMax="539">
      <contour>
        <pt x="327" y="239" on="1"/>
        <pt x="271" y="239" on="1"/>
        <pt x="211" y="239" on="0"/>
        <pt x="158" y="199" on="0"/>
        <pt x="158" y="156" on="1"/>
        <pt x="158" y="113" on="0"/>
        <pt x="217" y="62" on="0"/>
        <pt x="275" y="62" on="1"/>
        <pt x="326" y="62" on="0"/>
        <pt x="411" y="95" on="0"/>
        <pt x="443" y="123" on="1"/>
        <pt x="491" y="63" on="1"/>
        <pt x="454" y="33" on="0"/>
        <pt x="350" y="-12" on="0"/>
        <pt x="276" y="-12" on="1"/>
        <pt x="229" y="-12" on="0"/>
        <pt x="149" y="9" on="0"/>
        <pt x="90" y="50" on="0"/>
        <pt x="57" y="111" on="0"/>
        <pt x="57" y="152" on="1"/>
        <pt x="57" y="181" on="0"/>
        <pt x="76" y="226" on="0"/>
        <pt x="109" y="257" on="0"/>
        <pt x="152" y="276" on="0"/>
        <pt x="175" y="280" on="1"/>
        <pt x="175" y="284" on="1"/>
        <pt x="135" y="295" on="0"/>
        <pt x="78" y="355" on="0"/>
        <pt x="78" y="398" on="1"/>
        <pt x="78" y="433" on="0"/>
        <pt x="110" y="486" on="0"/>
        <pt x="164" y="521" on="0"/>
        <pt x="237" y="539" on="0"/>
        <pt x="279" y="539" on="1"/>
        <pt x="300" y="539" on="0"/>
        <pt x="348" y="532" on="0"/>
        <pt x="397" y="518" on="0"/>
        <pt x="443" y="495" on="0"/>
        <pt x="461" y="480" on="1"/>
        <pt x="416" y="424" on="1"/>
        <pt x="384" y="448" on="0"/>
        <pt x="310" y="467" on="0"/>
        <pt x="279" y="467" on="1"/>
        <pt x="173" y="467" on="0"/>
        <pt x="173" y="388" on="1"/>
        <pt x="173" y="353" on="0"/>
        <pt x="229" y="311" on="0"/>
        <pt x="277" y="311" on="1"/>
        <pt x="338" y="311" on="1"/>
      </contour>
    </TTGlyph>
    <TTGlyph name="epsilontonos" xMin="57" yMin="-12" xMax="491" yMax="812">
      <component glyphName="epsilon" x="0" y="0" flags="0x204"/>
      <component glyphName="tonos" x="360" y="0" flags="0x4"/>
    </TTGlyph>
    <TTGlyph name="equal" xMin="92" yMin="176" xMax="468" yMax="446">
      <component glyphName="glyph00769" x="30" y="0" flags="0x4"/>
    </TTGlyph>
    <TTGlyph name="estimated" xMin="78" yMin="-12" xMax="867" yMax="702">
      <contour>
        <pt x="223" y="334" on="1"/>
        <pt x="223" y="122" on="1"/>
        <pt x="238" y="99" on="0"/>
        <pt x="294" y="63" on="0"/>
        <pt x="363" y="39" on="0"/>
        <pt x="438" y="27" on="0"/>
        <pt x="473" y="27" on="1"/>
        <pt x="507" y="27" on="0"/>
        <pt x="580" y="39" on="0"/>
        <pt x="648" y="63" on="0"/>
        <pt x="707" y="99" on="0"/>
        <pt x="728" y="123" on="1"/>
        <pt x="785" y="123" on="1"/>
        <pt x="731" y="60" on="0"/>
        <pt x="575" y="-12" on="0"/>
        <pt x="472" y="-12" on="1"/>
        <pt x="388" y="-12" on="0"/>
        <pt x="244" y="41" on="0"/>
        <pt x="138" y="135" on="0"/>
        <pt x="78" y="265" on="0"/>
        <pt x="78" y="342" on="1"/>
        <pt x="78" y="419" on="0"/>
        <pt x="140" y="551" on="0"/>
        <pt x="247" y="647" on="0"/>
        <pt x="391" y="702" on="0"/>
        <pt x="472" y="702" on="1"/>
        <pt x="551" y="702" on="0"/>
        <pt x="694" y="649" on="0"/>
        <pt x="803" y="552" on="0"/>
        <pt x="867" y="416" on="0"/>
        <pt x="867" y="334" on="1"/>
      </contour>
      <contour>
        <pt x="722" y="564" on="1"/>
        <pt x="680" y="609" on="0"/>
        <pt x="560" y="663" on="0"/>
        <pt x="473" y="663" on="1"/>
        <pt x="386" y="663" on="0"/>
        <pt x="261" y="610" on="0"/>
        <pt x="223" y="564" on="1"/>
        <pt x="223" y="373" on="1"/>
        <pt x="722" y="373" on="1"/>
      </contour>
    </TTGlyph>
    <TTGlyph name="eta" xMin="80" yMin="-213" xMax="503" yMax="539">
      <contour>
        <pt x="503" y="-202" on="1"/>
        <pt x="411" y="-213" on="1"/>
        <pt x="411" y="323" on="1"/>
        <pt x="411" y="362" on="0"/>
        <pt x="407" y="416" on="0"/>
        <pt x="391" y="451" on="0"/>
        <pt x="358" y="467" on="0"/>
        <pt x="329" y="467" on="1"/>
        <pt x="308" y="467" on="0"/>
        <pt x="269" y="452" on="0"/>
        <pt x="236" y="428" on="0"/>
        <pt x="208" y="397" on="0"/>
        <pt x="198" y="382" on="1"/>
        <pt x="198" y="0" on="1"/>
        <pt x="106" y="0" on="1"/>
        <pt x="106" y="357" on="1"/>
        <pt x="106" y="409" on="0"/>
        <pt x="89" y="495" on="0"/>
        <pt x="80" y="527" on="1"/>
        <pt x="166" y="539" on="1"/>
        <pt x="174" y="525" on="0"/>
        <pt x="188" y="472" on="0"/>
        <pt x="190" y="452" on="1"/>
        <pt x="225" y="496" on="0"/>
        <pt x="313" y="539" on="0"/>
        <pt x="360" y="539" on="1"/>
        <pt x="437" y="539" on="0"/>
        <pt x="503" y="457" on="0"/>
        <pt x="503" y="383" on="1"/>
      </contour>
    </TTGlyph>
    <TTGlyph name="etatonos" xMin="80" yMin="-213" xMax="503" yMax="812">
      <component glyphName="eta" x="0" y="0" flags="0x204"/>
      <component glyphName="tonos" x="394" y="0" flags="0x4"/>
    </TTGlyph>
    <TTGlyph name="eth" xMin="57" yMin="-12" xMax="508" yMax="776">
      <contour>
        <pt x="148" y="563" on="1"/>
        <pt x="226" y="645" on="1"/>
        <pt x="202" y="656" on="0"/>
        <pt x="148" y="673" on="0"/>
        <pt x="117" y="680" on="1"/>
        <pt x="137" y="750" on="1"/>
        <pt x="178" y="741" on="0"/>
        <pt x="250" y="718" on="0"/>
        <pt x="281" y="702" on="1"/>
        <pt x="351" y="776" on="1"/>
        <pt x="405" y="729" on="1"/>
        <pt x="344" y="666" on="1"/>
        <pt x="432" y="604" on="0"/>
        <pt x="508" y="408" on="0"/>
        <pt x="508" y="265" on="1"/>
        <pt x="508" y="202" on="0"/>
        <pt x="474" y="100" on="0"/>
        <pt x="414" y="27" on="0"/>
        <pt x="329" y="-12" on="0"/>
        <pt x="278" y="-12" on="1"/>
        <pt x="232" y="-12" on="0"/>
        <pt x="151" y="21" on="0"/>
        <pt x="91" y="84" on="0"/>
        <pt x="57" y="176" on="0"/>
        <pt x="57" y="235" on="1"/>
        <pt x="57" y="290" on="0"/>
        <pt x="90" y="381" on="0"/>
        <pt x="145" y="446" on="0"/>
        <pt x="218" y="481" on="0"/>
        <pt x="258" y="481" on="1"/>
        <pt x="307" y="481" on="0"/>
        <pt x="376" y="447" on="0"/>
        <pt x="399" y="420" on="1"/>
        <pt x="402" y="421" on="1"/>
        <pt x="390" y="478" on="0"/>
        <pt x="332" y="575" on="0"/>
        <pt x="288" y="609" on="1"/>
        <pt x="212" y="531" on="1"/>
      </contour>
      <contour>
        <pt x="415" y="266" on="1"/>
        <pt x="415" y="300" on="0"/>
        <pt x="412" y="332" on="1"/>
        <pt x="387" y="370" on="0"/>
        <pt x="319" y="409" on="0"/>
        <pt x="272" y="409" on="1"/>
        <pt x="248" y="409" on="0"/>
        <pt x="204" y="389" on="0"/>
        <pt x="171" y="347" on="0"/>
        <pt x="151" y="283" on="0"/>
        <pt x="151" y="239" on="1"/>
        <pt x="151" y="151" on="0"/>
        <pt x="220" y="61" on="0"/>
        <pt x="277" y="61" on="1"/>
        <pt x="338" y="61" on="0"/>
        <pt x="415" y="164" on="0"/>
      </contour>
    </TTGlyph>
    <TTGlyph name="exclam" xMin="63" yMin="-12" xMax="202" yMax="689">
      <contour>
        <pt x="63" y="58" on="1"/>
        <pt x="63" y="87" on="0"/>
        <pt x="103" y="127" on="0"/>
        <pt x="132" y="127" on="1"/>
        <pt x="162" y="127" on="0"/>
        <pt x="202" y="87" on="0"/>
        <pt x="202" y="58" on="1"/>
        <pt x="202" y="29" on="0"/>
        <pt x="162" y="-12" on="0"/>
        <pt x="132" y="-12" on="1"/>
        <pt x="103" y="-12" on="0"/>
        <pt x="63" y="29" on="0"/>
      </contour>
      <contour>
        <pt x="91" y="230" on="1"/>
        <pt x="80" y="689" on="1"/>
        <pt x="182" y="689" on="1"/>
        <pt x="172" y="230" on="1"/>
      </contour>
    </TTGlyph>
    <TTGlyph name="exclamdown" xMin="63" yMin="-198" xMax="202" yMax="500">
      <contour>
        <pt x="202" y="430" on="1"/>
        <pt x="202" y="401" on="0"/>
        <pt x="161" y="361" on="0"/>
        <pt x="132" y="361" on="1"/>
        <pt x="103" y="361" on="0"/>
        <pt x="63" y="401" on="0"/>
        <pt x="63" y="430" on="1"/>
        <pt x="63" y="459" on="0"/>
        <pt x="103" y="500" on="0"/>
        <pt x="132" y="500" on="1"/>
        <pt x="161" y="500" on="0"/>
        <pt x="202" y="459" on="0"/>
      </contour>
      <contour>
        <pt x="171" y="258" on="1"/>
        <pt x="185" y="-198" on="1"/>
        <pt x="80" y="-198" on="1"/>
        <pt x="93" y="258" on="1"/>
      </contour>
    </TTGlyph>
    <TTGlyph name="f" xMin="21" yMin="0" xMax="396" yMax="750">
      <contour>
        <pt x="270" y="750" on="1"/>
        <pt x="308" y="750" on="0"/>
        <pt x="364" y="737" on="0"/>
        <pt x="396" y="723" on="1"/>
        <pt x="367" y="656" on="1"/>
        <pt x="341" y="667" on="0"/>
        <pt x="295" y="676" on="0"/>
        <pt x="275" y="676" on="1"/>
        <pt x="231" y="676" on="0"/>
        <pt x="197" y="638" on="0"/>
        <pt x="197" y="600" on="1"/>
        <pt x="197" y="527" on="1"/>
        <pt x="325" y="527" on="1"/>
        <pt x="315" y="456" on="1"/>
        <pt x="197" y="456" on="1"/>
        <pt x="197" y="0" on="1"/>
        <pt x="105" y="0" on="1"/>
        <pt x="105" y="456" on="1"/>
        <pt x="21" y="456" on="1"/>
        <pt x="21" y="527" on="1"/>
        <pt x="105" y="527" on="1"/>
        <pt x="105" y="599" on="1"/>
        <pt x="105" y="665" on="0"/>
        <pt x="189" y="750" on="0"/>
      </contour>
    </TTGlyph>
    <TTGlyph name="figuredash" xMin="15" yMin="274" xMax="545" yMax="352">
      <component glyphName="glyph00783" x="0" y="0" flags="0x204"/>
    </TTGlyph>
    <TTGlyph name="five" xMin="57" yMin="-12" xMax="499" yMax="689">
      <contour>
        <pt x="499" y="220" on="1"/>
        <pt x="499" y="170" on="0"/>
        <pt x="464" y="86" on="0"/>
        <pt x="401" y="23" on="0"/>
        <pt x="314" y="-12" on="0"/>
        <pt x="261" y="-12" on="1"/>
        <pt x="201" y="-12" on="0"/>
        <pt x="97" y="29" on="0"/>
        <pt x="57" y="77" on="1"/>
        <pt x="119" y="129" on="1"/>
        <pt x="148" y="94" on="0"/>
        <pt x="218" y="63" on="0"/>
        <pt x="260" y="63" on="1"/>
        <pt x="327" y="63" on="0"/>
        <pt x="403" y="149" on="0"/>
        <pt x="403" y="221" on="1"/>
        <pt x="403" y="261" on="0"/>
        <pt x="384" y="316" on="0"/>
        <pt x="350" y="350" on="0"/>
        <pt x="304" y="365" on="0"/>
        <pt x="277" y="365" on="1"/>
        <pt x="254" y="365" on="0"/>
        <pt x="204" y="353" on="0"/>
        <pt x="181" y="342" on="1"/>
        <pt x="109" y="342" on="1"/>
        <pt x="109" y="689" on="1"/>
        <pt x="472" y="689" on="1"/>
        <pt x="461" y="616" on="1"/>
        <pt x="197" y="616" on="1"/>
        <pt x="197" y="413" on="1"/>
        <pt x="224" y="427" on="0"/>
        <pt x="280" y="437" on="0"/>
        <pt x="304" y="437" on="1"/>
        <pt x="347" y="437" on="0"/>
        <pt x="419" y="407" on="0"/>
        <pt x="470" y="350" on="0"/>
        <pt x="499" y="270" on="0"/>
      </contour>
    </TTGlyph>
    <TTGlyph name="fiveeighths" xMin="50" yMin="-79" xMax="879" yMax="751">
      <component glyphName="glyph00701" x="0" y="278" flags="0x4"/>
      <component glyphName="fraction" x="400" y="0" flags="0x4"/>
      <component glyphName="glyph00704" x="520" y="0" flags="0x4"/>
    </TTGlyph>
    <TTGlyph name="florin" xMin="3" yMin="-212" xMax="396" yMax="750">
      <contour>
        <pt x="3" y="-146" on="1"/>
        <pt x="29" y="-134" on="0"/>
        <pt x="67" y="-109" on="0"/>
        <pt x="93" y="-71" on="0"/>
        <pt x="105" y="-16" on="0"/>
        <pt x="105" y="26" on="1"/>
        <pt x="105" y="456" on="1"/>
        <pt x="21" y="456" on="1"/>
        <pt x="21" y="527" on="1"/>
        <pt x="105" y="527" on="1"/>
        <pt x="105" y="598" on="1"/>
        <pt x="105" y="664" on="0"/>
        <pt x="189" y="750" on="0"/>
        <pt x="270" y="750" on="1"/>
        <pt x="308" y="750" on="0"/>
        <pt x="364" y="736" on="0"/>
        <pt x="396" y="722" on="1"/>
        <pt x="366" y="656" on="1"/>
        <pt x="341" y="667" on="0"/>
        <pt x="295" y="676" on="0"/>
        <pt x="275" y="676" on="1"/>
        <pt x="231" y="676" on="0"/>
        <pt x="196" y="638" on="0"/>
        <pt x="196" y="599" on="1"/>
        <pt x="196" y="527" on="1"/>
        <pt x="325" y="527" on="1"/>
        <pt x="314" y="456" on="1"/>
        <pt x="196" y="456" on="1"/>
        <pt x="196" y="42" on="1"/>
        <pt x="196" y="-18" on="0"/>
        <pt x="177" y="-98" on="0"/>
        <pt x="138" y="-155" on="0"/>
        <pt x="77" y="-194" on="0"/>
        <pt x="36" y="-212" on="1"/>
      </contour>
    </TTGlyph>
    <TTGlyph name="four" xMin="49" yMin="0" xMax="507" yMax="701">
      <contour>
        <pt x="420" y="165" on="1"/>
        <pt x="420" y="0" on="1"/>
        <pt x="331" y="0" on="1"/>
        <pt x="331" y="165" on="1"/>
        <pt x="49" y="165" on="1"/>
        <pt x="49" y="230" on="1"/>
        <pt x="251" y="701" on="1"/>
        <pt x="328" y="669" on="1"/>
        <pt x="146" y="238" on="1"/>
        <pt x="331" y="238" on="1"/>
        <pt x="340" y="418" on="1"/>
        <pt x="420" y="418" on="1"/>
        <pt x="420" y="238" on="1"/>
        <pt x="507" y="238" on="1"/>
        <pt x="507" y="165" on="1"/>
      </contour>
    </TTGlyph>
    <TTGlyph name="fraction" xMin="-173" yMin="-79" xMax="293" yMax="751">
      <contour>
        <pt x="-111" y="-79" on="1"/>
        <pt x="-173" y="-49" on="1"/>
        <pt x="232" y="751" on="1"/>
        <pt x="293" y="721" on="1"/>
      </contour>
    </TTGlyph>
    <TTGlyph name="g" xMin="31" yMin="-213" xMax="526" yMax="586">
      <contour>
        <pt x="193" y="184" on="1"/>
        <pt x="184" y="176" on="0"/>
        <pt x="171" y="150" on="0"/>
        <pt x="171" y="136" on="1"/>
        <pt x="171" y="118" on="0"/>
        <pt x="196" y="93" on="0"/>
        <pt x="228" y="93" on="1"/>
        <pt x="301" y="93" on="1"/>
        <pt x="397" y="93" on="0"/>
        <pt x="501" y="17" on="0"/>
        <pt x="501" y="-55" on="1"/>
        <pt x="501" y="-96" on="0"/>
        <pt x="463" y="-156" on="0"/>
        <pt x="397" y="-195" on="0"/>
        <pt x="308" y="-213" on="0"/>
        <pt x="257" y="-213" on="1"/>
        <pt x="139" y="-213" on="0"/>
        <pt x="31" y="-135" on="0"/>
        <pt x="31" y="-57" on="1"/>
        <pt x="31" y="-53" on="1"/>
        <pt x="114" y="-53" on="1"/>
        <pt x="114" y="-79" on="0"/>
        <pt x="134" y="-113" on="0"/>
        <pt x="172" y="-133" on="0"/>
        <pt x="225" y="-141" on="0"/>
        <pt x="257" y="-141" on="1"/>
        <pt x="301" y="-141" on="0"/>
        <pt x="359" y="-128" on="0"/>
        <pt x="394" y="-106" on="0"/>
        <pt x="408" y="-77" on="0"/>
        <pt x="408" y="-60" on="1"/>
        <pt x="408" y="-44" on="0"/>
        <pt x="399" y="-16" on="0"/>
        <pt x="374" y="5" on="0"/>
        <pt x="330" y="16" on="0"/>
        <pt x="296" y="16" on="1"/>
        <pt x="226" y="16" on="1"/>
        <pt x="162" y="16" on="0"/>
        <pt x="86" y="71" on="0"/>
        <pt x="86" y="119" on="1"/>
        <pt x="86" y="143" on="0"/>
        <pt x="113" y="190" on="0"/>
        <pt x="138" y="208" on="1"/>
        <pt x="98" y="231" on="0"/>
        <pt x="55" y="306" on="0"/>
        <pt x="55" y="354" on="1"/>
        <pt x="55" y="393" on="0"/>
        <pt x="83" y="461" on="0"/>
        <pt x="136" y="510" on="0"/>
        <pt x="213" y="539" on="0"/>
        <pt x="261" y="539" on="1"/>
        <pt x="304" y="539" on="0"/>
        <pt x="373" y="546" on="0"/>
        <pt x="430" y="559" on="0"/>
        <pt x="477" y="576" on="0"/>
        <pt x="499" y="586" on="1"/>
        <pt x="526" y="503" on="1"/>
        <pt x="493" y="492" on="0"/>
        <pt x="419" y="487" on="0"/>
        <pt x="378" y="487" on="1"/>
        <pt x="378" y="483" on="1"/>
        <pt x="417" y="465" on="0"/>
        <pt x="462" y="398" on="0"/>
        <pt x="462" y="353" on="1"/>
        <pt x="462" y="315" on="0"/>
        <pt x="435" y="250" on="0"/>
        <pt x="384" y="202" on="0"/>
        <pt x="310" y="175" on="0"/>
        <pt x="263" y="175" on="1"/>
        <pt x="227" y="175" on="0"/>
      </contour>
      <contour>
        <pt x="149" y="354" on="1"/>
        <pt x="149" y="302" on="0"/>
        <pt x="207" y="236" on="0"/>
        <pt x="261" y="236" on="1"/>
        <pt x="315" y="236" on="0"/>
        <pt x="371" y="301" on="0"/>
        <pt x="371" y="355" on="1"/>
        <pt x="371" y="412" on="0"/>
        <pt x="317" y="473" on="0"/>
        <pt x="261" y="473" on="1"/>
        <pt x="206" y="473" on="0"/>
        <pt x="149" y="405" on="0"/>
      </contour>
    </TTGlyph>
    <TTGlyph name="gamma" xMin="0" yMin="-213" xMax="495" yMax="539">
      <contour>
        <pt x="201" y="19" on="1"/>
        <pt x="184" y="90" on="0"/>
        <pt x="140" y="237" on="0"/>
        <pt x="89" y="368" on="0"/>
        <pt x="31" y="475" on="0"/>
        <pt x="0" y="505" on="1"/>
        <pt x="93" y="538" on="1"/>
        <pt x="118" y="508" on="0"/>
        <pt x="163" y="420" on="0"/>
        <pt x="203" y="313" on="0"/>
        <pt x="237" y="188" on="0"/>
        <pt x="251" y="121" on="1"/>
        <pt x="255" y="121" on="1"/>
        <pt x="402" y="539" on="1"/>
        <pt x="495" y="518" on="1"/>
        <pt x="292" y="18" on="1"/>
        <pt x="269" y="-38" on="0"/>
        <pt x="269" y="-100" on="1"/>
        <pt x="269" y="-144" on="0"/>
        <pt x="280" y="-202" on="1"/>
        <pt x="206" y="-213" on="1"/>
        <pt x="180" y="-161" on="0"/>
        <pt x="180" y="-96" on="1"/>
        <pt x="180" y="-37" on="0"/>
      </contour>
    </TTGlyph>
    <TTGlyph name="gbreve" xMin="31" yMin="-213" xMax="526" yMax="781">
      <component glyphName="g" x="0" y="0" flags="0x204"/>
      <component glyphName="uni0306" x="556" y="0" flags="0x4"/>
    </TTGlyph>
    <TTGlyph name="gcircumflex" xMin="31" yMin="-213" xMax="526" yMax="792">
      <component glyphName="g" x="0" y="0" flags="0x204"/>
      <component glyphName="uni0302" x="561" y="0" flags="0x4"/>
    </TTGlyph>
    <TTGlyph name="gdotaccent" xMin="31" yMin="-213" xMax="526" yMax="777">
      <component glyphName="g" x="0" y="0" flags="0x204"/>
      <component glyphName="uni0307" x="551" y="0" flags="0x4"/>
    </TTGlyph>
    <TTGlyph name="germandbls" xMin="98" yMin="-12" xMax="566" yMax="750">
      <contour>
        <pt x="98" y="533" on="1"/>
        <pt x="98" y="640" on="0"/>
        <pt x="205" y="750" on="0"/>
        <pt x="302" y="750" on="1"/>
        <pt x="342" y="750" on="0"/>
        <pt x="407" y="729" on="0"/>
        <pt x="453" y="690" on="0"/>
        <pt x="479" y="637" on="0"/>
        <pt x="479" y="605" on="1"/>
        <pt x="479" y="569" on="0"/>
        <pt x="444" y="522" on="0"/>
        <pt x="403" y="486" on="0"/>
        <pt x="368" y="452" on="0"/>
        <pt x="368" y="429" on="1"/>
        <pt x="368" y="407" on="0"/>
        <pt x="397" y="375" on="0"/>
        <pt x="441" y="345" on="0"/>
        <pt x="493" y="313" on="0"/>
        <pt x="537" y="269" on="0"/>
        <pt x="566" y="209" on="0"/>
        <pt x="566" y="167" on="1"/>
        <pt x="566" y="123" on="0"/>
        <pt x="536" y="57" on="0"/>
        <pt x="485" y="11" on="0"/>
        <pt x="416" y="-12" on="0"/>
        <pt x="378" y="-12" on="1"/>
        <pt x="338" y="-12" on="0"/>
        <pt x="275" y="5" on="0"/>
        <pt x="249" y="22" on="1"/>
        <pt x="285" y="85" on="1"/>
        <pt x="303" y="74" on="0"/>
        <pt x="348" y="62" on="0"/>
        <pt x="369" y="62" on="1"/>
        <pt x="417" y="62" on="0"/>
        <pt x="472" y="112" on="0"/>
        <pt x="472" y="163" on="1"/>
        <pt x="472" y="194" on="0"/>
        <pt x="443" y="238" on="0"/>
        <pt x="401" y="273" on="0"/>
        <pt x="350" y="303" on="0"/>
        <pt x="308" y="339" on="0"/>
        <pt x="279" y="384" on="0"/>
        <pt x="279" y="417" on="1"/>
        <pt x="279" y="453" on="0"/>
        <pt x="314" y="497" on="0"/>
        <pt x="356" y="533" on="0"/>
        <pt x="391" y="569" on="0"/>
        <pt x="391" y="597" on="1"/>
        <pt x="391" y="610" on="0"/>
        <pt x="382" y="639" on="0"/>
        <pt x="361" y="663" on="0"/>
        <pt x="326" y="678" on="0"/>
        <pt x="301" y="678" on="1"/>
        <pt x="247" y="678" on="0"/>
        <pt x="190" y="614" on="0"/>
        <pt x="190" y="539" on="1"/>
        <pt x="190" y="0" on="1"/>
        <pt x="98" y="0" on="1"/>
      </contour>
    </TTGlyph>
    <TTGlyph name="glyph00677" xMin="126" yMin="-110" xMax="1074" yMax="842">
      <contour>
        <pt x="1074" y="366" on="1"/>
        <pt x="1074" y="267" on="0"/>
        <pt x="1000" y="94" on="0"/>
        <pt x="871" y="-35" on="0"/>
        <pt x="699" y="-110" on="0"/>
        <pt x="600" y="-110" on="1"/>
        <pt x="501" y="-110" on="0"/>
        <pt x="329" y="-35" on="0"/>
        <pt x="200" y="94" on="0"/>
        <pt x="126" y="267" on="0"/>
        <pt x="126" y="366" on="1"/>
        <pt x="126" y="465" on="0"/>
        <pt x="200" y="638" on="0"/>
        <pt x="329" y="767" on="0"/>
        <pt x="501" y="842" on="0"/>
        <pt x="600" y="842" on="1"/>
        <pt x="699" y="842" on="0"/>
        <pt x="871" y="767" on="0"/>
        <pt x="1000" y="638" on="0"/>
        <pt x="1074" y="465" on="0"/>
      </contour>
      <contour>
        <pt x="252" y="615" on="1"/>
        <pt x="217" y="567" on="0"/>
        <pt x="177" y="452" on="0"/>
        <pt x="174" y="389" on="1"/>
        <pt x="336" y="389" on="1"/>
        <pt x="338" y="435" on="0"/>
        <pt x="354" y="521" on="0"/>
        <pt x="367" y="561" on="1"/>
        <pt x="303" y="584" on="0"/>
      </contour>
      <contour>
        <pt x="1026" y="389" on="1"/>
        <pt x="1022" y="452" on="0"/>
        <pt x="982" y="567" on="0"/>
        <pt x="947" y="615" on="1"/>
        <pt x="897" y="584" on="0"/>
        <pt x="832" y="561" on="1"/>
        <pt x="846" y="521" on="0"/>
        <pt x="861" y="435" on="0"/>
        <pt x="863" y="389" on="1"/>
      </contour>
      <contour>
        <pt x="174" y="343" on="1"/>
        <pt x="177" y="279" on="0"/>
        <pt x="217" y="165" on="0"/>
        <pt x="252" y="116" on="1"/>
        <pt x="278" y="133" on="0"/>
        <pt x="336" y="160" on="0"/>
        <pt x="367" y="171" on="1"/>
        <pt x="354" y="211" on="0"/>
        <pt x="338" y="296" on="0"/>
        <pt x="336" y="343" on="1"/>
      </contour>
      <contour>
        <pt x="947" y="116" on="1"/>
        <pt x="982" y="165" on="0"/>
        <pt x="1022" y="279" on="0"/>
        <pt x="1026" y="343" on="1"/>
        <pt x="863" y="343" on="1"/>
        <pt x="861" y="296" on="0"/>
        <pt x="846" y="211" on="0"/>
        <pt x="832" y="171" on="1"/>
        <pt x="864" y="160" on="0"/>
        <pt x="921" y="133" on="0"/>
      </contour>
      <contour>
        <pt x="789" y="547" on="1"/>
        <pt x="748" y="536" on="0"/>
        <pt x="666" y="522" on="0"/>
        <pt x="624" y="520" on="1"/>
        <pt x="624" y="389" on="1"/>
        <pt x="817" y="389" on="1"/>
        <pt x="814" y="475" on="0"/>
      </contour>
      <contour>
        <pt x="624" y="211" on="1"/>
        <pt x="708" y="208" on="0"/>
        <pt x="789" y="184" on="1"/>
        <pt x="814" y="258" on="0"/>
        <pt x="817" y="343" on="1"/>
        <pt x="624" y="343" on="1"/>
      </contour>
      <contour>
        <pt x="574" y="520" on="1"/>
        <pt x="489" y="525" on="0"/>
        <pt x="410" y="547" on="1"/>
        <pt x="398" y="510" on="0"/>
        <pt x="384" y="431" on="0"/>
        <pt x="382" y="389" on="1"/>
        <pt x="574" y="389" on="1"/>
      </contour>
      <contour>
        <pt x="410" y="184" on="1"/>
        <pt x="450" y="195" on="0"/>
        <pt x="532" y="209" on="0"/>
        <pt x="574" y="211" on="1"/>
        <pt x="574" y="343" on="1"/>
        <pt x="382" y="343" on="1"/>
        <pt x="384" y="300" on="0"/>
        <pt x="398" y="222" on="0"/>
      </contour>
      <contour>
        <pt x="639" y="792" on="1"/>
        <pt x="629" y="792" on="0"/>
        <pt x="624" y="793" on="1"/>
        <pt x="624" y="562" on="1"/>
        <pt x="661" y="564" on="0"/>
        <pt x="737" y="576" on="0"/>
        <pt x="774" y="586" on="1"/>
        <pt x="751" y="643" on="0"/>
        <pt x="682" y="745" on="0"/>
      </contour>
      <contour>
        <pt x="624" y="-61" on="1"/>
        <pt x="629" y="-60" on="0"/>
        <pt x="639" y="-60" on="1"/>
        <pt x="682" y="-13" on="0"/>
        <pt x="751" y="88" on="0"/>
        <pt x="774" y="145" on="1"/>
        <pt x="737" y="156" on="0"/>
        <pt x="661" y="167" on="0"/>
        <pt x="624" y="169" on="1"/>
      </contour>
      <contour>
        <pt x="574" y="793" on="1"/>
        <pt x="569" y="792" on="0"/>
        <pt x="561" y="792" on="1"/>
        <pt x="517" y="745" on="0"/>
        <pt x="449" y="643" on="0"/>
        <pt x="425" y="586" on="1"/>
        <pt x="462" y="576" on="0"/>
        <pt x="537" y="564" on="0"/>
        <pt x="574" y="562" on="1"/>
      </contour>
      <contour>
        <pt x="561" y="-60" on="1"/>
        <pt x="569" y="-60" on="0"/>
        <pt x="574" y="-61" on="1"/>
        <pt x="574" y="169" on="1"/>
        <pt x="498" y="166" on="0"/>
        <pt x="425" y="145" on="1"/>
        <pt x="449" y="88" on="0"/>
        <pt x="517" y="-13" on="0"/>
      </contour>
      <contour>
        <pt x="499" y="782" on="1"/>
        <pt x="433" y="766" on="0"/>
        <pt x="322" y="698" on="0"/>
        <pt x="279" y="649" on="1"/>
        <pt x="326" y="619" on="0"/>
        <pt x="382" y="600" on="1"/>
        <pt x="404" y="653" on="0"/>
        <pt x="463" y="744" on="0"/>
      </contour>
      <contour>
        <pt x="701" y="-50" on="1"/>
        <pt x="766" y="-34" on="0"/>
        <pt x="877" y="34" on="0"/>
        <pt x="920" y="82" on="1"/>
        <pt x="898" y="97" on="0"/>
        <pt x="847" y="121" on="0"/>
        <pt x="818" y="132" on="1"/>
        <pt x="796" y="79" on="0"/>
        <pt x="736" y="-12" on="0"/>
      </contour>
      <contour>
        <pt x="279" y="82" on="1"/>
        <pt x="322" y="34" on="0"/>
        <pt x="433" y="-34" on="0"/>
        <pt x="499" y="-50" on="1"/>
        <pt x="463" y="-12" on="0"/>
        <pt x="404" y="79" on="0"/>
        <pt x="382" y="132" on="1"/>
        <pt x="353" y="121" on="0"/>
        <pt x="302" y="97" on="0"/>
      </contour>
      <contour>
        <pt x="920" y="649" on="1"/>
        <pt x="877" y="698" on="0"/>
        <pt x="766" y="766" on="0"/>
        <pt x="701" y="782" on="1"/>
        <pt x="736" y="744" on="0"/>
        <pt x="796" y="653" on="0"/>
        <pt x="818" y="600" on="1"/>
        <pt x="875" y="619" on="0"/>
      </contour>
    </TTGlyph>
    <TTGlyph name="glyph00678" xMin="117" yMin="153" xMax="282" yMax="786">
      <component glyphName="glyph00693" x="0" y="278" flags="0x204"/>
    </TTGlyph>
    <TTGlyph name="glyph00679" xMin="117" yMin="153" xMax="282" yMax="786">
      <component glyphName="glyph00694" x="0" y="278" flags="0x204"/>
    </TTGlyph>
    <TTGlyph name="glyph00680" xMin="81" yMin="354" xMax="319" yMax="595">
      <component glyphName="glyph00695" x="0" y="278" flags="0x204"/>
    </TTGlyph>
    <TTGlyph name="glyph00681" xMin="45" yMin="272" xMax="354" yMax="705">
      <component glyphName="glyph00696" x="0" y="278" flags="0x204"/>
    </TTGlyph>
    <TTGlyph name="glyph00682" xMin="66" yMin="278" xMax="272" yMax="699">
      <component glyphName="glyph00697" x="0" y="278" flags="0x204"/>
    </TTGlyph>
    <TTGlyph name="glyph00683" xMin="50" yMin="278" xMax="343" yMax="705">
      <component glyphName="glyph00698" x="0" y="278" flags="0x204"/>
    </TTGlyph>
    <TTGlyph name="glyph00684" xMin="37" yMin="272" xMax="344" yMax="705">
      <component glyphName="glyph00699" x="0" y="278" flags="0x204"/>
    </TTGlyph>
    <TTGlyph name="glyph00685" xMin="45" yMin="278" xMax="354" yMax="709">
      <component glyphName="glyph00700" x="0" y="278" flags="0x204"/>
    </TTGlyph>
    <TTGlyph name="glyph00686" xMin="50" yMin="272" xMax="342" yMax="699">
      <component glyphName="glyph00701" x="0" y="278" flags="0x204"/>
    </TTGlyph>
    <TTGlyph name="glyph00687" xMin="50" yMin="272" xMax="356" yMax="705">
      <component glyphName="glyph00702" x="0" y="278" flags="0x204"/>
    </TTGlyph>
    <TTGlyph name="glyph00688" xMin="57" yMin="270" xMax="339" yMax="699">
      <component glyphName="glyph00703" x="0" y="278" flags="0x204"/>
    </TTGlyph>
    <TTGlyph name="glyph00689" xMin="40" yMin="272" xMax="359" yMax="705">
      <component glyphName="glyph00704" x="0" y="278" flags="0x204"/>
    </TTGlyph>
    <TTGlyph name="glyph00690" xMin="41" yMin="264" xMax="349" yMax="705">
      <component glyphName="glyph00705" x="0" y="278" flags="0x204"/>
    </TTGlyph>
    <TTGlyph name="glyph00691" xMin="80" yMin="381" xMax="319" yMax="567">
      <component glyphName="glyph00706" x="0" y="278" flags="0x204"/>
    </TTGlyph>
    <TTGlyph name="glyph00692" xMin="81" yMin="442" xMax="319" yMax="506">
      <component glyphName="glyph00707" x="0" y="278" flags="0x204"/>
    </TTGlyph>
    <TTGlyph name="glyph00693" xMin="117" yMin="-125" xMax="282" yMax="508">
      <contour>
        <pt x="193" y="191" on="1"/>
        <pt x="193" y="141" on="0"/>
        <pt x="205" y="62" on="0"/>
        <pt x="228" y="-4" on="0"/>
        <pt x="261" y="-64" on="0"/>
        <pt x="282" y="-95" on="1"/>
        <pt x="234" y="-125" on="1"/>
        <pt x="210" y="-91" on="0"/>
        <pt x="168" y="-27" on="0"/>
        <pt x="136" y="47" on="0"/>
        <pt x="117" y="134" on="0"/>
        <pt x="117" y="191" on="1"/>
        <pt x="117" y="248" on="0"/>
        <pt x="136" y="336" on="0"/>
        <pt x="168" y="409" on="0"/>
        <pt x="210" y="474" on="0"/>
        <pt x="234" y="508" on="1"/>
        <pt x="282" y="478" on="1"/>
        <pt x="261" y="447" on="0"/>
        <pt x="228" y="387" on="0"/>
        <pt x="205" y="321" on="0"/>
        <pt x="193" y="242" on="0"/>
      </contour>
    </TTGlyph>
    <TTGlyph name="glyph00694" xMin="117" yMin="-125" xMax="282" yMax="508">
      <contour>
        <pt x="206" y="192" on="1"/>
        <pt x="206" y="242" on="0"/>
        <pt x="194" y="321" on="0"/>
        <pt x="171" y="387" on="0"/>
        <pt x="138" y="447" on="0"/>
        <pt x="117" y="478" on="1"/>
        <pt x="165" y="508" on="1"/>
        <pt x="189" y="474" on="0"/>
        <pt x="231" y="410" on="0"/>
        <pt x="263" y="336" on="0"/>
        <pt x="282" y="249" on="0"/>
        <pt x="282" y="192" on="1"/>
        <pt x="282" y="135" on="0"/>
        <pt x="263" y="47" on="0"/>
        <pt x="231" y="-27" on="0"/>
        <pt x="189" y="-91" on="0"/>
        <pt x="165" y="-125" on="1"/>
        <pt x="117" y="-95" on="1"/>
        <pt x="138" y="-64" on="0"/>
        <pt x="171" y="-4" on="0"/>
        <pt x="194" y="62" on="0"/>
        <pt x="206" y="141" on="0"/>
      </contour>
    </TTGlyph>
    <TTGlyph name="glyph00695" xMin="81" yMin="76" xMax="319" yMax="317">
      <contour>
        <pt x="166" y="228" on="1"/>
        <pt x="166" y="317" on="1"/>
        <pt x="235" y="317" on="1"/>
        <pt x="235" y="228" on="1"/>
        <pt x="319" y="228" on="1"/>
        <pt x="319" y="164" on="1"/>
        <pt x="235" y="164" on="1"/>
        <pt x="235" y="76" on="1"/>
        <pt x="166" y="76" on="1"/>
        <pt x="166" y="164" on="1"/>
        <pt x="81" y="164" on="1"/>
        <pt x="81" y="228" on="1"/>
      </contour>
    </TTGlyph>
    <TTGlyph name="glyph00696" xMin="45" yMin="-6" xMax="354" yMax="427">
      <contour>
        <pt x="274" y="211" on="1"/>
        <pt x="274" y="298" on="0"/>
        <pt x="235" y="365" on="0"/>
        <pt x="200" y="365" on="1"/>
        <pt x="165" y="365" on="0"/>
        <pt x="125" y="295" on="0"/>
        <pt x="125" y="211" on="1"/>
        <pt x="125" y="129" on="0"/>
        <pt x="164" y="55" on="0"/>
        <pt x="200" y="55" on="1"/>
        <pt x="235" y="55" on="0"/>
        <pt x="274" y="125" on="0"/>
      </contour>
      <contour>
        <pt x="354" y="211" on="1"/>
        <pt x="354" y="104" on="0"/>
        <pt x="276" y="-6" on="0"/>
        <pt x="200" y="-6" on="1"/>
        <pt x="124" y="-6" on="0"/>
        <pt x="45" y="104" on="0"/>
        <pt x="45" y="211" on="1"/>
        <pt x="45" y="319" on="0"/>
        <pt x="124" y="427" on="0"/>
        <pt x="200" y="427" on="1"/>
        <pt x="354" y="427" on="0"/>
      </contour>
    </TTGlyph>
    <TTGlyph name="glyph00697" xMin="66" yMin="0" xMax="272" yMax="421">
      <contour>
        <pt x="197" y="0" on="1"/>
        <pt x="197" y="336" on="1"/>
        <pt x="103" y="285" on="1"/>
        <pt x="66" y="337" on="1"/>
        <pt x="211" y="421" on="1"/>
        <pt x="272" y="421" on="1"/>
        <pt x="272" y="0" on="1"/>
      </contour>
    </TTGlyph>
    <TTGlyph name="glyph00698" xMin="50" yMin="0" xMax="343" yMax="427">
      <contour>
        <pt x="333" y="306" on="1"/>
        <pt x="333" y="253" on="0"/>
        <pt x="246" y="140" on="0"/>
        <pt x="155" y="63" on="1"/>
        <pt x="343" y="63" on="1"/>
        <pt x="334" y="0" on="1"/>
        <pt x="56" y="0" on="1"/>
        <pt x="56" y="55" on="1"/>
        <pt x="113" y="107" on="0"/>
        <pt x="188" y="181" on="0"/>
        <pt x="233" y="238" on="0"/>
        <pt x="252" y="283" on="0"/>
        <pt x="252" y="304" on="1"/>
        <pt x="252" y="333" on="0"/>
        <pt x="216" y="364" on="0"/>
        <pt x="189" y="364" on="1"/>
        <pt x="165" y="364" on="0"/>
        <pt x="125" y="343" on="0"/>
        <pt x="103" y="317" on="1"/>
        <pt x="50" y="357" on="1"/>
        <pt x="80" y="392" on="0"/>
        <pt x="150" y="427" on="0"/>
        <pt x="193" y="427" on="1"/>
        <pt x="258" y="427" on="0"/>
        <pt x="333" y="359" on="0"/>
      </contour>
    </TTGlyph>
    <TTGlyph name="glyph00699" xMin="37" yMin="-6" xMax="344" yMax="427">
      <contour>
        <pt x="344" y="126" on="1"/>
        <pt x="344" y="98" on="0"/>
        <pt x="321" y="50" on="0"/>
        <pt x="278" y="14" on="0"/>
        <pt x="218" y="-6" on="0"/>
        <pt x="182" y="-6" on="1"/>
        <pt x="142" y="-6" on="0"/>
        <pt x="67" y="23" on="0"/>
        <pt x="37" y="57" on="1"/>
        <pt x="86" y="100" on="1"/>
        <pt x="106" y="77" on="0"/>
        <pt x="154" y="56" on="0"/>
        <pt x="180" y="56" on="1"/>
        <pt x="220" y="56" on="0"/>
        <pt x="264" y="94" on="0"/>
        <pt x="264" y="126" on="1"/>
        <pt x="264" y="164" on="0"/>
        <pt x="220" y="192" on="0"/>
        <pt x="185" y="192" on="1"/>
        <pt x="148" y="192" on="1"/>
        <pt x="156" y="252" on="1"/>
        <pt x="181" y="252" on="1"/>
        <pt x="210" y="252" on="0"/>
        <pt x="252" y="279" on="0"/>
        <pt x="252" y="310" on="1"/>
        <pt x="252" y="338" on="0"/>
        <pt x="213" y="366" on="0"/>
        <pt x="184" y="366" on="1"/>
        <pt x="157" y="366" on="0"/>
        <pt x="112" y="346" on="0"/>
        <pt x="90" y="326" on="1"/>
        <pt x="49" y="372" on="1"/>
        <pt x="82" y="401" on="0"/>
        <pt x="150" y="427" on="0"/>
        <pt x="187" y="427" on="1"/>
        <pt x="255" y="427" on="0"/>
        <pt x="330" y="363" on="0"/>
        <pt x="330" y="318" on="1"/>
        <pt x="330" y="289" on="0"/>
        <pt x="291" y="239" on="0"/>
        <pt x="253" y="230" on="1"/>
        <pt x="253" y="227" on="1"/>
        <pt x="271" y="224" on="0"/>
        <pt x="304" y="206" on="0"/>
        <pt x="329" y="179" on="0"/>
        <pt x="344" y="145" on="0"/>
      </contour>
    </TTGlyph>
    <TTGlyph name="glyph00700" xMin="45" yMin="0" xMax="354" yMax="431">
      <contour>
        <pt x="300" y="96" on="1"/>
        <pt x="300" y="0" on="1"/>
        <pt x="224" y="0" on="1"/>
        <pt x="224" y="96" on="1"/>
        <pt x="45" y="96" on="1"/>
        <pt x="45" y="146" on="1"/>
        <pt x="179" y="431" on="1"/>
        <pt x="244" y="405" on="1"/>
        <pt x="131" y="157" on="1"/>
        <pt x="224" y="157" on="1"/>
        <pt x="231" y="262" on="1"/>
        <pt x="300" y="262" on="1"/>
        <pt x="300" y="157" on="1"/>
        <pt x="354" y="157" on="1"/>
        <pt x="354" y="96" on="1"/>
      </contour>
    </TTGlyph>
    <TTGlyph name="glyph00701" xMin="50" yMin="-6" xMax="342" yMax="421">
      <contour>
        <pt x="342" y="139" on="1"/>
        <pt x="342" y="108" on="0"/>
        <pt x="319" y="55" on="0"/>
        <pt x="278" y="16" on="0"/>
        <pt x="220" y="-6" on="0"/>
        <pt x="185" y="-6" on="1"/>
        <pt x="145" y="-6" on="0"/>
        <pt x="79" y="22" on="0"/>
        <pt x="50" y="54" on="1"/>
        <pt x="97" y="97" on="1"/>
        <pt x="137" y="56" on="0"/>
        <pt x="184" y="56" on="1"/>
        <pt x="220" y="56" on="0"/>
        <pt x="262" y="101" on="0"/>
        <pt x="262" y="139" on="1"/>
        <pt x="262" y="181" on="0"/>
        <pt x="224" y="216" on="0"/>
        <pt x="195" y="216" on="1"/>
        <pt x="170" y="216" on="0"/>
        <pt x="138" y="200" on="1"/>
        <pt x="81" y="200" on="1"/>
        <pt x="81" y="421" on="1"/>
        <pt x="326" y="421" on="1"/>
        <pt x="319" y="360" on="1"/>
        <pt x="156" y="360" on="1"/>
        <pt x="156" y="262" on="1"/>
        <pt x="186" y="274" on="0"/>
        <pt x="212" y="274" on="1"/>
        <pt x="271" y="274" on="0"/>
        <pt x="342" y="202" on="0"/>
      </contour>
    </TTGlyph>
    <TTGlyph name="glyph00702" xMin="50" yMin="-6" xMax="356" yMax="427">
      <contour>
        <pt x="294" y="348" on="1"/>
        <pt x="276" y="359" on="0"/>
        <pt x="247" y="366" on="0"/>
        <pt x="234" y="366" on="1"/>
        <pt x="196" y="366" on="0"/>
        <pt x="134" y="302" on="0"/>
        <pt x="127" y="230" on="1"/>
        <pt x="147" y="258" on="0"/>
        <pt x="205" y="282" on="0"/>
        <pt x="228" y="282" on="1"/>
        <pt x="253" y="282" on="0"/>
        <pt x="300" y="265" on="0"/>
        <pt x="335" y="230" on="0"/>
        <pt x="356" y="177" on="0"/>
        <pt x="356" y="141" on="1"/>
        <pt x="356" y="106" on="0"/>
        <pt x="333" y="52" on="0"/>
        <pt x="293" y="14" on="0"/>
        <pt x="240" y="-6" on="0"/>
        <pt x="210" y="-6" on="1"/>
        <pt x="168" y="-6" on="0"/>
        <pt x="107" y="26" on="0"/>
        <pt x="68" y="80" on="0"/>
        <pt x="50" y="152" on="0"/>
        <pt x="50" y="191" on="1"/>
        <pt x="50" y="244" on="0"/>
        <pt x="76" y="331" on="0"/>
        <pt x="124" y="393" on="0"/>
        <pt x="193" y="427" on="0"/>
        <pt x="235" y="427" on="1"/>
        <pt x="258" y="427" on="0"/>
        <pt x="305" y="414" on="0"/>
        <pt x="330" y="397" on="1"/>
      </contour>
      <contour>
        <pt x="214" y="221" on="1"/>
        <pt x="190" y="221" on="0"/>
        <pt x="146" y="193" on="0"/>
        <pt x="129" y="172" on="1"/>
        <pt x="131" y="116" on="0"/>
        <pt x="171" y="55" on="0"/>
        <pt x="210" y="55" on="1"/>
        <pt x="243" y="55" on="0"/>
        <pt x="278" y="101" on="0"/>
        <pt x="278" y="139" on="1"/>
        <pt x="278" y="184" on="0"/>
        <pt x="242" y="221" on="0"/>
      </contour>
    </TTGlyph>
    <TTGlyph name="glyph00703" xMin="57" yMin="-8" xMax="339" yMax="421">
      <contour>
        <pt x="161" y="-8" on="1"/>
        <pt x="89" y="14" on="1"/>
        <pt x="256" y="359" on="1"/>
        <pt x="57" y="359" on="1"/>
        <pt x="57" y="421" on="1"/>
        <pt x="339" y="421" on="1"/>
        <pt x="339" y="370" on="1"/>
      </contour>
    </TTGlyph>
    <TTGlyph name="glyph00704" xMin="40" yMin="-6" xMax="359" yMax="427">
      <contour>
        <pt x="342" y="319" on="1"/>
        <pt x="342" y="288" on="0"/>
        <pt x="300" y="244" on="0"/>
        <pt x="265" y="229" on="1"/>
        <pt x="315" y="211" on="0"/>
        <pt x="359" y="155" on="0"/>
        <pt x="359" y="119" on="1"/>
        <pt x="359" y="65" on="0"/>
        <pt x="274" y="-6" on="0"/>
        <pt x="199" y="-6" on="1"/>
        <pt x="123" y="-6" on="0"/>
        <pt x="40" y="65" on="0"/>
        <pt x="40" y="117" on="1"/>
        <pt x="40" y="152" on="0"/>
        <pt x="87" y="207" on="0"/>
        <pt x="127" y="219" on="1"/>
        <pt x="95" y="235" on="0"/>
        <pt x="58" y="284" on="0"/>
        <pt x="58" y="317" on="1"/>
        <pt x="58" y="347" on="0"/>
        <pt x="85" y="388" on="0"/>
        <pt x="126" y="415" on="0"/>
        <pt x="176" y="427" on="0"/>
        <pt x="200" y="427" on="1"/>
        <pt x="226" y="427" on="0"/>
        <pt x="277" y="415" on="0"/>
        <pt x="317" y="389" on="0"/>
        <pt x="342" y="348" on="0"/>
      </contour>
      <contour>
        <pt x="280" y="118" on="1"/>
        <pt x="280" y="151" on="0"/>
        <pt x="224" y="181" on="0"/>
        <pt x="177" y="196" on="1"/>
        <pt x="152" y="183" on="0"/>
        <pt x="120" y="146" on="0"/>
        <pt x="120" y="118" on="1"/>
        <pt x="120" y="89" on="0"/>
        <pt x="159" y="55" on="0"/>
        <pt x="199" y="55" on="1"/>
        <pt x="237" y="55" on="0"/>
        <pt x="280" y="92" on="0"/>
      </contour>
      <contour>
        <pt x="135" y="318" on="1"/>
        <pt x="135" y="292" on="0"/>
        <pt x="176" y="262" on="0"/>
        <pt x="214" y="251" on="1"/>
        <pt x="266" y="282" on="0"/>
        <pt x="266" y="317" on="1"/>
        <pt x="266" y="340" on="0"/>
        <pt x="232" y="368" on="0"/>
        <pt x="200" y="368" on="1"/>
        <pt x="135" y="368" on="0"/>
      </contour>
    </TTGlyph>
    <TTGlyph name="glyph00705" xMin="41" yMin="-14" xMax="349" yMax="427">
      <contour>
        <pt x="77" y="45" on="1"/>
        <pt x="151" y="63" on="0"/>
        <pt x="253" y="131" on="0"/>
        <pt x="274" y="197" on="1"/>
        <pt x="271" y="198" on="1"/>
        <pt x="256" y="175" on="0"/>
        <pt x="203" y="150" on="0"/>
        <pt x="171" y="150" on="1"/>
        <pt x="144" y="150" on="0"/>
        <pt x="97" y="169" on="0"/>
        <pt x="61" y="205" on="0"/>
        <pt x="41" y="256" on="0"/>
        <pt x="41" y="287" on="1"/>
        <pt x="41" y="320" on="0"/>
        <pt x="66" y="372" on="0"/>
        <pt x="109" y="408" on="0"/>
        <pt x="165" y="427" on="0"/>
        <pt x="196" y="427" on="1"/>
        <pt x="270" y="427" on="0"/>
        <pt x="349" y="336" on="0"/>
        <pt x="349" y="263" on="1"/>
        <pt x="349" y="203" on="0"/>
        <pt x="318" y="114" on="0"/>
        <pt x="255" y="48" on="0"/>
        <pt x="160" y="2" on="0"/>
        <pt x="96" y="-14" on="1"/>
      </contour>
      <contour>
        <pt x="187" y="210" on="1"/>
        <pt x="210" y="210" on="0"/>
        <pt x="254" y="229" on="0"/>
        <pt x="272" y="254" on="1"/>
        <pt x="272" y="314" on="0"/>
        <pt x="231" y="366" on="0"/>
        <pt x="195" y="366" on="1"/>
        <pt x="163" y="366" on="0"/>
        <pt x="120" y="328" on="0"/>
        <pt x="120" y="286" on="1"/>
        <pt x="120" y="246" on="0"/>
        <pt x="159" y="210" on="0"/>
      </contour>
    </TTGlyph>
    <TTGlyph name="glyph00706" xMin="80" yMin="103" xMax="319" yMax="289">
      <contour>
        <pt x="80" y="103" on="1"/>
        <pt x="80" y="168" on="1"/>
        <pt x="319" y="168" on="1"/>
        <pt x="319" y="103" on="1"/>
      </contour>
      <contour>
        <pt x="80" y="224" on="1"/>
        <pt x="80" y="289" on="1"/>
        <pt x="319" y="289" on="1"/>
        <pt x="319" y="224" on="1"/>
      </contour>
    </TTGlyph>
    <TTGlyph name="glyph00707" xMin="81" yMin="164" xMax="319" yMax="228">
      <contour>
        <pt x="81" y="164" on="1"/>
        <pt x="81" y="228" on="1"/>
        <pt x="319" y="228" on="1"/>
        <pt x="319" y="164" on="1"/>
      </contour>
    </TTGlyph>
    <TTGlyph name="glyph00709" xMin="3" yMin="0" xMax="497" yMax="669">
      <component glyphName="glyph00754" x="0" y="0" flags="0x204"/>
    </TTGlyph>
    <TTGlyph name="glyph00710" xMin="14" yMin="-154" xMax="481" yMax="825">
      <component glyphName="glyph00755" x="0" y="0" flags="0x204"/>
    </TTGlyph>
    <TTGlyph name="glyph00711" xMin="75" yMin="-28" xMax="775" yMax="708">
      <component glyphName="glyph00756" x="0" y="0" flags="0x204"/>
    </TTGlyph>
    <TTGlyph name="glyph00712" xMin="62" yMin="124" xMax="437" yMax="499">
      <component glyphName="glyph00757" x="0" y="0" flags="0x204"/>
    </TTGlyph>
    <TTGlyph name="glyph00713" xMin="32" yMin="-12" xMax="558" yMax="574">
      <contour>
        <pt x="125" y="282" on="1"/>
        <pt x="125" y="222" on="0"/>
        <pt x="155" y="137" on="0"/>
        <pt x="203" y="85" on="0"/>
        <pt x="264" y="61" on="0"/>
        <pt x="295" y="61" on="1"/>
        <pt x="326" y="61" on="0"/>
        <pt x="387" y="85" on="0"/>
        <pt x="435" y="137" on="0"/>
        <pt x="465" y="222" on="0"/>
        <pt x="465" y="282" on="1"/>
        <pt x="465" y="342" on="0"/>
        <pt x="435" y="426" on="0"/>
        <pt x="387" y="478" on="0"/>
        <pt x="326" y="501" on="0"/>
        <pt x="295" y="501" on="1"/>
        <pt x="264" y="501" on="0"/>
        <pt x="203" y="478" on="0"/>
        <pt x="155" y="426" on="0"/>
        <pt x="125" y="342" on="0"/>
      </contour>
      <contour>
        <pt x="558" y="282" on="1"/>
        <pt x="558" y="212" on="0"/>
        <pt x="518" y="103" on="0"/>
        <pt x="447" y="28" on="0"/>
        <pt x="351" y="-12" on="0"/>
        <pt x="295" y="-12" on="1"/>
        <pt x="239" y="-12" on="0"/>
        <pt x="142" y="28" on="0"/>
        <pt x="72" y="103" on="0"/>
        <pt x="32" y="212" on="0"/>
        <pt x="32" y="282" on="1"/>
        <pt x="32" y="352" on="0"/>
        <pt x="72" y="460" on="0"/>
        <pt x="142" y="535" on="0"/>
        <pt x="239" y="574" on="0"/>
        <pt x="295" y="574" on="1"/>
        <pt x="351" y="574" on="0"/>
        <pt x="447" y="535" on="0"/>
        <pt x="518" y="460" on="0"/>
        <pt x="558" y="352" on="0"/>
      </contour>
    </TTGlyph>
    <TTGlyph name="glyph00714" xMin="21" yMin="0" xMax="305" yMax="564">
      <contour>
        <pt x="213" y="0" on="1"/>
        <pt x="213" y="463" on="1"/>
        <pt x="64" y="370" on="1"/>
        <pt x="21" y="434" on="1"/>
        <pt x="224" y="564" on="1"/>
        <pt x="305" y="564" on="1"/>
        <pt x="305" y="0" on="1"/>
      </contour>
    </TTGlyph>
    <TTGlyph name="glyph00715" xMin="26" yMin="0" xMax="452" yMax="574">
      <contour>
        <pt x="442" y="397" on="1"/>
        <pt x="442" y="374" on="0"/>
        <pt x="436" y="332" on="0"/>
        <pt x="416" y="288" on="0"/>
        <pt x="378" y="241" on="0"/>
        <pt x="314" y="185" on="0"/>
        <pt x="220" y="118" on="0"/>
        <pt x="155" y="77" on="1"/>
        <pt x="452" y="77" on="1"/>
        <pt x="441" y="0" on="1"/>
        <pt x="36" y="0" on="1"/>
        <pt x="36" y="73" on="1"/>
        <pt x="140" y="146" on="0"/>
        <pt x="263" y="243" on="0"/>
        <pt x="327" y="311" on="0"/>
        <pt x="345" y="364" on="0"/>
        <pt x="345" y="394" on="1"/>
        <pt x="345" y="442" on="0"/>
        <pt x="282" y="499" on="0"/>
        <pt x="232" y="499" on="1"/>
        <pt x="190" y="499" on="0"/>
        <pt x="122" y="465" on="0"/>
        <pt x="90" y="425" on="1"/>
        <pt x="26" y="468" on="1"/>
        <pt x="68" y="520" on="0"/>
        <pt x="168" y="574" on="0"/>
        <pt x="234" y="574" on="1"/>
        <pt x="282" y="574" on="0"/>
        <pt x="359" y="547" on="0"/>
        <pt x="413" y="500" on="0"/>
        <pt x="442" y="435" on="0"/>
      </contour>
    </TTGlyph>
    <TTGlyph name="glyph00716" xMin="20" yMin="-123" xMax="452" yMax="574">
      <contour>
        <pt x="452" y="83" on="1"/>
        <pt x="452" y="38" on="0"/>
        <pt x="420" y="-37" on="0"/>
        <pt x="361" y="-92" on="0"/>
        <pt x="277" y="-123" on="0"/>
        <pt x="225" y="-123" on="1"/>
        <pt x="165" y="-123" on="0"/>
        <pt x="60" y="-78" on="0"/>
        <pt x="20" y="-30" on="1"/>
        <pt x="80" y="20" on="1"/>
        <pt x="140" y="-48" on="0"/>
        <pt x="222" y="-48" on="1"/>
        <pt x="290" y="-48" on="0"/>
        <pt x="356" y="24" on="0"/>
        <pt x="356" y="84" on="1"/>
        <pt x="356" y="158" on="0"/>
        <pt x="282" y="220" on="0"/>
        <pt x="221" y="220" on="1"/>
        <pt x="171" y="220" on="1"/>
        <pt x="182" y="291" on="1"/>
        <pt x="215" y="291" on="1"/>
        <pt x="240" y="291" on="0"/>
        <pt x="285" y="301" on="0"/>
        <pt x="319" y="325" on="0"/>
        <pt x="340" y="366" on="0"/>
        <pt x="340" y="396" on="1"/>
        <pt x="340" y="449" on="0"/>
        <pt x="276" y="501" on="0"/>
        <pt x="225" y="501" on="1"/>
        <pt x="181" y="501" on="0"/>
        <pt x="120" y="471" on="0"/>
        <pt x="85" y="439" on="1"/>
        <pt x="36" y="493" on="1"/>
        <pt x="81" y="536" on="0"/>
        <pt x="173" y="574" on="0"/>
        <pt x="229" y="574" on="1"/>
        <pt x="277" y="574" on="0"/>
        <pt x="352" y="548" on="0"/>
        <pt x="403" y="503" on="0"/>
        <pt x="430" y="441" on="0"/>
        <pt x="430" y="406" on="1"/>
        <pt x="430" y="374" on="0"/>
        <pt x="408" y="325" on="0"/>
        <pt x="372" y="289" on="0"/>
        <pt x="325" y="267" on="0"/>
        <pt x="299" y="262" on="1"/>
        <pt x="299" y="258" on="1"/>
        <pt x="328" y="256" on="0"/>
        <pt x="383" y="231" on="0"/>
        <pt x="426" y="187" on="0"/>
        <pt x="452" y="123" on="0"/>
      </contour>
    </TTGlyph>
    <TTGlyph name="glyph00717" xMin="31" yMin="-112" xMax="489" yMax="574">
      <contour>
        <pt x="412" y="40" on="1"/>
        <pt x="412" y="-112" on="1"/>
        <pt x="323" y="-112" on="1"/>
        <pt x="323" y="40" on="1"/>
        <pt x="31" y="40" on="1"/>
        <pt x="31" y="105" on="1"/>
        <pt x="233" y="574" on="1"/>
        <pt x="310" y="542" on="1"/>
        <pt x="128" y="113" on="1"/>
        <pt x="323" y="113" on="1"/>
        <pt x="332" y="293" on="1"/>
        <pt x="412" y="293" on="1"/>
        <pt x="412" y="113" on="1"/>
        <pt x="489" y="113" on="1"/>
        <pt x="489" y="40" on="1"/>
      </contour>
    </TTGlyph>
</ttFont>
